<?xml version="1.0" encoding="utf-8"?>
<!-- Generator: Adobe Illustrator 24.0.3, SVG Export Plug-In . SVG Version: 6.00 Build 0)  -->
<svg version="1.1" id="Layer_1" xmlns="http://www.w3.org/2000/svg" xmlns:xlink="http://www.w3.org/1999/xlink" x="0px" y="0px"
	 viewBox="0 0 1920 130" style="enable-background:new 0 0 1920 130;" xml:space="preserve">
<style type="text/css">
	.st0{fill:none;stroke:#000000;stroke-width:4;stroke-linecap:round;stroke-linejoin:round;stroke-miterlimit:10;}
	.st1{fill:none;stroke:#000000;stroke-width:2;stroke-miterlimit:10;}
	.st2{fill:#808080;}
	.st3{fill:none;stroke:#808080;stroke-width:3;stroke-linecap:square;stroke-linejoin:round;stroke-miterlimit:10;}
</style>
<g>
	<g>
		<g>
			<g>
				<path d="M148.41,24.2c-9.43-9.28-25.35-3.73-31.97,6.15c-4.34,6.47-5.79,14.4-6.14,22.06c-0.39,8.38,0.27,16.85,0.81,25.22
					c0.67,10.25,1.61,20.47,2.82,30.67c0.14,1.21,0.93,2.25,2.25,2.25c1.11,0,2.39-1.04,2.25-2.25
					c-1.97-16.58-3.52-33.36-3.72-50.06c-0.15-12.25,1.71-27.34,14.51-32.74c5.25-2.22,11.74-2.31,16.01,1.9
					C147.3,29.42,150.48,26.24,148.41,24.2L148.41,24.2z"/>
			</g>
		</g>
		<g>
			<g>
				<path d="M96,86.47c12.36-0.98,24.71-1.97,37.07-2.95c1.21-0.1,2.25-0.97,2.25-2.25c0-1.14-1.03-2.35-2.25-2.25
					C120.71,80,108.36,80.98,96,81.97c-1.21,0.1-2.25,0.96-2.25,2.25C93.75,85.36,94.78,86.57,96,86.47L96,86.47z"/>
			</g>
		</g>
		<g>
			<g>
				<path d="M147.24,81.03c-1.12,7.89-2.24,15.78-3.36,23.67c-0.17,1.2,0.29,2.42,1.57,2.77c1.05,0.29,2.6-0.36,2.77-1.57
					c1.12-7.89,2.24-15.78,3.36-23.67c0.17-1.2-0.29-2.42-1.57-2.77C148.95,79.17,147.41,79.82,147.24,81.03L147.24,81.03z"/>
			</g>
		</g>
		<g>
			<g>
				<path d="M144.74,69.98c3.97,3.88,9.03,6.62,14.47,7.75c1.15,0.24,2.49-0.34,2.77-1.57c0.26-1.13-0.34-2.51-1.57-2.77
					c-1.23-0.26-2.44-0.59-3.62-1.01c-0.28-0.1-0.55-0.2-0.83-0.31c-0.14-0.05-0.27-0.11-0.41-0.17c0.33,0.14-0.11-0.05-0.17-0.08
					c-0.57-0.26-1.14-0.53-1.69-0.83c-1.07-0.57-2.11-1.22-3.1-1.93c-0.15-0.11-0.3-0.22-0.45-0.33c-0.1-0.07-0.26-0.2-0.07-0.05
					c-0.23-0.18-0.46-0.37-0.68-0.56c-0.51-0.43-0.99-0.88-1.47-1.34c-0.84-0.82-2.35-0.9-3.18,0
					C143.93,67.69,143.84,69.1,144.74,69.98L144.74,69.98z"/>
			</g>
		</g>
		<g>
			<g>
				<path d="M159.41,88.65c2.05,4.09,3,8.58,2.88,13.15c-0.06,2.48,3.93,3.13,4.42,0.6c0.96-4.97,3.1-9.61,6.41-13.45
					c-0.91,0.12-1.82,0.23-2.73,0.35c2.85,1.39,4.04,4.54,5.46,7.18c1.82,3.38,4.14,6.23,7.89,7.52c3.94,1.36,8.41,0.74,12.35-0.32
					c4.1-1.11,8.18-2.97,11.19-6.04c2.84-2.91,4.65-7.04,4.37-11.15c-0.26-3.86-2.26-7.5-5.89-9.12c-3.24-1.46-7.24-1.47-10.15,0.76
					c-3.4,2.6-3.91,7.16-2.63,11.01c1.51,4.51,4.81,8.33,8.24,11.52c3.61,3.36,7.76,6.13,12.27,8.15c1.11,0.5,2.42,0.32,3.08-0.81
					c0.56-0.96,0.31-2.58-0.81-3.08c-6.37-2.86-12.48-7.34-16.45-13.17c-1.58-2.33-3.42-5.82-2.09-8.66
					c1.01-2.17,3.54-2.61,5.66-2.02c2.59,0.72,4.14,2.95,4.28,5.6c0.17,3.21-1.3,6.19-3.63,8.34c-2.5,2.3-5.77,3.6-9.02,4.44
					c-3.11,0.8-6.66,1.35-9.74,0.15c-2.99-1.16-4.38-4.15-5.77-6.81c-1.52-2.91-3.27-5.88-6.33-7.37c-0.85-0.41-2.05-0.43-2.73,0.35
					c-3.81,4.42-6.46,9.69-7.57,15.43c1.47,0.2,2.95,0.4,4.42,0.6c0.14-5.37-1.09-10.62-3.5-15.42
					C162,83.79,158.11,86.06,159.41,88.65L159.41,88.65z"/>
			</g>
		</g>
		<g>
			<g>
				<path d="M263.36,105.96c-2.9-8.47-5.1-17.17-6.57-26.01c-1.43-8.65-2.32-17.58-2.03-26.36c0.13-3.99,0.65-8.06,2.21-11.77
					c0.52-1.24,1.18-2.43,1.94-3.54c0.53-0.77,0.85-1.17,1.67-2.01c3.16-3.26,7.26-4.78,11.85-3.3c5.3,1.7,9.68,6.56,12.77,10.65
					c3.17,4.2,5.93,8.71,8.43,13.34c5.03,9.32,9.44,19.51,11.06,30.04c0.05,0.3,0.09,0.63,0.15,1.23c0.06,0.55,0.1,1.1,0.13,1.64
					c0.05,0.95,0.06,1.91,0.01,2.86c-0.02,0.44-0.06,0.88-0.12,1.31c0.06-0.46-0.01,0.02-0.04,0.2c-0.04,0.23-0.09,0.46-0.14,0.68
					c-0.09,0.38-0.19,0.75-0.31,1.12c-0.06,0.18-0.12,0.35-0.19,0.53c-0.11,0.29,0.18-0.31-0.08,0.17c-0.17,0.31-0.33,0.61-0.52,0.9
					c-0.08,0.12-0.17,0.24-0.25,0.36c0.38-0.51,0.01-0.02-0.11,0.09c-0.17,0.16-0.91,0.77-0.39,0.4c-0.3,0.21-0.6,0.39-0.92,0.57
					c-0.22,0.12-0.48,0.19-0.07,0.04c-0.17,0.06-0.34,0.12-0.51,0.17c-0.39,0.12-0.78,0.2-1.18,0.26c0.56-0.09-0.16,0-0.35,0.02
					c-0.52,0.04-1.03,0.07-1.55,0.09c-1.11,0.04-2.23,0.02-3.34-0.06c-6.61-0.45-15.62-3.44-16.93-10.98
					c-1.26-7.26,7.44-11.95,12.82-14.48c7.19-3.39,15.28-5.13,23.23-4.28c5.81,0.62,9.97,2.64,14.63,6.11
					c4.02,2.99,7.88,6.68,11,10.68c0.43,0.55,1.23,1.67,1.74,2.49c0.24,0.38,0.47,0.77,0.68,1.16c0.11,0.2,0.21,0.4,0.31,0.6
					c0.04,0.09,0.33,0.72,0.23,0.48c-0.11-0.27,0.11,0.29,0.14,0.37c0.06,0.18,0.12,0.35,0.17,0.53c0.05,0.17,0.08,0.34,0.13,0.51
					c0.15,0.55,0.03-0.22,0.02,0.09c-0.01,0.14-0.01,0.31,0.01,0.45c0.06,0.45,0.09-0.35,0.02-0.07c-0.18,0.66,0.21-0.32-0.11,0.27
					c0.28-0.52,0.22-0.25,0.03-0.08c-0.34,0.31,0.36-0.16,0.04-0.04c-0.09,0.03-0.53,0.24-0.19,0.11c0.35-0.13-0.22,0.04-0.34,0.08
					c-0.22,0.06-0.56,0.08-0.12,0.04c-0.21,0.02-0.42,0.02-0.63,0.04c-0.34,0.03-0.43-0.17,0.05,0.05c-0.3-0.14-0.33-0.22,0.03,0.07
					c-0.51-0.41,0.23,0.34-0.18-0.11c-0.32-0.35,0.19,0.38,0.04,0.06c-0.07-0.14-0.16-0.29-0.24-0.43c-0.17-0.27,0.11,0.45,0-0.02
					c-0.04-0.16-0.1-0.32-0.14-0.48c-0.05-0.17-0.08-0.35-0.12-0.53c-0.02-0.08-0.03-0.16-0.04-0.24c-0.11-0.53,0.03,0.34,0,0.02
					c-0.44-4.38,0.37-8.22,1.36-12.45c0.52-2.24,1.13-4.46,1.84-6.64c0.31-0.95,0.64-1.9,1-2.83c0.08-0.2,0.16-0.4,0.24-0.6
					c0.03-0.08,0.07-0.16,0.1-0.24c0.13-0.3-0.16,0.36-0.03,0.07c0.16-0.35,0.31-0.7,0.48-1.04c0.12-0.25,0.25-0.49,0.39-0.73
					c0.06-0.11,0.14-0.21,0.2-0.32c0.21-0.42-0.23,0.22-0.08,0.09c0.06-0.06,0.11-0.13,0.18-0.19c-0.69,0.6,0.04-0.01,0.35-0.17
					c0.79-0.41,1.7-0.58,2.57-0.67c2.18-0.22,4.42-0.1,6.61-0.11c2.29-0.01,4.58-0.02,6.86-0.03c4.58-0.02,9.15-0.04,13.73-0.05
					c2.89-0.01,2.9-4.51,0-4.5c-5.15,0.02-10.3,0.04-15.44,0.06c-2.53,0.01-5.07,0.02-7.6,0.03c-2.32,0.01-4.73-0.08-6.98,0.56
					c-2.28,0.65-3.73,1.82-4.75,3.88c-0.91,1.86-1.62,3.83-2.25,5.8c-1.6,4.97-2.8,10.15-3.26,15.35c-0.3,3.4-0.56,9.3,3.56,10.62
					c1.83,0.59,4.31,0.08,5.75-1.18c1.5-1.32,1.75-3.32,1.36-5.18c-0.42-2-1.52-3.89-2.65-5.57c-1.55-2.3-3.36-4.44-5.28-6.44
					c-3.95-4.13-8.49-8-13.51-10.76c-6.69-3.69-14.76-4.24-22.2-3.22c-8.48,1.16-17.36,4.58-24.02,10.04
					c-3.11,2.55-5.66,5.98-6.21,10.05c-0.56,4.12,1.09,8.06,3.8,11.11c2.84,3.19,6.8,5.08,10.86,6.18c4.22,1.15,8.92,1.6,13.26,0.89
					c3.87-0.64,6.52-3.65,7.49-7.34c1.18-4.49,0.47-9.41-0.48-13.87c-1.24-5.82-3.29-11.44-5.61-16.9
					c-2.42-5.69-5.23-11.23-8.44-16.52c-2.77-4.56-5.83-9.06-9.51-12.94c-4.91-5.18-11.75-9.69-19.2-8.06
					c-4.91,1.07-9.03,4.81-11.48,9.08c-4.61,8.04-4.25,17.92-3.69,26.85c0.61,9.84,2.1,19.63,4.46,29.2
					c1.15,4.65,2.5,9.25,4.05,13.78C259.95,109.88,264.3,108.71,263.36,105.96L263.36,105.96z"/>
			</g>
		</g>
		<g>
			<g>
				<path d="M352.25,50.65c0.13,13.46,0.59,28.07,9.84,38.8c3.75,4.35,8.9,7.86,14.62,8.89c5.92,1.06,11.66-0.6,16.21-4.54
					c4.77-4.13,7.53-10.75,5.53-16.95c-0.88-2.75-5.23-1.57-4.34,1.2c1.41,4.38-0.41,8.77-3.6,11.87c-3.34,3.25-7.97,4.89-12.6,4.08
					c-10.77-1.88-17.23-12.34-19.47-22.22c-1.57-6.92-1.62-14.07-1.68-21.12C356.72,47.76,352.22,47.75,352.25,50.65L352.25,50.65z"
					/>
			</g>
		</g>
	</g>
	<g>
		<path d="M681.44,80.35c-2.51,0.99-5.05,1.49-7.6,1.49c-3.24,0-6.14-0.6-8.69-1.79c-2.55-1.19-4.72-2.81-6.5-4.83
			c-1.78-2.03-3.14-4.36-4.07-6.99c-0.93-2.63-1.4-5.37-1.4-8.21c0-3.16,0.44-6.17,1.31-9.03c0.87-2.86,2.17-5.36,3.89-7.51
			c1.72-2.15,3.87-3.86,6.44-5.14c2.57-1.28,5.58-1.91,9.03-1.91c2.35,0,4.57,0.27,6.66,0.82c2.09,0.55,3.95,1.41,5.59,2.58
			c1.64,1.18,3.02,2.67,4.13,4.47c1.11,1.8,1.87,3.98,2.28,6.53h-5.78c-0.28-1.66-0.81-3.09-1.58-4.29
			c-0.77-1.19-1.72-2.18-2.86-2.95c-1.13-0.77-2.42-1.35-3.86-1.73c-1.44-0.38-2.97-0.58-4.59-0.58c-2.64,0-4.89,0.53-6.78,1.58
			c-1.88,1.05-3.43,2.44-4.62,4.16c-1.2,1.72-2.08,3.69-2.64,5.9c-0.57,2.21-0.85,4.47-0.85,6.78c0,2.27,0.32,4.45,0.97,6.54
			c0.65,2.09,1.6,3.93,2.86,5.53c1.26,1.6,2.81,2.88,4.65,3.83c1.84,0.95,3.98,1.43,6.41,1.43c2.27,0,4.28-0.36,6.02-1.09
			c1.74-0.73,3.21-1.73,4.41-3.01c1.19-1.28,2.1-2.78,2.7-4.5c0.61-1.72,0.87-3.58,0.79-5.56H673.9v-4.86h19.03v22.86h-3.65
			l-1.52-5.41C686.06,77.73,683.95,79.36,681.44,80.35z"/>
		<path d="M705.27,49.44v6.63h0.12c1.26-2.55,2.8-4.44,4.62-5.65c1.82-1.22,4.13-1.78,6.93-1.7v5.47c-2.07,0-3.83,0.28-5.29,0.85
			c-1.46,0.57-2.63,1.4-3.53,2.49c-0.89,1.09-1.54,2.42-1.95,3.98c-0.41,1.56-0.61,3.35-0.61,5.38v13.98h-5.17V49.44H705.27z"/>
		<path d="M748.67,80.74c-0.89,0.53-2.13,0.79-3.71,0.79c-1.34,0-2.4-0.38-3.19-1.12c-0.79-0.75-1.19-1.98-1.19-3.68
			c-1.42,1.7-3.07,2.93-4.95,3.68c-1.88,0.75-3.92,1.12-6.11,1.12c-1.42,0-2.77-0.16-4.04-0.49c-1.28-0.32-2.38-0.83-3.31-1.52
			c-0.93-0.69-1.67-1.59-2.22-2.71c-0.55-1.11-0.82-2.46-0.82-4.04c0-1.78,0.3-3.24,0.91-4.38c0.61-1.13,1.41-2.06,2.4-2.77
			c0.99-0.71,2.13-1.25,3.4-1.61c1.28-0.37,2.58-0.67,3.92-0.91c1.42-0.28,2.77-0.5,4.04-0.64c1.28-0.14,2.4-0.34,3.37-0.61
			c0.97-0.26,1.74-0.65,2.31-1.16c0.57-0.51,0.85-1.25,0.85-2.22c0-1.13-0.21-2.05-0.64-2.74c-0.43-0.69-0.97-1.22-1.64-1.58
			c-0.67-0.37-1.42-0.61-2.25-0.73c-0.83-0.12-1.65-0.18-2.46-0.18c-2.19,0-4.01,0.42-5.47,1.25c-1.46,0.83-2.25,2.4-2.37,4.71
			h-5.17c0.08-1.95,0.49-3.59,1.22-4.92c0.73-1.34,1.7-2.42,2.92-3.25c1.22-0.83,2.6-1.43,4.16-1.79c1.56-0.36,3.23-0.55,5.02-0.55
			c1.42,0,2.83,0.1,4.23,0.3c1.4,0.2,2.66,0.62,3.8,1.24c1.13,0.63,2.05,1.51,2.74,2.64c0.69,1.13,1.03,2.61,1.03,4.43v16.14
			c0,1.21,0.07,2.1,0.21,2.67c0.14,0.57,0.62,0.85,1.43,0.85c0.45,0,0.97-0.08,1.58-0.24V80.74z M740.29,64.64
			c-0.65,0.48-1.5,0.84-2.55,1.06c-1.05,0.22-2.16,0.4-3.31,0.54c-1.15,0.14-2.32,0.3-3.49,0.48c-1.18,0.18-2.23,0.47-3.16,0.88
			c-0.93,0.4-1.69,0.98-2.28,1.72c-0.59,0.75-0.88,1.76-0.88,3.05c0,0.85,0.17,1.56,0.52,2.15c0.34,0.59,0.79,1.06,1.34,1.42
			c0.55,0.36,1.19,0.62,1.91,0.79c0.73,0.16,1.5,0.24,2.31,0.24c1.7,0,3.16-0.23,4.38-0.7c1.22-0.46,2.21-1.05,2.98-1.75
			c0.77-0.71,1.34-1.47,1.7-2.3c0.36-0.83,0.55-1.6,0.55-2.33V64.64z"/>
		<path d="M758.83,49.44v4.26h0.12c0.85-1.74,2.19-3.01,4.01-3.8c1.82-0.79,3.83-1.19,6.02-1.19c2.43,0,4.55,0.45,6.35,1.34
			c1.8,0.89,3.3,2.1,4.5,3.62c1.19,1.52,2.1,3.27,2.71,5.26c0.61,1.99,0.91,4.09,0.91,6.32c0,2.23-0.29,4.34-0.88,6.32
			c-0.59,1.99-1.48,3.72-2.67,5.2c-1.2,1.48-2.7,2.64-4.5,3.5c-1.8,0.85-3.9,1.28-6.29,1.28c-0.77,0-1.63-0.08-2.58-0.24
			c-0.95-0.16-1.89-0.43-2.83-0.79c-0.93-0.37-1.81-0.86-2.64-1.49c-0.83-0.63-1.53-1.41-2.1-2.34h-0.12v16.17h-5.17v-43.4H758.83z
			 M777.4,60.59c-0.39-1.4-0.97-2.64-1.76-3.74c-0.79-1.09-1.8-1.97-3.04-2.61c-1.24-0.65-2.69-0.97-4.35-0.97
			c-1.74,0-3.22,0.34-4.44,1.03c-1.22,0.69-2.21,1.59-2.98,2.71c-0.77,1.12-1.33,2.38-1.67,3.8c-0.34,1.42-0.52,2.86-0.52,4.32
			c0,1.54,0.18,3.03,0.55,4.47c0.36,1.44,0.94,2.71,1.73,3.8c0.79,1.09,1.81,1.98,3.07,2.64c1.26,0.67,2.78,1,4.56,1
			c1.78,0,3.27-0.34,4.47-1.03c1.19-0.69,2.16-1.6,2.89-2.74c0.73-1.13,1.26-2.43,1.58-3.89c0.32-1.46,0.49-2.96,0.49-4.5
			C777.97,63.42,777.78,61.99,777.4,60.59z"/>
		<path d="M794.69,37.46v16.6h0.12c0.4-0.97,0.97-1.79,1.7-2.46c0.73-0.67,1.55-1.22,2.46-1.64c0.91-0.43,1.86-0.74,2.86-0.94
			c0.99-0.2,1.95-0.3,2.89-0.3c2.07,0,3.79,0.28,5.17,0.85c1.38,0.57,2.49,1.36,3.34,2.37c0.85,1.01,1.45,2.22,1.79,3.62
			c0.34,1.4,0.52,2.95,0.52,4.65v20.67h-5.17V59.59c0-1.95-0.57-3.48-1.7-4.62c-1.13-1.13-2.7-1.7-4.68-1.7
			c-1.58,0-2.95,0.24-4.1,0.73c-1.15,0.49-2.12,1.18-2.89,2.07c-0.77,0.89-1.35,1.94-1.73,3.13c-0.39,1.2-0.58,2.5-0.58,3.92v17.75
			h-5.17v-43.4H794.69z"/>
		<path d="M823.63,43.78v-6.32h5.17v6.32H823.63z M828.79,49.44v31.43h-5.17V49.44H828.79z"/>
		<path d="M855.6,54.91c-1.3-1.09-3.04-1.64-5.23-1.64c-1.86,0-3.43,0.34-4.68,1.03c-1.26,0.69-2.26,1.6-3.01,2.74
			c-0.75,1.13-1.29,2.44-1.61,3.92c-0.32,1.48-0.49,3.01-0.49,4.59c0,1.46,0.17,2.88,0.52,4.26c0.34,1.38,0.88,2.6,1.61,3.68
			c0.73,1.07,1.68,1.94,2.86,2.58c1.18,0.65,2.57,0.97,4.19,0.97c2.55,0,4.55-0.67,5.99-2.01c1.44-1.34,2.32-3.22,2.64-5.65h5.29
			c-0.57,3.89-2.02,6.89-4.35,9c-2.33,2.11-5.5,3.16-9.51,3.16c-2.39,0-4.51-0.39-6.35-1.16c-1.84-0.77-3.38-1.86-4.62-3.28
			c-1.24-1.42-2.17-3.11-2.8-5.08c-0.63-1.97-0.94-4.12-0.94-6.47c0-2.35,0.3-4.55,0.91-6.6c0.61-2.05,1.53-3.83,2.77-5.35
			c1.24-1.52,2.79-2.71,4.65-3.59c1.86-0.87,4.03-1.31,6.5-1.31c1.78,0,3.45,0.21,5.02,0.64c1.56,0.43,2.94,1.08,4.13,1.98
			c1.2,0.89,2.18,2.02,2.95,3.37c0.77,1.36,1.26,2.97,1.46,4.83h-5.35C857.75,57.54,856.9,56,855.6,54.91z"/>
		<path d="M902.11,37.46c6.69,0,11.83,1.7,15.44,5.11c3.61,3.4,5.41,8.59,5.41,15.56c0,3.65-0.41,6.88-1.22,9.7
			c-0.81,2.82-2.07,5.19-3.77,7.11c-1.7,1.93-3.87,3.39-6.5,4.41c-2.64,1.01-5.76,1.52-9.36,1.52h-14.89v-43.4H902.11z M902.59,76
			c0.65,0,1.46-0.05,2.43-0.15c0.97-0.1,2.01-0.34,3.1-0.73c1.09-0.39,2.18-0.94,3.25-1.67c1.07-0.73,2.04-1.72,2.89-2.98
			c0.85-1.26,1.55-2.83,2.1-4.71c0.55-1.88,0.82-4.16,0.82-6.84c0-2.59-0.25-4.91-0.76-6.96c-0.51-2.05-1.34-3.79-2.49-5.23
			c-1.15-1.44-2.64-2.53-4.47-3.28c-1.82-0.75-4.07-1.12-6.75-1.12h-9.73V76H902.59z"/>
		<path d="M951.41,78.86c-2.35,1.78-5.31,2.68-8.88,2.68c-2.51,0-4.69-0.41-6.54-1.22c-1.84-0.81-3.4-1.95-4.65-3.4
			c-1.26-1.46-2.2-3.2-2.83-5.23c-0.63-2.03-0.98-4.23-1.06-6.63c0-2.39,0.36-4.58,1.09-6.57c0.73-1.99,1.75-3.71,3.07-5.17
			c1.32-1.46,2.88-2.59,4.68-3.4c1.8-0.81,3.78-1.22,5.93-1.22c2.8,0,5.12,0.58,6.96,1.73c1.84,1.15,3.32,2.62,4.44,4.41
			c1.11,1.78,1.88,3.73,2.31,5.84c0.43,2.11,0.6,4.11,0.52,6.02h-23.53c-0.04,1.38,0.12,2.69,0.49,3.92
			c0.37,1.24,0.95,2.33,1.76,3.28c0.81,0.95,1.84,1.71,3.1,2.28c1.26,0.57,2.73,0.85,4.44,0.85c2.19,0,3.98-0.51,5.38-1.52
			c1.4-1.01,2.32-2.55,2.77-4.62h5.11C955.28,74.42,953.76,77.08,951.41,78.86z M950.16,58.68c-0.47-1.09-1.09-2.04-1.88-2.83
			c-0.79-0.79-1.72-1.42-2.8-1.88c-1.07-0.47-2.26-0.7-3.56-0.7c-1.34,0-2.54,0.23-3.62,0.7c-1.07,0.47-2,1.1-2.77,1.91
			c-0.77,0.81-1.38,1.75-1.82,2.83c-0.45,1.07-0.71,2.22-0.79,3.43h18.05C950.9,60.93,950.63,59.77,950.16,58.68z"/>
		<path d="M965.75,73.85c0.49,0.79,1.12,1.42,1.91,1.88c0.79,0.47,1.68,0.8,2.67,1c0.99,0.2,2.02,0.3,3.07,0.3
			c0.81,0,1.66-0.06,2.55-0.18c0.89-0.12,1.71-0.34,2.46-0.67c0.75-0.32,1.37-0.8,1.85-1.43c0.49-0.63,0.73-1.43,0.73-2.4
			c0-1.34-0.51-2.35-1.52-3.04c-1.01-0.69-2.28-1.25-3.8-1.67c-1.52-0.43-3.17-0.81-4.95-1.16c-1.78-0.34-3.44-0.83-4.95-1.46
			c-1.52-0.63-2.79-1.51-3.8-2.64c-1.01-1.13-1.52-2.71-1.52-4.74c0-1.58,0.35-2.94,1.06-4.07c0.71-1.13,1.62-2.06,2.74-2.77
			c1.11-0.71,2.37-1.24,3.77-1.58c1.4-0.34,2.79-0.52,4.16-0.52c1.78,0,3.42,0.15,4.92,0.46c1.5,0.3,2.83,0.83,3.98,1.58
			c1.16,0.75,2.08,1.76,2.77,3.04c0.69,1.28,1.09,2.87,1.22,4.77h-5.17c-0.08-1.01-0.34-1.85-0.79-2.52
			c-0.45-0.67-1.01-1.2-1.7-1.61c-0.69-0.4-1.45-0.7-2.28-0.88c-0.83-0.18-1.67-0.27-2.52-0.27c-0.77,0-1.55,0.06-2.34,0.18
			c-0.79,0.12-1.51,0.33-2.16,0.64c-0.65,0.3-1.18,0.71-1.58,1.22c-0.41,0.51-0.61,1.17-0.61,1.98c0,0.89,0.31,1.63,0.94,2.22
			c0.63,0.59,1.43,1.07,2.4,1.46c0.97,0.39,2.07,0.71,3.28,0.97c1.22,0.26,2.43,0.54,3.65,0.82c1.3,0.28,2.56,0.63,3.8,1.03
			c1.24,0.41,2.33,0.94,3.28,1.61c0.95,0.67,1.72,1.51,2.31,2.52c0.59,1.01,0.88,2.27,0.88,3.77c0,1.91-0.39,3.49-1.18,4.74
			c-0.79,1.26-1.82,2.27-3.1,3.04c-1.28,0.77-2.71,1.31-4.32,1.61c-1.6,0.3-3.19,0.46-4.77,0.46c-1.74,0-3.4-0.18-4.99-0.55
			c-1.58-0.36-2.98-0.96-4.19-1.79c-1.22-0.83-2.19-1.92-2.92-3.28c-0.73-1.36-1.14-3.01-1.22-4.95h5.17
			C965,72.09,965.27,73.05,965.75,73.85z"/>
		<path d="M992.5,43.78v-6.32h5.17v6.32H992.5z M997.67,49.44v31.43h-5.17V49.44H997.67z"/>
		<path d="M1029.28,89.74c-2.35,2.55-6.04,3.83-11.06,3.83c-1.46,0-2.95-0.16-4.47-0.49c-1.52-0.32-2.9-0.85-4.13-1.58
			s-2.26-1.68-3.07-2.86c-0.81-1.18-1.26-2.61-1.34-4.32h5.17c0.04,0.93,0.33,1.72,0.88,2.37c0.55,0.65,1.22,1.18,2.01,1.58
			c0.79,0.4,1.65,0.7,2.58,0.88c0.93,0.18,1.82,0.27,2.67,0.27c1.7,0,3.14-0.29,4.32-0.88c1.18-0.59,2.15-1.4,2.92-2.43
			c0.77-1.03,1.33-2.28,1.67-3.74c0.34-1.46,0.52-3.06,0.52-4.8v-2.07h-0.12c-0.89,1.95-2.24,3.37-4.04,4.29
			c-1.8,0.91-3.72,1.37-5.74,1.37c-2.35,0-4.4-0.43-6.14-1.28c-1.74-0.85-3.2-2-4.38-3.43c-1.18-1.44-2.06-3.12-2.65-5.05
			c-0.59-1.92-0.88-3.96-0.88-6.11c0-1.86,0.24-3.78,0.73-5.74c0.49-1.97,1.3-3.75,2.43-5.35c1.13-1.6,2.63-2.92,4.5-3.95
			c1.86-1.03,4.15-1.55,6.87-1.55c1.99,0,3.81,0.44,5.47,1.31c1.66,0.87,2.96,2.18,3.89,3.92h0.06v-4.5h4.86v28.75
			C1032.8,83.34,1031.63,87.19,1029.28,89.74z M1022.68,75.61c1.19-0.71,2.16-1.64,2.89-2.8c0.73-1.16,1.27-2.46,1.61-3.92
			c0.34-1.46,0.52-2.92,0.52-4.38c0-1.38-0.16-2.74-0.49-4.07c-0.32-1.34-0.84-2.54-1.55-3.62c-0.71-1.07-1.63-1.93-2.77-2.58
			c-1.14-0.65-2.51-0.97-4.13-0.97c-1.66,0-3.08,0.31-4.26,0.94c-1.18,0.63-2.14,1.47-2.89,2.52c-0.75,1.05-1.3,2.27-1.64,3.65
			c-0.34,1.38-0.52,2.82-0.52,4.32c0,1.42,0.14,2.84,0.43,4.26c0.28,1.42,0.77,2.71,1.46,3.86c0.69,1.15,1.6,2.09,2.73,2.8
			c1.13,0.71,2.55,1.06,4.26,1.06C1020.04,76.67,1021.49,76.32,1022.68,75.61z"/>
		<path d="M1045.45,49.44v4.98h0.12c2.15-3.81,5.55-5.71,10.21-5.71c2.07,0,3.79,0.28,5.17,0.85c1.38,0.57,2.49,1.36,3.34,2.37
			c0.85,1.01,1.45,2.22,1.79,3.62c0.34,1.4,0.52,2.95,0.52,4.65v20.67h-5.17V59.59c0-1.95-0.57-3.48-1.7-4.62
			c-1.14-1.13-2.7-1.7-4.68-1.7c-1.58,0-2.95,0.24-4.1,0.73s-2.12,1.18-2.89,2.07c-0.77,0.89-1.35,1.94-1.73,3.13
			c-0.39,1.2-0.58,2.5-0.58,3.92v17.75h-5.17V49.44H1045.45z"/>
		<path d="M1096.63,78.86c-2.35,1.78-5.31,2.68-8.88,2.68c-2.51,0-4.69-0.41-6.54-1.22c-1.84-0.81-3.39-1.95-4.65-3.4
			c-1.26-1.46-2.2-3.2-2.83-5.23c-0.63-2.03-0.98-4.23-1.06-6.63c0-2.39,0.37-4.58,1.09-6.57c0.73-1.99,1.75-3.71,3.07-5.17
			c1.32-1.46,2.88-2.59,4.68-3.4c1.8-0.81,3.78-1.22,5.93-1.22c2.8,0,5.12,0.58,6.96,1.73c1.84,1.15,3.32,2.62,4.44,4.41
			c1.11,1.78,1.88,3.73,2.31,5.84c0.43,2.11,0.6,4.11,0.52,6.02h-23.53c-0.04,1.38,0.12,2.69,0.49,3.92
			c0.36,1.24,0.95,2.33,1.76,3.28c0.81,0.95,1.84,1.71,3.1,2.28c1.26,0.57,2.74,0.85,4.44,0.85c2.19,0,3.98-0.51,5.38-1.52
			c1.4-1.01,2.32-2.55,2.77-4.62h5.11C1100.5,74.42,1098.98,77.08,1096.63,78.86z M1095.39,58.68c-0.47-1.09-1.09-2.04-1.88-2.83
			c-0.79-0.79-1.72-1.42-2.8-1.88c-1.07-0.47-2.26-0.7-3.56-0.7c-1.34,0-2.54,0.23-3.62,0.7c-1.07,0.47-2,1.1-2.77,1.91
			c-0.77,0.81-1.38,1.75-1.82,2.83c-0.45,1.07-0.71,2.22-0.79,3.43h18.05C1096.13,60.93,1095.85,59.77,1095.39,58.68z"/>
	</g>
	<g>
		<g>
			<circle class="st0" cx="1635.04" cy="61.52" r="14.14"/>
			<line class="st0" x1="1656.14" y1="82.61" x2="1645.04" y2="71.52"/>
		</g>
		<g>
			<g>
				<path d="M1405.04,77.48c-2.05,1.92-4.96,2.88-8.75,2.88c-3.87,0-6.89-0.92-9.07-2.76c-2.17-1.84-3.26-4.76-3.26-8.77V49.64h4
					v19.19c0,2.69,0.72,4.73,2.15,6.12c1.43,1.39,3.49,2.08,6.19,2.08c2.55,0,4.49-0.69,5.83-2.08c1.33-1.39,2-3.43,2-6.12V49.64h4
					v19.19C1408.11,72.67,1407.09,75.55,1405.04,77.48z"/>
				<path d="M1418.67,49.64v30.04h-4V49.64H1418.67z"/>
				<path d="M1446.31,77.48c-2.05,1.92-4.96,2.88-8.75,2.88c-3.87,0-6.89-0.92-9.07-2.76c-2.17-1.84-3.26-4.76-3.26-8.77V49.64h4
					v19.19c0,2.69,0.72,4.73,2.15,6.12c1.43,1.39,3.49,2.08,6.19,2.08c2.55,0,4.49-0.69,5.83-2.08c1.33-1.39,2-3.43,2-6.12V49.64h4
					v19.19C1449.39,72.67,1448.36,75.55,1446.31,77.48z"/>
				<path d="M1453.05,49.64h4.8l7.49,11.74l7.83-11.74h4.46l-9.93,14.6l10.56,15.44h-4.88l-8.08-12.41l-8.33,12.41h-4.46
					l10.43-15.44L1453.05,49.64z"/>
			</g>
		</g>
		<path class="st1" d="M1651.62,100.23h-279.85c-19.45,0-35.23-15.77-35.23-35.23v0c0-19.45,15.77-35.23,35.23-35.23h279.85
			c19.46,0,35.23,15.77,35.23,35.23v0C1686.85,84.46,1671.07,100.23,1651.62,100.23z"/>
	</g>
	<g>
		<g>
			<g>
				<path class="st2" d="M586.28,52.86c5.16,3.15,10.32,6.31,15.49,9.46c-0.1-0.79-0.2-1.57-0.3-2.36
					c-5.17,4.37-10.34,8.74-15.5,13.11c-1.48,1.25,0.65,3.36,2.12,2.12c5.17-4.37,10.34-8.74,15.5-13.11
					c0.76-0.64,0.46-1.89-0.3-2.36c-5.16-3.15-10.32-6.31-15.49-9.46C586.14,49.26,584.63,51.86,586.28,52.86L586.28,52.86z"/>
			</g>
		</g>
		<g>
			<g>
				<path class="st2" d="M448.6,77.4c8.07-6.88,17.92-11.55,28.32-13.58c2.6-0.51,5.23-0.84,7.87-0.99
					c2.46-0.14,5.02-0.26,7.43,0.32c2.36,0.57,4.11,1.86,5.15,4.08c0.97,2.06,1.36,4.35,2.27,6.44c4.51,10.46,17.54,5.06,25.44,2.76
					c11.59-3.38,23.33-6.22,35.18-8.51c13.45-2.6,27.03-4.49,40.67-5.66c1.91-0.16,1.93-3.17,0-3c-24.51,2.1-48.81,6.47-72.5,13.09
					c-3,0.84-5.99,1.72-8.98,2.63c-2.35,0.72-4.72,1.46-7.16,1.8c-2.07,0.28-4.35,0.34-6.31-0.48c-2.08-0.88-3.26-2.72-3.99-4.77
					c-0.78-2.2-1.26-4.53-2.44-6.58c-1.22-2.13-3.15-3.58-5.45-4.37c-4.68-1.61-10.32-0.83-15.1-0.13
					c-11.97,1.76-23.32,7-32.52,14.84C445.01,76.53,447.14,78.64,448.6,77.4L448.6,77.4z"/>
			</g>
		</g>
	</g>
	<g>
		<path class="st3" d="M1193.45,75.83l9.82-9.82c0.56-0.56,0.56-1.46,0-2.02l-9.82-9.82"/>
		<path class="st3" d="M1234.55,75.83l9.82-9.82c0.56-0.56,0.56-1.46,0-2.02l-9.82-9.82"/>
		<path class="st3" d="M1275.65,75.83l9.82-9.82c0.56-0.56,0.56-1.46,0-2.02l-9.82-9.82"/>
		<path class="st3" d="M1152.35,75.83l9.82-9.82c0.56-0.56,0.56-1.46,0-2.02l-9.82-9.82"/>
	</g>
	<g>
		<circle class="st2" cx="1744.5" cy="65" r="7"/>
		<circle class="st2" cx="1780.75" cy="65" r="7"/>
		<circle class="st2" cx="1817" cy="65" r="7"/>
	</g>
</g>
</svg>
