<svg id="Layer_1" data-name="Layer 1" xmlns="http://www.w3.org/2000/svg" xmlns:xlink="http://www.w3.org/1999/xlink" width="1750" height="410" viewBox="0 0 1750 410">
  <defs>
    <style>
      .cls-1, .cls-7, .cls-9 {
        fill: none;
      }

      .cls-2 {
        font-size: 42px;
        font-family: SFProDisplay-Medium, SF Pro Display;
        font-weight: 500;
        letter-spacing: 0.012em;
      }

      .cls-3 {
        letter-spacing: -0.00997em;
      }

      .cls-4 {
        letter-spacing: -0.04025em;
      }

      .cls-5 {
        fill: #202020;
      }

      .cls-6 {
        font-size: 105px;
        font-family: Baskerville;
        letter-spacing: 0.01201em;
      }

      .cls-7 {
        stroke: #000;
        stroke-linecap: round;
        stroke-linejoin: round;
        stroke-width: 4px;
      }

      .cls-8 {
        clip-path: url(#clip-path);
      }

      .cls-9 {
        stroke: #e6e6e6;
        stroke-miterlimit: 10;
        stroke-width: 10px;
      }

      .cls-10 {
        clip-path: url(#clip-path-2);
      }

      .cls-11 {
        clip-path: url(#clip-path-3);
      }

      .cls-12 {
        clip-path: url(#clip-path-4);
      }

      .cls-13 {
        clip-path: url(#clip-path-5);
      }
    </style>
    <clipPath id="clip-path">
      <path class="cls-1" d="M372.875,55.05652q4.18827-4.67386,8.65088-9.15515A225.06992,225.06992,0,0,1,738.27972,312.69318,174.67212,174.67212,0,0,1,708.375,254.866,174.45235,174.45235,0,0,0,715.625,205c0-96.49512-78.50488-175-175-175A174.79024,174.79024,0,0,0,402.77979,97.307,225.02216,225.02216,0,0,0,372.875,55.05652ZM678.47021,312.69305A174.79024,174.79024,0,0,1,540.625,380c-96.49512,0-175-78.50488-175-175a174.45272,174.45272,0,0,1,7.25006-49.866,174.67226,174.67226,0,0,0-29.90478-57.82715A225.04835,225.04835,0,0,0,699.72412,364.09863q4.47244-4.47234,8.65088-9.15515A225.02216,225.02216,0,0,1,678.47021,312.69305Z"/>
    </clipPath>
    <clipPath id="clip-path-2">
      <path class="cls-1" d="M707.5,55.05652q4.18827-4.67386,8.65088-9.15515a225.06992,225.06992,0,0,1,356.75384,266.79181A174.67212,174.67212,0,0,1,1043,254.866,174.45235,174.45235,0,0,0,1050.25,205c0-96.49512-78.50488-175-175-175A174.79024,174.79024,0,0,0,737.40479,97.307,225.02216,225.02216,0,0,0,707.5,55.05652Zm305.59521,257.63653A174.79024,174.79024,0,0,1,875.25,380c-96.49512,0-175-78.50488-175-175a174.45272,174.45272,0,0,1,7.25006-49.866,174.67226,174.67226,0,0,0-29.90478-57.82715,225.04835,225.04835,0,0,0,356.75384,266.79181q4.47245-4.47234,8.65088-9.15515A225.02216,225.02216,0,0,1,1013.09521,312.69305Z"/>
    </clipPath>
    <clipPath id="clip-path-3">
      <path class="cls-1" d="M1042.125,55.05652q4.18827-4.67386,8.65088-9.15515a225.06992,225.06992,0,0,1,356.75384,266.79181A174.67212,174.67212,0,0,1,1377.625,254.866a174.45235,174.45235,0,0,0,7.25-49.866c0-96.49512-78.50488-175-175-175a174.79024,174.79024,0,0,0-137.84521,67.307A225.02216,225.02216,0,0,0,1042.125,55.05652Zm305.59521,257.63653A174.79024,174.79024,0,0,1,1209.875,380c-96.49512,0-175-78.50488-175-175a174.45272,174.45272,0,0,1,7.25006-49.866,174.67226,174.67226,0,0,0-29.90478-57.82715,225.04835,225.04835,0,0,0,356.75384,266.79181q4.47245-4.47234,8.65088-9.15515A225.02216,225.02216,0,0,1,1347.72021,312.69305Z"/>
    </clipPath>
    <clipPath id="clip-path-4">
      <path class="cls-1" d="M1376.75,55.05652q4.18827-4.67386,8.65088-9.15515a225.06992,225.06992,0,0,1,356.75384,266.79181A174.67212,174.67212,0,0,1,1712.25,254.866,174.45235,174.45235,0,0,0,1719.5,205c0-96.49512-78.50488-175-175-175a174.79024,174.79024,0,0,0-137.84521,67.307A225.02216,225.02216,0,0,0,1376.75,55.05652Zm305.59521,257.63653A174.79024,174.79024,0,0,1,1544.5,380c-96.49512,0-175-78.50488-175-175a174.45272,174.45272,0,0,1,7.25006-49.866,174.67226,174.67226,0,0,0-29.90478-57.82715,225.04835,225.04835,0,0,0,356.75384,266.79181q4.47245-4.47234,8.65088-9.15515A225.02216,225.02216,0,0,1,1682.34521,312.69305Z"/>
    </clipPath>
    <clipPath id="clip-path-5">
      <path class="cls-1" d="M343.84521,312.69312A174.79021,174.79021,0,0,1,206,380c-96.49512,0-175-78.50488-175-175S109.50488,30,206,30s175,78.50488,175,175a174.451,174.451,0,0,1-7.25,49.866,174.671,174.671,0,0,0,29.90472,57.82715A225.04834,225.04834,0,0,0,46.90088,45.90137a224.99927,224.99927,0,0,0,0,318.19726,224.99927,224.99927,0,0,0,318.19824,0q4.47244-4.47234,8.65088-9.15515A225.022,225.022,0,0,1,343.84521,312.69312Z"/>
    </clipPath>
  </defs>
  <title>process</title>
  <g>
    <path d="M832.84863,199.21387V195.2334l20.334-13.58789v5.06543l-15.7168,10.40429v.2168l15.7168,10.4043v5.06543Z"/>
    <path d="M882.20215,176.81055h4.68164L869.15137,223.792h-4.68164Z"/>
    <path d="M898.1709,207.73633l15.71582-10.4043v-.2168L898.1709,186.71094v-5.06543l20.333,13.58789v3.98047l-20.333,13.58789Z"/>
  </g>
  <text class="cls-2" transform="translate(1465.46533 210.85986)">and mo<tspan class="cls-3" x="137.61719" y="0">r</tspan><tspan x="150.97949" y="0">e..</tspan><tspan class="cls-4" x="196.72656" y="0">.</tspan></text>
  <g>
    <path class="cls-5" d="M269.19012,238.66858a3.17949,3.17949,0,0,0,.24949.53924C268.98053,238.9989,268.80392,238.835,269.19012,238.66858Z"/>
    <path class="cls-5" d="M273.66293,244.05872a22.52542,22.52542,0,0,1-2.33664-2.11933,13.74365,13.74365,0,0,1-1.0809-1.33069,5.81685,5.81685,0,0,1-.80578-1.40088c.3695.16657.93127.36005,1.54687.60547a9.94254,9.94254,0,0,1,1.77475,1.00971C273.84964,241.62677,274.54886,242.68781,273.66293,244.05872Z"/>
    <path class="cls-5" d="M272.01123,234.22009l1.35724,2.198C271.71143,236.28778,272.849,235.2276,272.01123,234.22009Z"/>
    <polygon class="cls-5" points="270.914 237.176 270.108 238.062 269.803 236.399 270.914 237.176"/>
    <path class="cls-5" d="M164.6273,231.23218a5.52314,5.52314,0,0,1-2.16117.91192Z"/>
    <path class="cls-5" d="M173.40662,224.36383a11.75809,11.75809,0,0,0,.99783-1.098C174.336,223.5658,174.03589,223.83807,173.40662,224.36383Z"/>
    <path class="cls-5" d="M164.24016,236.112l-.068-.91144A1.05863,1.05863,0,0,1,164.24016,236.112Z"/>
    <path class="cls-5" d="M221.57709,236.94318c1.04394.55432,2.00155,1.11267,2.702,1.45282C223.064,239.71265,222.35959,237.8833,221.57709,236.94318Z"/>
    <path class="cls-5" d="M203.06308,209.94165l-.72342-.67828C202.85284,209.20184,203.29279,209.26031,203.06308,209.94165Z"/>
    <path class="cls-5" d="M194.45895,221.12152c-.72415.07776-1.242.11664-1.60473.12079l.35626-.1145Z"/>
    <path class="cls-5" d="M166.142,239.1441c.03914-.00561.06507.00757.10543.00495-.14373.37024-.29682.74206-.42083,1.11719C165.58133,239.91156,165.6987,239.54565,166.142,239.1441Z"/>
    <path class="cls-5" d="M208.00012,201.89844a9.2484,9.2484,0,0,1,2.38971-.58875A1.89286,1.89286,0,0,1,208.00012,201.89844Z"/>
    <path class="cls-5" d="M174.47107,223.14136c.02286-.01166.03473-.00348.05868-.01526l-.1253.13971C174.41559,223.22,174.46362,223.18488,174.47107,223.14136Z"/>
    <path class="cls-5" d="M191.55847,223.73328c.32254-.21228.5621-.39038.95557-.61267C192.75793,223.17834,192.27487,223.4295,191.55847,223.73328Z"/>
    <path class="cls-5" d="M221.57709,236.94318c-.29557-.15821-.58838-.315-.88617-.47443C221.01132,236.38574,221.2944,236.60077,221.57709,236.94318Z"/>
    <path class="cls-5" d="M263.10629,237.21277c-.59411-.35431-.42618-.98554-.20437-1.66388A3.08624,3.08624,0,0,1,263.10629,237.21277Z"/>
    <path class="cls-5" d="M149.98289,210.188l.13852.217A.2217.2217,0,0,1,149.98289,210.188Z"/>
    <path class="cls-5" d="M145.5381,190.40381a3.52229,3.52229,0,0,1,.78475-.0553C146.5233,190.52869,146.103,190.51843,145.5381,190.40381Z"/>
    <path class="cls-5" d="M146.667,157.02075c-.8336,1.16773-2.11152,1.39081-3.4759,1.57245-1.3647.14807-2.84316.14459-3.83994.77808l1.30376.53851q-1.21841.23328-2.46675.50806l1.01719,1.3573a9.385,9.385,0,0,0-2.465,1.63256c-.7664.65485-1.49615,1.31727-2.157,1.99885a9.20442,9.20442,0,0,1-1.99292,1.58032,3.015,3.015,0,0,1-2.09811.40936l2.34574,1.43115q-1.07157.42674-2.16586.90729l-1.09743.49524-1.06764.585a22.22642,22.22642,0,0,1,2.95041-.8385c-.656.95612-1.42856,2.05524-2.29213,3.12323-.8912,1.03522-1.72742,2.20532-2.55038,3.25671a32.11155,32.11155,0,0,0-2.04817,2.90491,12.9498,12.9498,0,0,0-.99532,1.68976l1.11623-.09314c.17308.92242-.58794,1.34668-1.15824,2.09729q.81893-.11581,1.63223-.20428a12.16391,12.16391,0,0,0-.80464,4.64025,17.32021,17.32021,0,0,0,.45914,3.77643,32.5973,32.5973,0,0,1,.81056,8.53083c.75272,1.92553.26367-1.20264,1.10919-1.34369,1.38436.84777.72692,3.49481.25327,4.217,2.10779-1.1698.87089-3.79956,3.15306-2.0813-.41106.87976.06839.49579.66208.23449a1.258,1.258,0,0,1,.87906-.134c.25274.09662.43068.38178.51546.99841q-1.31776.87369-2.61,1.82679c.96813,1.25146,2.32242-.42621,2.78681,1.771-.12032,1.3949-1.21549,1.03-2.15819.73224-.47671-.13757-.87331-.28223-1.11215-.09277-.24539.19629-.2753.67853.05833,1.73517.54976.96978,2.57048,1.37457,4.54273,1.79412a8.62786,8.62786,0,0,1,2.66385.92792,2.96066,2.96066,0,0,1,1.38952,2.06256c1.53931.87238,2.27687-.15112,2.881-.84094.6024-.69348,1.03656-1.10669,1.83583.77484q.09109-1.64565.243-3.20392c1.0796.06458,2.12585-1.10345,2.48657.58564a7.92477,7.92477,0,0,0-.86987,1.93756,2.48451,2.48451,0,0,0,.03862,1.70953c-.231-2.13721.98625-1.99359,2.23046-1.95764,1.25885.05566,2.53275-.00891,2.75885-2.12091l.61853.95752a.64771.64771,0,0,1,.43667-.48053l1.0836,1.03338c-.06857-1.16064-1.16091-2.97729,1.21385-3.58728l1.67113,1.21418c.96158-1.49817,1.93152-1.39276,2.88769-2.36725l-.36381-3.07459a24.02455,24.02455,0,0,1-.00267-2.85681c-.75537.68414-.91616,1.62122-1.91083,1.97943-.74014-.30066-.515-.77453-.32436-1.18762.20031-.418.41172-.76721-.46568-.9068q-.465.542-.91939,1.10889c.3942-.34015.45948-.55939.726-.4292.92032-.0976.148.57886-.55836,1.032-1.68332.52063-1.282-1.18408-.40424-2.00256-.48839-.59265-1.13251-.32446-1.85486.08252-.70178.40784-1.372.99048-1.67172.9433,1.12952-1.00684.885-1.543.41672-2.06055a2.92036,2.92036,0,0,1-.59584-.76233.71076.71076,0,0,1,.10551-.83588q-.80037.524-1.58926,1.10456a2.09512,2.09512,0,0,1-1.22283-.53382.88488.88488,0,0,1-.21226-.37774.96933.96933,0,0,1,.0468-.40082,5.50081,5.50081,0,0,1,.95-1.42163l-1.44225.50378a.87349.87349,0,0,0-.23936-.54712,2.102,2.102,0,0,0-.46361-.445c-.37532-.27961-.84459-.54389-1.15751-.82386-.67406-.54571-.48537-1.20581,2.19459-1.631l-1.01431.108c-.52989-.62512-1.39887-1.8518.23573-2.16186-.61783-.13751-1.39609-.41132-1.4872-.72467,1.06917.05365,1.26012-.1424,1.17293-.51428a4.17753,4.17753,0,0,1-.41228-1.46875c-.7731.444-3.25381-.666-4.10679.00274-.54106-.6781-.58-1.10626-.30763-1.32373a2.119,2.119,0,0,1,1.35224-.24872c.58194.01758,1.232.09278,1.76288.08625.5192-.01209.9457-.09192,1.12227-.40412-.7917-1.41339-1.75487.01068-2.71867-.12811a1.9112,1.9112,0,0,0,.6076-1.82947c-.03239-.38324-.13386-.81384-.20059-1.23718-.057-.41779-.1217-.84955-.15932-1.26764-.21078-1.69244.29857-3.08545,2.84117-1.94714q.2717,1.01724.5945,1.96966c1.52782-.00537,1.80776-.37365,1.37873-.63513-.07683.34918-.51.094-.96355-.15369a1.84125,1.84125,0,0,1,1.04649-1.90417,4.24026,4.24026,0,0,1,2.29029-.18616c.82794.082,1.65945.24146,2.42038.27265a2.15227,2.15227,0,0,0,1.8349-.75507c-.70794-.75806-1.26265-.8233-1.73462-1.52441.34065-.80854,1.33555.12872,2.28015.93774a3.88313,3.88313,0,0,0,1.33421.86353c.41072.1137.74452-.04389.98662-.74341l-.88892-.87366c.35981-.95416,1.54312.34515,1.58654.70331-.93125-2.11658.22052-2.50122,1.47386-3.11261a4.24392,4.24392,0,0,0,1.84805-1.23224,4.94888,4.94888,0,0,0,1.05461-3.09662,9.06881,9.06881,0,0,0,3.31966,2.46466c1.13968.49585,2.13662.59442,2.59471-.15338a2.48442,2.48442,0,0,0-.16133-2.85645,3.20453,3.20453,0,0,1-.939-2.65173,1.336,1.336,0,0,1,.90062.29456c.28357.21863.55495.50372.83794.7619a1.75507,1.75507,0,0,0,2.10142.49725c-.04953,1.24915-.9622,2.54181-1.38,3.706-.43434,1.16021-.40419,2.17572.958,2.9l.4545-1.33618c-.31009.14471-.727.65222-1.13957.33606-.84807-1.49591.53085-1.719.77789-2.39655a28.73669,28.73669,0,0,1,3.18962,1.10211c-.10071,1.35737-.57745,1.80829-1.03738,1.99921-.4621.18781-.95868.20282-1.07507.52612a5.1841,5.1841,0,0,0,.92575-.28308,10.388,10.388,0,0,0,.99432-.41034l1.07867-.51385c.36377-.155.73-.28577,1.10431-.41132a4.50556,4.50556,0,0,1,2.16074-.30688,1.93494,1.93494,0,0,1,1.58093,1.03546l.19522-1.03033c.88138,1.7069,1.8049.69427,2.606.06262.77386-.68445,1.50424-1.092,1.41318,1.373.7239.08069,1.04312-.56305,1.387-1.13122.34491-.56293.71887-1.02521,1.68411-.44171.51679.36517-.41687.94873-.70892,1.16186a1.75086,1.75086,0,0,0,1.00781.848,1.70654,1.70654,0,0,0,.84442-.13269c.49567-.16821.91092-.169.88651,1.57959q.84-1.18752,1.63788-2.418a13.674,13.674,0,0,1-.257,5.99225c-.36835,1.84155-.80966,3.11023.10074,3.76953,2.04507-.8908,1.32382-2.07293,2.48071-3.39727a8.36469,8.36469,0,0,0-.15747,5.66827c.3818,1.68188.65854,3.59845-.60541,4.87158-.888-.53515-2.01388-.3327-3.0758-.31537a3.54753,3.54753,0,0,1-2.78138-.81457c1.449-.00153,1.726-.24872,1.65949-.53516-.04511-.30115-.43158-.62384-.28183-.946-3.09546.54-2.38239,1.28406-1.74564,2.59942.645,1.24421,1.16532,2.7923-1.46875,2.12635q1.00164.50326,1.99436,1.03723c-.45557.29187-2.3472.60144-2.77616-.25867a22.3098,22.3098,0,0,1,.21521,3.17468,17.21443,17.21443,0,0,0,3.69785-.7619c1.11352-.42431,1.72369-1.06042.69311-1.76776,1.24936-.04272,1.52857.36438,1.83353.83386.29834.46088.60938.98365,2.03092,1.02478-2.12183.46576-1.881.87586-1.32679,1.51075.56494.61859,1.43024,1.423.55115,2.405a3.51212,3.51212,0,0,0-3.56345-.8153c-1.08526.25305-2.06924.6618-2.726.25946.19376.94409-1.94281,1.72406-3.20025,1.72723-.46531.49939-.53373,1.73938-.80481,3.051-.06812.32745-.1456.65808-.24021.98022a9.63814,9.63814,0,0,1-.56958,1.25073,7.63869,7.63869,0,0,1-1.80939,2.27118,13.52222,13.52222,0,0,1,2.83-.99212,3.584,3.584,0,0,1,2.72992.52227,3.73221,3.73221,0,0,0-1.1326.58478,2.01025,2.01025,0,0,0-.66311.85462c-.22245.6184.05889,1.27734,1.09661,1.86242,1.70514-.5899,2.235-1.02325,2.23963-1.5152-.00064-.48413-.532-1.00579-1.10446-1.55151a4.48886,4.48886,0,0,1-1.34384-1.70746c-.215-.51593-.01206-.98584,1.05957-1.38354,2.76034.65271,3.87637.12323,5.51217-1.16065.91629,1.52668,1.6901,1.52124,3.13547,2.77613-6.17783-.69519-3.63791,4.93542-8.09671,6.45123a15.02407,15.02407,0,0,1-3.98157-.09479,5.11822,5.11822,0,0,0-4.38125,1.87506q.071-1.655.30233-3.522c-.7785,3.92853-2.27728.31268-5.07216,3.31.95333-.30939,1.88555-.59168,2.813-.84729-.83042,1.87408-1.58628,2.417-3.78948,3.33716,1.435-.4466,2.82787-.83808,4.21343-1.17719a2.86625,2.86625,0,0,1-2.83191,2.57855,5.10931,5.10931,0,0,0,1.84051.37891,2.65761,2.65761,0,0,0-1.80868,1.63684c.75149-.62311.8-1.06116,1.81738-1.06909-1.58435,1.95349-.75247,2.12695.22492,2.092.9761-.02771,2.11071-.22144,1.30651.842,1.00367-.40607,1.65387.088,1.65921.71625a12.54185,12.54185,0,0,0-6.71258,3.12384c-1.83507,1.5252-3.224,3.2185-4.84908,4.266l.08106-.03717a35.69551,35.69551,0,0,0-2.65892,3.88293,1.28629,1.28629,0,0,1,2.12269.12262l-.007-.13751c.60568.67224,5.426-3.15759,3.50925.20526a24.58543,24.58543,0,0,0-1.46889,2.11725c.15968-.35132.83235-.40137,1.15764-.41809a18.71294,18.71294,0,0,0-1.11572,2.18158c2.06358.22351,1.75694,1.66839,1.69705,3.31061-.08477,1.61291-.00234,3.4508,2.06923,3.76995-1.00826-.33441-1.7392-1.54821-.2024-1.93963a1.32381,1.32381,0,0,1,.99282,1.67364l.27185-.41278a20.34392,20.34392,0,0,0,1.41971,2.46692c.50787.8122,1.11151,1.47223,1.68582,2.26746.33389-.70166-.24347-1.38593-.56235-1.968-.32672-.574-.3472-1.13666.94968-1.44208,1.18014-.61114,1.7236-.4093,2.093.0387.35923.47223.579,1.08826,1.02393,1.27075-.96915.973-3.65118,1.24451-2.19244,2.33417.67282-.38446,3.339-.94312,3.09344-1.89752a5.29528,5.29528,0,0,0,1.00876,1.01849c.39352.31586.80072.7182,1.22668,1.02447a5.76475,5.76475,0,0,1,1.99945,2.53034c.9231-.49432.23276-1.01764.01426-1.17914l-.35834.32813c-.88648-.74384,1.67584-2.95111-1.51944-1.949,1.1821-1.803,2.18692-2.03259,3.20477-1.85608l1.59513.3385a3.41368,3.41368,0,0,0,1.73208-.018c-.646-.83429-1.20495-1.66895-1.70312-2.44983,4.23858-2.76587,6.76312-3.43652,9.41732-3.34723,1.316.00958,2.66779.19861,4.0965.206a12.402,12.402,0,0,0,4.28018-.56646c-1.57147,1.84307-2.96036,1.10186-2.9342,4.29754a11.03916,11.03916,0,0,0,3.70648-.18506c.88416-.23083,1.76038-.56378,3.84213-1.01373l-.37384-.029c.82828-1.15558,2.054-1.241,3.23426-1.46466.2756-.0484.6145-.13147.8063-.18842a1.37139,1.37139,0,0,0,.50864-.261,1.67309,1.67309,0,0,0,.46121-1.39283c-.609-.66668-.97611-.10321-1.34564.231a.6566.6566,0,0,1-.69437.18927c-.26407-.1112-.53226-.47278-.82452-1.27118l1.94037-.60449,1.79589-.54626a2.20648,2.20648,0,0,0-2.66772.00762l-.6553.37842-.77033.42639a4.15265,4.15265,0,0,1-1.4379.51734c-1.15106.647,2.50736-.46674,2.7237,1.82941-4.46411,1.61761-6.124-.131-8.01746-2.81482a1.82954,1.82954,0,0,1,.33826-2.3462,4.67936,4.67936,0,0,1,1.53268-.94323,6.39365,6.39365,0,0,0,4.90015,2.06988,6.13517,6.13517,0,0,0,4.62253-1.90411l.90728-3.08411c2.42032,1.64008,3.26392,6.17743,5.89823,4.693l-1.43646-1.47529c.39605-.89337.73846-1.26348,1.04962-1.34814-1.6753-.9306-3.55136-1.94928-5.19278-2.90363.18368-2.15,1.58438-2.14331,3.25455-1.54681,1.66607.56769,3.57284,1.74182,4.90792,1.76056-.26638-.44336-1.17312-.33319-1.72692-1.2229,1.732-1.02222,3.94207-.63239,5.98461.04376,1.02717.35651,2.01456.76831,2.91828,1.09674a8.02446,8.02446,0,0,0,2.4389.68189c.93225-1.89978-2.50171-.73554-2.38891-3.34595a2.9113,2.9113,0,0,0,2.277-.3421c.659-.25,1.21543-.255,1.55783.88959-1.09149-3.27674,3.57612-.64716.21662-3.45325a11.27113,11.27113,0,0,1,4.46817-.65723,14.083,14.083,0,0,1,2.30945.31336,13.64941,13.64941,0,0,1,2.28128.62384c.74984.27356,1.48785.57324,2.21.88665.72159.31855,1.416.73877,2.09842,1.11139,1.37317.71826,2.62613,1.66034,3.8342,2.439a4.31863,4.31863,0,0,1,.6336-2.46655,8.67035,8.67035,0,0,1-3.07937-1.48157,6.02206,6.02206,0,0,1-2.32581-2.94843c.80359-.74536,1.558-.03711,2.11829.73053.56826.76557.95544,1.59534,1.24679,1.15595-.49921-.98328-1.89212-1.14832-1.64291-2.837,1.073-.77374,1.79474-.50329,2.32745.13977.54321.62122.93048,1.49262,1.50913,1.80017l-.87311.67023a5.60172,5.60172,0,0,1,1.47552,2.29694,12.74294,12.74294,0,0,1,.38706,2.03747c.184,1.20044.4689,1.96491,2.37536,2.15284,2.0109-1.382.61512-1.575,1.48636-3.97175.261.65339,1.34607.63141,2.3844.82221,1.04727.16119,1.97876.64209,1.80219,2.07684l-1.11808-.46161c-.37716-.14294-.76855-.25512-1.15094-.38348.64048.63544,1.28312,1.16644,1.85032,1.69635a5.21461,5.21461,0,0,1,1.3562,1.67627c.16241-.53394.34823-1.0686.13687-1.42542.80719,1.28565,2.30472,2.07709,1.96939,3.83686l1.77972-2.10663c-1.34478.59881-3.37054-.47235-3.031-1.93976,1.39819-2.02734,2.77139.60529,3.77038,1.00214a7.5869,7.5869,0,0,1-1.8638-2.42633c-.41275-.79224-.69778-1.53083-.99472-2.22126a3.50583,3.50583,0,0,0-3.68612-2.51257l.32858,1.05212a2.94791,2.94791,0,0,1-2.08362-.16668,7.86327,7.86327,0,0,1-1.64178-1.21631c-1.0431-.943-2.01658-2.20551-3.19678-2.45307a1.69928,1.69928,0,0,0,1.0314-1.81219,18.81958,18.81958,0,0,1-4.2128.00214c-1.36865-.05274-2.71069-.25483-4.07889-.4264-1.37021-.09552-2.76785-.28155-4.19763-.25988a17.69519,17.69519,0,0,0-4.373.53918q-.94785-1.297-1.9784-2.58661l.03107,2.04511c-2.83865,1.15051-.88718-2.81507-2.80448-2.416.73942-.092.64139.26032.84284.75165-3.76242-1.9093-1.68842,2.08063-3.63861,1.7403,1.207,1.97082,3.70532.30523,3.22217,3.275a7.25808,7.25808,0,0,0-2.80286-.84259c-.97528-.1001-1.96109-.20123-2.86114-.29364a4.42453,4.42453,0,0,1-4.2063-3.11749,25.0572,25.0572,0,0,1-9.37339,2.90826,83.6135,83.6135,0,0,0-8.72931,1.41907c-.305,1.04089.62479.48443.63416,1.21588a2.04031,2.04031,0,0,0-1.03055-.3949,1.93975,1.93975,0,0,0-.49954.02686,1.39012,1.39012,0,0,0-1.16162.9834c-.49295.76489-.87073,1.52136-1.05628.22967a34.47462,34.47462,0,0,0-.42315,3.645,3.51376,3.51376,0,0,0-1.987-1.59662,6.5116,6.5116,0,0,0,.42859.60346l-.09876.40448a6.48661,6.48661,0,0,1-.60675-.853l.05731-.18891c-.76394-.12457-1.63009.11005-2.34234-.00555-.69095-.12738-1.21518-.63892-.63471-2.3493a11.51751,11.51751,0,0,1-1.61465,2.92871,9.81892,9.81892,0,0,0-1.50638,2.327c2.26163-5.12945,1.596-5.19769-.109-5.002a35.08565,35.08565,0,0,0-2.84219,2.8031,23.18976,23.18976,0,0,1,1.50863-2.34937l-1.33627,1.29029c-1.2464.18359-.54867-1.45062.52091-2.80554,1.0364-1.38526,2.18258-2.30817.65811-1.87262a23.5719,23.5719,0,0,1-4.51566,2.91424c.19559-1.24042.83493-2.47149,3.25589-4.11883-.40848.1745-.86362.35388-1.33352.50842-.37024-.13892,1.34487-.9566,2.20224-1.376l-2.93732.719a3.70075,3.70075,0,0,0,1.34994-1.16895,3.91165,3.91165,0,0,1,2.01441-1.17346c-1.37055.0238-.392-.49194.71109-.89685,1.12173-.43158,2.31531-.68237,1.992-1.03729.34387-.0644-.3674-.05811-1.11929-.07471-.75092-.018-1.5289-.07843-1.16312-.49945,2.41391.36664,2.56561.19519,2.77426.01642.20462-.17469.45636-.34369,2.77686.45678a7.98566,7.98566,0,0,1-1.37924-1.05249q1.11868.45649,2.20575.96058c-1.94892-1.07966-1.25-1.244-.361-1.003.19419.10566.56311-.02417.86414-.06921a4.37361,4.37361,0,0,0,.9035-.27753,1.6719,1.6719,0,0,0,1.05631-1.47515c-.51557-.13788-.81326.0324-1.02841-.26838.89447-.49224,2.24981-2.22882,2.44751-.15973.7818-1.26123,4.36535-5.675.97662-4.65228,1.28625.48578-.8035,1.92645-1.69443,2.47327-1.70364-1.10883.13056-2.74933-1.56268-4.30628a5.3818,5.3818,0,0,0,1.08557-.11364l-.968-.87464a7.83275,7.83275,0,0,0,3.25965-3.35089,6.76173,6.76173,0,0,1,3.36883-3.1394c-.54837-.34571-.82348-1.06641-.33539-2.14112l2.45743.68091.49832-1.91314c.154-.65357.29148-1.33033.42929-1.99555q-2.01946.56223-4.01785.96619c.11649-2.06537,1.2814-3.62519,2.49918-5.38074a25.05968,25.05968,0,0,0,1.72558-2.74054,8.40366,8.40366,0,0,0,.93811-3.1076c-2.15921-.42847-1.872-2.41016-1.95337-4.917a11.77206,11.77206,0,0,0-.58679-3.7799,4.14736,4.14736,0,0,0-2.46255-2.5802,33.45585,33.45585,0,0,1,.12488,3.4226A12.51841,12.51841,0,0,0,203.911,172.145a18.80506,18.80506,0,0,1-3.72763-5.101,16.11594,16.11594,0,0,1,2.43842,1.77771c.643.53045,1.16424,1.04705,1.77514,1.61413.64289.57508,1.34741,1.20526,2.27945,2.039.493.41864,1.0315.92688,1.65854,1.53455.63919.59631,1.3436,1.30768,2.129,2.19-2.37375-3.775-3.75061-7.04638-5.43286-10.03271-1.682-2.94336-3.64762-5.48743-6.94535-6.58936-.23565,1.07068.44858,2.576-1.344,2.386.22171-1.22742-1.05447-2.16663-2.06366-2.93176-.99643-.7948-1.83673-1.30451-.72107-2.14783-2.2724-.35547-3.72424,1.5672-4.90628,1.30359q-1.0746-1.38712-2.28024-2.79175c-.79975-.961-1.6655-1.75556-2.56067-2.64142l.03143.54657c-.79169.12457-1.54217.16907-2.26346.23474a17.89787,17.89787,0,0,1-2.08548.0882c-.67117-.00519-1.32315-.07721-1.95883-.13434a17.70889,17.70889,0,0,1-1.87332-.23914c-.61545-.10907-1.2254-.25732-1.83127-.41168-.60232-.1275-1.20324-.27887-1.80639-.44739s-1.20853-.35418-1.81881-.55l-1.82861-.51453a37.69484,37.69484,0,0,0-3.75645-.951,21.83127,21.83127,0,0,0-3.87012-.5011,13.97618,13.97618,0,0,0-7.65186,1.68115l.57885,1.24341q-1.5351-.57587-3.15853-1.1037c2.43518.62012-.32837,1.87659-.0291,3.09107-1.20062-.0603-2.43107-.11292-3.67932-.11957q-1.85586.05694-3.78535.18848C143.844,155.97931,145.45534,158.19672,146.667,157.02075Zm60.724,42.4491-.643,1.42438a.83855.83855,0,0,1-.41846.87793c.14508-.28162.28381-.57587.41846-.87793C206.67352,200.02509,205.81873,199.18762,207.391,199.46985Zm14.34976,24.06732c.88056.98041-.71817.57117-1.05459.86127.65518-.09247,1.314-.17761,1.98813-.23975C222.76529,223.42938,222.06924,223.62665,221.74075,223.53717ZM191.589,194.87274q-.74551-.515-1.49982-.99689c.48859-.09887.98612-.20861,1.47693-.32928Zm-.73117-13.10992a12.533,12.533,0,0,1-.38809,1.551l-.3537.03455a14.58524,14.58524,0,0,0,.39557-1.51636Zm-5.95148-22.64514a2.41154,2.41154,0,0,1,.25092.48468,1.533,1.533,0,0,1-.25092-.48468c-.53921-.91645-1.28067-.65-1.86652-.61615-.59823.04419-1.05273-.08985-1.26843-1.7273,1.19284-.93512,1.90238-.66321,2.32208-.01416A10.77964,10.77964,0,0,1,184.90631,159.11768Zm21.215,31.952c-.3899.7522-.60886,1.0827-.49311,1.65888,1.05194-.23285,2.72644-1.71949,2.94989-.49378-1.23165.75019-1.97934,3.287-3.66232,2.95313,1.10086-.90021.54849-1.97821.10376-2.75818C204.5878,191.64545,204.34064,191.1618,206.12128,191.0697Zm-15.12894,30.6482-.128-.13227c-.7092.25971-1.44119.548-2.18875.86951C189.46243,222.183,190.23688,221.93878,190.99234,221.7179Zm-4.34259,3.59552c-3.56476,1.48449-3.66165,2.617-4.7471,3.87731a29.78748,29.78748,0,0,0,4.50329-2.23114c1.319-.78686,2.24775-1.4284,2.26838-1.73645C191.66211,223.51672,184.3848,226.37891,186.64975,225.31342Zm12.27136-50.5578c-.32828.42224-.65658.83087-1.00528,1.24615-.12994-.11334-.27267-.21234-.411-.31439.08582.73.10672,1.48651.136,2.19647a2.28564,2.28564,0,0,1-1.38068-1.22711,3.24856,3.24856,0,0,1-.17215-1.67822,14.14082,14.14082,0,0,0,.29837-3.28656c.33454.5061.267,1.98693.40723,2.92932C196.9212,175.58539,197.35287,176.07263,198.92111,174.75562Zm-13.34668,59.13177a24.96486,24.96486,0,0,0-1.43515,3.36761,7.79923,7.79923,0,0,1-2.0274,3.22266,17.48278,17.48278,0,0,0,3.32586-4.24481c.51178-.99652.55805-1.55084.35541-1.63532C185.3168,234.72131,185.37759,234.43628,185.57443,233.88739Zm-8.06851,6.49615a6.73065,6.73065,0,0,1,1.814-3.62548,61.95258,61.95258,0,0,1,4.37362-4.50141c1.29688-.07007.5882.87177-.72342,2.16059a34.50759,34.50759,0,0,1-4.52917,3.66076c-1.008,2.32648,1.65439-.03845,2.6994-.16913Q179.35049,239.16068,177.50592,240.38354Zm11.12924-10.35729c-.299.045-.61282.09368-.89853.11206-1.11752.45105-3.00186,1.463-4.02127,1.836-.99011.37647-1.104.05158,1.54853-1.92657a9.96031,9.96031,0,0,0,2.47274.09058C188.24814,229.93134,188.60944,229.839,188.63516,230.02625ZM196.7,231.40393c.06793-.3869.15195-.77527.25092-1.171.2941.046.0765.58185-.25092,1.171q-.09036.49365-.1474.9798C194.89481,233.93134,196.05447,232.54413,196.7,231.40393Zm-7.62353.82465a4.95863,4.95863,0,0,1-.75858-.92548C186.32361,232.98059,188.20682,232.54675,189.07645,232.22858Zm5.67654,2.49865c-.75534.38-2.87158,1.1388-2.47778.84955C193.75818,233.601,194.85913,233.74774,194.753,234.72723Zm48.6532-8.06-1.645-.17817q.4194-1.01825.87094-2.03527C242.90244,225.19263,243.16058,225.91815,243.40619,226.66718ZM224.85147,230.419l.12332-1.089.93906-.08808Zm-16.09555,5.6195a3.33067,3.33067,0,0,0-.627-1.33557,1.33278,1.33278,0,0,1-.78043-.627c.18008-.0777.48648.21283.78043.627a1.671,1.671,0,0,0,1.87207-1.162c-.61588-.84509-1.53232-.2876-2.15552-.771.60513-2.81934,6.45379,2.71423,3.08374-3.43293.92267.53632,3.70022,1.46985,3.36478,2.87525-1.83631.23187-4.74814,2.14148-5.538,3.82629.05859.3725.02835.69373-.238.8573A2.015,2.015,0,0,1,208.75592,236.03845Zm-21.95923,8.107c-.54257-.12134-.68973-.29242-.67016-.49463-.1586-.528.23715-1.58832,1.27243-2.82312a1.637,1.637,0,0,1-.3928,1.51459,6.18911,6.18911,0,0,0-.87963,1.30853A.86616.86616,0,0,0,186.79669,244.14545Zm-4.38916.43536,1.27506,1.26752q-.0553-.72217-.08115-1.40344a25.76084,25.76084,0,0,0,1.48532,2.626c-1.40933.64655-2.39285.49451-2.82312-.16272A2.09575,2.09575,0,0,1,182.40753,244.58081Zm-1.69671,1.022.74227-1.44537q-.27507.74378-.53283,1.51782l-.20944-.07245-.16486.33435c-.498-.248-.99649-.46673-1.48181-.71765l-1.41391-.87164,1.50293.70795C179.66351,245.26288,180.18951,245.41412,180.71082,245.60284Zm3.42541-28.79827c-5.23044-2.48084-6.38693,2.08465-10.07135,2.75659,2.10974.29687,4.84741,1.42743,6.82141-1.55634.20365,1.3858-1.11569,1.68506-1.9862,1.97931-.85453.2544-1.23523.49463,1.12289,1.162a4.30525,4.30525,0,0,1,1.74637-1.74359,16.87168,16.87168,0,0,1,1.66058-.91828l-.65613,1.29431c2.34635-.29132,2.10346-.7005,1.625-1.28887C183.9046,217.9234,183.1889,217.15753,184.13623,216.80457Zm8.45523-15.70142c.33753-.65735.68372-1.31311.99249-1.98731-.39953.59491-.82952,1.16883-1.25314,1.73847Zm-26.61609-32.96307a2.72971,2.72971,0,0,1-1.05919,2.17492c-.63725.571-1.39132.66529-1.92328-.53546.62418-.28314,1.30576-.45911,1.85947-.67712C165.40988,168.91876,165.84166,168.66254,165.97537,168.14008Zm-20.53106,8.32751c.82722-.27539,1.709-.45,2.52226-.65222.77543,1.34772.39929,1.62036-.26811,1.71893-.68113.0752-1.58652.07813-1.78226.63983C144.584,177.35632,145.8858,177.478,145.44431,176.46759ZM138.054,189.6347l-.60314.67646q1.56718-.20142,3.11713-.2912Zm4.11874-.15783c1.24016.61566,2.20612-.36658,2.09593-.662Q143.24581,189.08427,142.17273,189.47687Zm3.60142,10.39215c-.15365-.22089-.27153-.44489-.41241-.66937q-1.173.76821-2.321,1.61743Zm-3.38491-.20136a19.00566,19.00566,0,0,0,2.60133-1.18957c.65619-.4336.75858-.88666.00929-1.55316-2.01033.35205-1.88392.89892-4.37079.68145-.35292.78357.59642,1.13269.89063,1.39551.15214-.51507-.76322-.84479.52789-1.27057a1.17726,1.17726,0,0,1,.34165,1.93634,2.9692,2.9692,0,0,0-1.38878.94086A3.21322,3.21322,0,0,0,142.38924,199.66766Zm-3.20488-6.99835a2.14245,2.14245,0,0,0-.83449-.68l.51572-.101c.86965.34368.6602.56274.31877.781a8.21977,8.21977,0,0,1,.68579,1.01172c1.70924.13818,2.9416-1.12518,3.90155-1.33661-.2518.2533-.80422.49378-1.1689.78522-.37474.28644-.54485.63006.0307.99383.49458-.12713.85142-.05.78084-.51385l.47207.98834c-1.14528.68176-1.92032.835-2.52423.58466a3.84984,3.84984,0,0,1-1.492-1.50159,2.64769,2.64769,0,0,1-1.19667-.37946C138.43335,193.08063,138.86441,192.87439,139.18436,192.66931Zm-1.48445,11.53375.13761-.92187c.463-.61633,1.20406-.62409,1.622-.93292C139.66257,203.192,139.07925,204.77051,137.69991,204.20306Zm20.30593-38.05737c-.35174.656,1.35335,2.20569,2.33406,1.46423q-.00449,1.31315.03174,2.61615c-.446-1.68634-2.56675-.79364-2.85727-.8742C156.38058,167.22931,157.542,167.91315,158.00584,166.14569Zm38.95787,28.102c-1.61056-.12482-2.127.60883-2.39157,1.44568-.27966.82928-.30883,1.78613-.82708,1.94928a6.70043,6.70043,0,0,1,.36377-2.97217C194.513,193.83643,195.32056,193.34564,196.96371,194.24768Zm-.40634,5.67682c-.36557.79626-.17837,1.14465-1.63617.4364-.775.11542-.26229,1.06555-1.03656,1.17114-.64248-2.05243,1.66449-.93713,2.67273-1.60754a4.06216,4.06216,0,0,1,.4191-.71582A.86388.86388,0,0,1,196.55737,199.9245Zm-9.43313-31.71692q.12053-1.29941.15777-2.64764c-.6297-.28186-1.24029-.598-1.87994-.83612C186.06079,165.87878,186.61734,167.08124,187.12424,168.20758Zm-19.34708-9.38843c.09825.68311-.43448,1.01606-1.03912,1.14563a1.74372,1.74372,0,0,1-1.57106-.27563c.30554,1.77814,1.75749,1.36853,2.96014,1.592a1.0712,1.0712,0,0,0,.782.22851,2.32848,2.32848,0,0,0-.782-.22851c-.45462-.41437-.16539-1.32984-.17384-1.95441l.6174-.52478-1.7672-.46435Zm-35.22249,16.31763c.25913,2.06061-.19977,1.93457-1.15849,2.652a1.48646,1.48646,0,0,1,.01118-1.34259A2.88728,2.88728,0,0,1,132.55467,175.13678ZM179.95032,158.747c-1.35068.1134-1.20029.84839-.99045,1.59387.2175.74866.49084,1.51032-.36133,1.746.40738.04364.82.06958,1.22778.13233-2.399,1.32178-.84439-2.3078-2.4006-2.14313l1.02649-.111c1.18225-1.46668-1.20807-1.51-1.13968-2.86542C178.67157,156.67834,181.06,158.66577,179.95032,158.747Zm-49.72948,17.99316c.09422,1.64447-.55626,1.90869-1.41171,2.002-.83776.09253-1.83808-.0055-2.33563.78143-.26313-1.42786.33793-1.75623,1.17495-1.87347A3.8257,3.8257,0,0,0,130.22084,176.74017Zm33.65318-24.4284.13884-.348c-.76519-.27063-1.54307-.53223-2.32048-.73292l-.12745.3664Q162.72728,151.89651,163.874,152.31177Z"/>
    <path class="cls-5" d="M145.038,187.00964c.08147.39167-.03163.56971-.22643.68647A1.08838,1.08838,0,0,1,145.038,187.00964Z"/>
    <path class="cls-5" d="M183.64709,199.03821a1.10253,1.10253,0,0,1,.59122.72638A1.51169,1.51169,0,0,1,183.64709,199.03821Z"/>
    <path class="cls-5" d="M181.10956,201.38715c-.03177.03-.043.07592-.0715.10467-.06049-.00152-.1294.00714-.19022.011Z"/>
    <path class="cls-5" d="M261.06448,238.63373c-.41067,2.25146-.793-.008-1.335-.28363C260.25272,238.61462,261.19455,237.37347,261.06448,238.63373Z"/>
    <path class="cls-5" d="M258.25812,233.24286a2.6873,2.6873,0,0,0,.92874,1.77746C258.783,234.92,258.48245,234.54559,258.25812,233.24286Z"/>
    <path class="cls-5" d="M261.55484,235.85052a3.7342,3.7342,0,0,1-2.368-.8302C259.805,235.17371,260.648,234.71643,261.55484,235.85052Z"/>
    <path class="cls-5" d="M245.02765,230.516a1.53447,1.53447,0,0,0,1.33484.9419,2.22749,2.22749,0,0,0,.85269-.04859c-.84348.1684-1.2355.44611-1.35764.75733a1.00915,1.00915,0,0,0,.28034.95416c.49667.69409,1.36413,1.41675,1.39865,1.93475a2.7652,2.7652,0,0,1-1.55051-1.78021C245.69339,232.515,245.51578,231.56958,245.02765,230.516Z"/>
    <path class="cls-5" d="M240.66953,229.62646a1.56261,1.56261,0,0,0,.93167-.24725A.8119.8119,0,0,1,240.66953,229.62646Z"/>
    <path class="cls-5" d="M239.46069,230.94574c-1.13253-.25751-1.61932-1.75824-2.24707-2.89856,1.40244-1.14813,2.4346,1.15753,3.45591,1.57928C239.84726,229.62378,239.04333,229.52948,239.46069,230.94574Z"/>
    <path class="cls-5" d="M206.06879,247.71539c.40634.027,1.324-.32605,1.51886.50489l-2.88,1.10412C203.52286,249.233,205.55225,248.09619,206.06879,247.71539Z"/>
    <path class="cls-5" d="M196.79724,246.47284c-1.81222.31262-1.43747,2.46991-2.284,2.15515l.95-3.18231C195.87888,245.7865,196.323,246.13184,196.79724,246.47284Z"/>
    <path class="cls-5" d="M200.58112,229.75256l.15463.25458a1.24084,1.24084,0,0,0-.21961-.034Z"/>
    <path class="cls-5" d="M186.51044,251.11444q-.17166,1.60785-.22657,3.268C184.91281,253.57043,186.30365,250.96832,186.51044,251.11444Z"/>
    <path class="cls-5" d="M177.96292,252.69116c.14572.36725.27927.7909.45093,1.134-.4924-.23529-.948-.553-1.41724-.81628a14.28625,14.28625,0,0,1-1.369-.84839C176.38449,252.40784,177.1864,252.51013,177.96292,252.69116Z"/>
    <path class="cls-5" d="M171.04059,248.495l-.78668.31512a22.49719,22.49719,0,0,1-1.29125-1.907c.33212.28924.67349.56475,1.01444.84039Z"/>
    <path class="cls-5" d="M185.33109,178.56909c.84732-1.05585,1.57293-.93463,2.17153-.4917.29114.22333.56553.51026.82288.753a1.46176,1.46176,0,0,0,.73053.50251c-1.53494.82354-1.54745.27783-1.73627-.33014a1.133,1.133,0,0,0-.45752-.7768C186.56866,178.08936,186.10245,178.1308,185.33109,178.56909Z"/>
    <path class="cls-5" d="M144.81964,184.69305c.53093-.55963,1.19685-1.03338,1.74809-1.53643C146.49728,185.20636,146.29291,183.50922,144.81964,184.69305Z"/>
  </g>
  <text class="cls-6" transform="translate(478.5752 230.7373)">Aa</text>
  <g>
    <g>
      <g>
        <circle class="cls-7" cx="1151.77851" cy="214.48537" r="11.23537"/>
        <line class="cls-7" x1="1168.54314" y1="231.25" x2="1159.72312" y2="222.42997"/>
      </g>
      <rect class="cls-7" x="1129.54314" y="192.25" width="50" height="50"/>
    </g>
    <path class="cls-7" d="M1237,190h-21.15385c-2.65521,0-4.80769,2.98477-4.80769,6.66667v16.66666c0,3.6819-2.15248,6.66667-4.80769,6.66667H1187"/>
    <g>
      <rect class="cls-7" x="1244.45686" y="167.75" width="50" height="50"/>
      <line class="cls-7" x1="1244.45686" y1="167.75" x2="1294.45686" y2="217.75"/>
      <line class="cls-7" x1="1294.45686" y1="167.75" x2="1244.45686" y2="217.75"/>
    </g>
  </g>
  <g class="cls-8">
    <circle class="cls-9" cx="540.125" cy="205" r="200"/>
  </g>
  <g class="cls-10">
    <circle class="cls-9" cx="874.75" cy="205" r="200"/>
  </g>
  <g class="cls-11">
    <circle class="cls-9" cx="1209.375" cy="205" r="200"/>
  </g>
  <g class="cls-12">
    <circle class="cls-9" cx="1544" cy="205" r="200"/>
  </g>
  <g class="cls-13">
    <circle class="cls-9" cx="205" cy="205" r="200"/>
  </g>
</svg>
