<svg id="Layer_1" data-name="Layer 1" xmlns="http://www.w3.org/2000/svg" xmlns:xlink="http://www.w3.org/1999/xlink" width="1750" height="410" viewBox="0 0 1750 410">
  <defs>
    <style>
      .cls-1, .cls-16, .cls-17 {
        fill: none;
      }

      .cls-2 {
        font-size: 42px;
        font-family: SFProDisplay-Medium, SF Pro Display;
        font-weight: 500;
      }

      .cls-2, .cls-5 {
        letter-spacing: 0.012em;
      }

      .cls-3 {
        letter-spacing: -0.00997em;
      }

      .cls-4 {
        letter-spacing: -0.04025em;
      }

      .cls-5 {
        font-size: 98px;
        font-family: Baskerville;
      }

      .cls-6 {
        clip-path: url(#clip-path);
      }

      .cls-7 {
        fill: url(#linear-gradient);
      }

      .cls-8 {
        clip-path: url(#clip-path-2);
      }

      .cls-9 {
        fill: url(#linear-gradient-2);
      }

      .cls-10 {
        clip-path: url(#clip-path-3);
      }

      .cls-11 {
        fill: url(#linear-gradient-3);
      }

      .cls-12 {
        clip-path: url(#clip-path-4);
      }

      .cls-13 {
        fill: url(#linear-gradient-4);
      }

      .cls-14 {
        clip-path: url(#clip-path-5);
      }

      .cls-15 {
        fill: url(#linear-gradient-5);
      }

      .cls-16, .cls-17 {
        stroke: #000;
        stroke-linejoin: round;
        stroke-width: 5px;
      }

      .cls-16 {
        stroke-linecap: square;
      }

      .cls-17 {
        stroke-linecap: round;
      }
    </style>
    <clipPath id="clip-path">
      <path class="cls-1" d="M372.875,55.05652q4.18827-4.67386,8.65088-9.15515A225.06992,225.06992,0,0,1,738.27972,312.69318,174.67212,174.67212,0,0,1,708.375,254.866,174.45235,174.45235,0,0,0,715.625,205c0-96.49512-78.50488-175-175-175A174.79024,174.79024,0,0,0,402.77979,97.307,225.02216,225.02216,0,0,0,372.875,55.05652ZM678.47021,312.69305A174.79024,174.79024,0,0,1,540.625,380c-96.49512,0-175-78.50488-175-175a174.45272,174.45272,0,0,1,7.25006-49.866,174.67226,174.67226,0,0,0-29.90478-57.82715A225.04835,225.04835,0,0,0,699.72412,364.09863q4.47244-4.47234,8.65088-9.15515A225.02216,225.02216,0,0,1,678.47021,312.69305Z"/>
    </clipPath>
    <linearGradient id="linear-gradient" x1="66.51204" y1="176.38121" x2="1658.96487" y2="272.60762" gradientUnits="userSpaceOnUse">
      <stop offset="0" stop-color="#d4145a"/>
      <stop offset="1" stop-color="#0071bc"/>
    </linearGradient>
    <clipPath id="clip-path-2">
      <path class="cls-1" d="M707.5,55.05652q4.18827-4.67386,8.65088-9.15515a225.06992,225.06992,0,0,1,356.75384,266.79181A174.67212,174.67212,0,0,1,1043,254.866,174.45235,174.45235,0,0,0,1050.25,205c0-96.49512-78.50488-175-175-175A174.79024,174.79024,0,0,0,737.40479,97.307,225.02216,225.02216,0,0,0,707.5,55.05652Zm305.59521,257.63653A174.79024,174.79024,0,0,1,875.25,380c-96.49512,0-175-78.50488-175-175a174.45272,174.45272,0,0,1,7.25006-49.866,174.67226,174.67226,0,0,0-29.90478-57.82715,225.04835,225.04835,0,0,0,356.75384,266.79181q4.47245-4.47234,8.65088-9.15515A225.02216,225.02216,0,0,1,1013.09521,312.69305Z"/>
    </clipPath>
    <linearGradient id="linear-gradient-2" x1="67.72943" y1="156.23454" x2="1660.18226" y2="252.46096" xlink:href="#linear-gradient"/>
    <clipPath id="clip-path-3">
      <path class="cls-1" d="M1042.125,55.05652q4.18827-4.67386,8.65088-9.15515a225.06992,225.06992,0,0,1,356.75384,266.79181A174.67212,174.67212,0,0,1,1377.625,254.866a174.45235,174.45235,0,0,0,7.25-49.866c0-96.49512-78.50488-175-175-175a174.79024,174.79024,0,0,0-137.84521,67.307A225.02216,225.02216,0,0,0,1042.125,55.05652Zm305.59521,257.63653A174.79024,174.79024,0,0,1,1209.875,380c-96.49512,0-175-78.50488-175-175a174.45272,174.45272,0,0,1,7.25006-49.866,174.67226,174.67226,0,0,0-29.90478-57.82715,225.04835,225.04835,0,0,0,356.75384,266.79181q4.47245-4.47234,8.65088-9.15515A225.02216,225.02216,0,0,1,1347.72021,312.69305Z"/>
    </clipPath>
    <linearGradient id="linear-gradient-3" x1="68.94683" y1="136.08787" x2="1661.39966" y2="232.31429" xlink:href="#linear-gradient"/>
    <clipPath id="clip-path-4">
      <path class="cls-1" d="M1376.75,55.05652q4.18827-4.67386,8.65088-9.15515a225.06992,225.06992,0,0,1,356.75384,266.79181A174.67212,174.67212,0,0,1,1712.25,254.866,174.45235,174.45235,0,0,0,1719.5,205c0-96.49512-78.50488-175-175-175a174.79024,174.79024,0,0,0-137.84521,67.307A225.02216,225.02216,0,0,0,1376.75,55.05652Zm305.59521,257.63653A174.79024,174.79024,0,0,1,1544.5,380c-96.49512,0-175-78.50488-175-175a174.45272,174.45272,0,0,1,7.25006-49.866,174.67226,174.67226,0,0,0-29.90478-57.82715,225.04835,225.04835,0,0,0,356.75384,266.79181q4.47245-4.47234,8.65088-9.15515A225.02216,225.02216,0,0,1,1682.34521,312.69305Z"/>
    </clipPath>
    <linearGradient id="linear-gradient-4" x1="70.16422" y1="115.9412" x2="1662.61705" y2="212.16762" xlink:href="#linear-gradient"/>
    <clipPath id="clip-path-5">
      <path class="cls-1" d="M343.84521,312.69312A174.79021,174.79021,0,0,1,206,380c-96.49512,0-175-78.50488-175-175S109.50488,30,206,30s175,78.50488,175,175a174.451,174.451,0,0,1-7.25,49.866,174.671,174.671,0,0,0,29.90472,57.82715A225.04834,225.04834,0,0,0,46.90088,45.90137a224.99927,224.99927,0,0,0,0,318.19726,224.99927,224.99927,0,0,0,318.19824,0q4.47244-4.47234,8.65088-9.15515A225.022,225.022,0,0,1,343.84521,312.69312Z"/>
    </clipPath>
    <linearGradient id="linear-gradient-5" x1="65.29283" y1="196.55798" x2="1657.74566" y2="292.78439" xlink:href="#linear-gradient"/>
  </defs>
  <title>process</title>
  <text class="cls-2" transform="translate(1465.46533 210.85986)">and mo<tspan class="cls-3" x="137.61719" y="0">r</tspan><tspan x="150.97949" y="0">e..</tspan><tspan class="cls-4" x="196.72656" y="0">.</tspan></text>
  <text class="cls-5" transform="translate(482.62793 229.02148)">Aa</text>
  <g class="cls-6">
    <path class="cls-7" d="M540.125,410c-113.0376,0-205-91.96289-205-205s91.9624-205,205-205,205,91.96289,205,205S653.1626,410,540.125,410Zm0-400c-107.52344,0-195,87.47656-195,195s87.47656,195,195,195,195-87.47656,195-195S647.64844,10,540.125,10Z"/>
  </g>
  <g class="cls-8">
    <path class="cls-9" d="M874.75,410c-113.0376,0-205-91.96289-205-205S761.7124,0,874.75,0c113.03711,0,205,91.96289,205,205S987.78711,410,874.75,410Zm0-400c-107.52344,0-195,87.47656-195,195s87.47656,195,195,195,195-87.47656,195-195S982.27344,10,874.75,10Z"/>
  </g>
  <g class="cls-10">
    <path class="cls-11" d="M1209.375,410c-113.03711,0-205-91.96289-205-205s91.96289-205,205-205,205,91.96289,205,205S1322.41211,410,1209.375,410Zm0-400c-107.52344,0-195,87.47656-195,195s87.47656,195,195,195,195-87.47656,195-195S1316.89844,10,1209.375,10Z"/>
  </g>
  <g class="cls-12">
    <path class="cls-13" d="M1544,410c-113.03711,0-205-91.96289-205-205S1430.96289,0,1544,0s205,91.96289,205,205S1657.03711,410,1544,410Zm0-400c-107.52344,0-195,87.47656-195,195s87.47656,195,195,195,195-87.47656,195-195S1651.52344,10,1544,10Z"/>
  </g>
  <g class="cls-14">
    <path class="cls-15" d="M205,410C91.9624,410,0,318.03711,0,205S91.9624,0,205,0,410,91.96289,410,205,318.0376,410,205,410Zm0-400C97.47656,10,10,97.47656,10,205S97.47656,400,205,400s195-87.47656,195-195S312.52344,10,205,10Z"/>
  </g>
  <rect class="cls-1" x="584.59403" y="-830.50672" width="4292.00983" height="2779.30444"/>
  <g>
    <path class="cls-16" d="M200.78748,164a41,41,0,1,0,0,82,6.82409,6.82409,0,0,0,6.83333-6.83333,6.68032,6.68032,0,0,0-1.77667-4.57834,6.84279,6.84279,0,0,1,5.125-11.36618h8.04049a22.7862,22.7862,0,0,0,22.77785-22.77784C241.78748,180.30882,223.42866,164,200.78748,164Z"/>
    <circle cx="177.33826" cy="197.57685" r="7.45455"/>
    <circle cx="197.06021" cy="182.66776" r="9.31818"/>
    <circle cx="220.70856" cy="199.44049" r="11.18182"/>
  </g>
  <g>
    <path class="cls-17" d="M1157.53886,227.94431h31.70623a9.17773,9.17773,0,0,0,9.17772-9.17773V191.23342a9.17773,9.17773,0,0,1,9.17772-9.17773H1241.668"/>
    <polyline class="cls-17" points="1168.92 215.889 1156.865 227.944 1168.92 240"/>
    <polyline class="cls-17" points="1230.286 170 1242.342 182.056 1230.286 194.111"/>
  </g>
  <g>
    <polyline class="cls-17" points="849.667 219.496 831.218 205 849.667 190.504"/>
    <polyline class="cls-17" points="900.833 219.496 919.282 205 900.833 190.504"/>
    <line class="cls-17" x1="860.24999" y1="230.98076" x2="890.25001" y2="179.01924"/>
  </g>
</svg>
