<?xml version="1.0" encoding="utf-8"?>
<!-- Generator: Adobe Illustrator 24.0.3, SVG Export Plug-In . SVG Version: 6.00 Build 0)  -->
<svg version="1.1" id="Layer_1" xmlns="http://www.w3.org/2000/svg" xmlns:xlink="http://www.w3.org/1999/xlink" x="0px" y="0px"
	 viewBox="0 0 1750 410" style="enable-background:new 0 0 1750 410;" xml:space="preserve">
<style type="text/css">
	.st0{clip-path:url(#SVGID_2_);fill:none;stroke:#CCCCCC;stroke-width:8;stroke-miterlimit:10;}
	.st1{clip-path:url(#SVGID_4_);fill:none;stroke:#CCCCCC;stroke-width:8;stroke-miterlimit:10;}
	.st2{clip-path:url(#SVGID_6_);fill:none;stroke:#CCCCCC;stroke-width:8;stroke-miterlimit:10;}
	.st3{fill:none;stroke:#000000;stroke-width:4;stroke-linecap:round;stroke-linejoin:round;stroke-miterlimit:10;}
	.st4{clip-path:url(#SVGID_8_);fill:none;stroke:#CCCCCC;stroke-width:8;stroke-miterlimit:10;}
	.st5{clip-path:url(#SVGID_10_);fill:none;stroke:#CCCCCC;stroke-width:8;stroke-miterlimit:10;}
	.st6{font-family:'SFProDisplay-Medium';}
	.st7{font-size:42px;}
	.st8{fill:#202020;}
	.st9{font-family:'Baskerville';}
	.st10{font-size:105px;}
	.st11{letter-spacing:1;}
	.st12{clip-path:url(#SVGID_12_);}
	.st13{fill:url(#SVGID_13_);}
	.st14{clip-path:url(#SVGID_15_);}
	.st15{fill:url(#SVGID_16_);}
	.st16{clip-path:url(#SVGID_18_);}
	.st17{fill:url(#SVGID_19_);}
	.st18{clip-path:url(#SVGID_21_);}
	.st19{fill:url(#SVGID_22_);}
	.st20{clip-path:url(#SVGID_24_);}
	.st21{fill:url(#SVGID_25_);}
	.st22{clip-path:url(#SVGID_27_);fill:none;stroke:#E6E6E6;stroke-width:10;stroke-miterlimit:10;}
	.st23{clip-path:url(#SVGID_29_);fill:none;stroke:#E6E6E6;stroke-width:10;stroke-miterlimit:10;}
	.st24{clip-path:url(#SVGID_31_);fill:none;stroke:#E6E6E6;stroke-width:10;stroke-miterlimit:10;}
	.st25{clip-path:url(#SVGID_33_);fill:none;stroke:#E6E6E6;stroke-width:10;stroke-miterlimit:10;}
	.st26{clip-path:url(#SVGID_35_);fill:none;stroke:#E6E6E6;stroke-width:10;stroke-miterlimit:10;}
</style>
<g>
	<g>
		<path d="M832.85,199.21v-3.98l20.33-13.59v5.07l-15.72,10.4v0.22l15.72,10.4v5.07L832.85,199.21z"/>
		<path d="M882.2,176.81h4.68l-17.73,46.98h-4.68L882.2,176.81z"/>
		<path d="M898.17,207.74l15.72-10.4v-0.22l-15.72-10.4v-5.07l20.33,13.59v3.98l-20.33,13.59V207.74z"/>
	</g>
</g>
<g>
	<text transform="matrix(1 0 0 1 1463.9067 210.8599)" class="st6 st7">and more...</text>
</g>
<g>
	<g>
		<g>
			<g>
				<g>
					<path class="st8" d="M258.76,213.08c0.07,0.15,0.23,0.26,0.34,0.4C258.67,213.46,258.49,213.38,258.76,213.08z"/>
					<path class="st8" d="M263.75,216.27c-1.41-0.45-3.53-1.35-4.65-2.79c0.34,0.01,0.85-0.02,1.42-0.03
						c0.56,0.02,1.16,0.08,1.71,0.24C263.33,214,264.16,214.69,263.75,216.27z"/>
					<path class="st8" d="M259.95,207.95l1.69,1.51C260.23,209.96,260.9,208.56,259.95,207.95z"/>
					<polygon class="st8" points="259.8,211.07 259.36,212.18 258.69,210.77 					"/>
					<path class="st8" d="M175.52,239.37c-0.45,0.64-0.94,1.26-1.62,1.78L175.52,239.37z"/>
					<path class="st8" d="M180.78,230.21c0.24-0.57,0.36-0.93,0.44-1.22C181.28,229.21,181.13,229.54,180.78,230.21z"/>
					<path class="st8" d="M176.76,242.91c-0.11-0.2-0.23-0.4-0.33-0.61C176.63,242.4,176.76,242.59,176.76,242.91z"/>
					<path class="st8" d="M221.81,226.92c1.05,0.19,2.03,0.37,2.77,0.5C224.18,228.93,222.84,227.54,221.81,226.92z"/>
					<path class="st8" d="M201.61,208.22l-0.93-0.29C201.12,207.71,201.55,207.61,201.61,208.22z"/>
					<path class="st8" d="M198.99,216.23c-0.64,0.46-1.11,0.78-1.45,0.99l0.28-0.27L198.99,216.23z"/>
					<path class="st8" d="M179.14,244.18c0.03-0.02,0.06-0.03,0.09-0.05l-0.15,1.1C178.82,245.06,178.84,244.72,179.14,244.18z"/>
					<path class="st8" d="M202.86,200.01c0.5-0.44,1.13-0.89,1.97-1.35C204.5,199.63,203.59,200.09,202.86,200.01z"/>
					<path class="st8" d="M181.22,228.87c0.02-0.02,0.03-0.02,0.05-0.04c-0.01,0.04-0.04,0.12-0.06,0.16
						C181.21,228.95,181.24,228.9,181.22,228.87z"/>
					<path class="st8" d="M197.36,219.51c0.21-0.32,0.37-0.57,0.65-0.93C198.26,218.47,197.9,218.91,197.36,219.51z"/>
					<path class="st8" d="M221.81,226.92c-0.31-0.06-0.61-0.11-0.92-0.17C221.11,226.58,221.43,226.69,221.81,226.92z"/>
					<path class="st8" d="M253.48,214.01c-0.57-0.1-0.6-0.76-0.6-1.46C253.16,212.9,253.37,213.35,253.48,214.01z"/>
					<path class="st8" d="M159.66,225.19l0.17,0.13C159.73,225.32,159.68,225.26,159.66,225.19z"/>
					<path class="st8" d="M150.77,211.1c0.19-0.11,0.41-0.22,0.7-0.32C151.74,210.83,151.33,210.98,150.77,211.1z"/>
					<path class="st8" d="M136.67,183.88c-0.22,1.29-1.14,2-2.28,2.59c-1.13,0.57-2.34,1.18-2.96,2.03l1.38,0.01
						c-0.64,0.42-1.31,0.82-1.92,1.3l1.49,0.8c-0.57,0.66-1.02,1.45-1.41,2.26c-0.38,0.81-0.65,1.7-0.97,2.47
						c-0.15,0.39-0.31,0.76-0.49,1.09c-0.16,0.35-0.33,0.67-0.54,0.95c-0.41,0.56-0.94,0.95-1.68,1.09l2.73,0.34
						c-1.06,0.95-2.02,2.04-2.97,3.2c0.74-0.63,1.49-1.22,2.23-1.77c-0.08,1.06-0.34,2.21-0.66,3.38c-0.25,1.2-0.58,2.42-0.88,3.56
						c-0.48,2.31-0.91,4.32-0.81,4.8l0.96-0.49c0.59,0.67,0,1.29-0.23,2.1l1.43-0.78c0.06,1.62,0.53,2.88,1.03,3.96
						c0.48,1.09,1.15,1.94,1.78,2.79c0.31,0.43,0.62,0.86,0.92,1.31c0.3,0.45,0.63,0.89,0.92,1.4c0.3,0.51,0.57,1.06,0.83,1.7
						c0.25,0.64,0.56,1.29,0.81,2.09c1.25,1.29-0.11-1.09,0.62-1.53c1.51,0.15,1.66,2.59,1.46,3.33c1.56-1.75-0.3-3.44,2.26-2.92
						c-0.12,0.88,0.21,0.37,0.67-0.07c0.47-0.44,1.06-0.82,1.52,0.14c-0.64,0.83-1.26,1.67-1.87,2.54c1.22,0.65,1.98-1.25,3,0.36
						c0.25,1.22-0.82,1.34-1.75,1.46c-0.91,0.12-1.67,0.27-0.52,1.8c0.75,0.6,2.66,0.17,4.53-0.27c0.93-0.2,1.84-0.35,2.59-0.25
						c0.75,0.11,1.34,0.46,1.73,1.22c1.56,0.16,1.95-1.02,2.31-1.86c0.36-0.84,0.64-1.36,1.78-0.05c-0.21-0.97-0.39-1.93-0.54-2.86
						c0.95-0.37,1.59-1.79,2.29-0.48c-0.17,0.6-0.29,1.35-0.3,2.01c0.01,0.64,0.14,1.21,0.43,1.48c-0.69-1.78,0.39-2.13,1.46-2.58
						c1.09-0.45,2.15-1.01,1.87-2.93l0.74,0.59c-0.04-0.16,0.09-0.43,0.26-0.59l1.14,0.46c-0.32-0.98-1.63-2.12,0.24-3.59l1.66,0.37
						c0.48-1.68,1.31-1.99,1.9-3.21c-0.33-0.85-0.64-1.68-0.92-2.48c-0.29-0.8-0.38-1.62-0.55-2.38c-0.51,0.88-0.46,1.73-1.23,2.44
						c-1.38,0.09,0.41-1.91-1.09-1.4c-0.19,0.42-0.38,0.85-0.56,1.29c0.27-0.44,0.28-0.65,0.53-0.65c0.76-0.47,0.26,0.41-0.26,1.08
						c-1.35,1.13-1.35-0.44-0.75-1.47c-1.03-0.59-2.29,2.07-2.85,2.29c0.76-1.28,0.44-1.6-0.08-1.83c-0.55-0.21-1.1-0.38-0.81-1.05
						c-0.4,0.49-0.79,0.99-1.17,1.51c-1.14,0.34-1.57,0.01-1.58-0.46c0.01-0.49,0.37-1.1,0.51-1.48l-1.19,0.96
						c-0.26-0.6-1.49-0.45-2.22-0.65c-0.36-0.09-0.59-0.26-0.44-0.58c0.19-0.33,0.75-0.82,1.95-1.48l-0.91,0.47
						c-0.3-0.15-0.8-0.33-1.06-0.61c-0.2-0.28-0.16-0.65,0.56-1.05c-0.62,0.13-1.41,0.21-1.66,0.02c1.96-0.67,0.41-0.88-0.1-1.7
						c-0.47,0.58-3.17,0.64-3.73,1.46c-1.46-0.65-0.8-1.17,0.31-1.54c1.09-0.39,2.52-0.67,2.49-1.22c-1.38-0.77-1.5,0.59-2.5,0.83
						c0.68-1.01-0.76-2.08-1.68-3.35c-0.42-0.61-0.72-1.23-0.57-1.7c0.14-0.47,0.83-0.76,2.21-0.71c0.46,0.47,0.92,0.91,1.4,1.32
						c1.36-0.47,1.46-0.82,0.95-0.89c0.1,0.29-0.41,0.22-0.92,0.17c-0.49-0.78-0.44-1.39,0-1.79c0.42-0.41,1.07-0.67,1.84-0.82
						c0.76-0.16,1.55-0.26,2.13-0.46c0.63-0.19,1.07-0.47,1.13-1.1c-0.92-0.42-1.38-0.31-2.11-0.75c-0.15-0.78,1.1-0.3,2.27,0.13
						c1.18,0.41,2.17,0.75,1.89-0.51l-1.12-0.5c-0.15-0.89,1.4-0.1,1.6,0.2c-0.85-0.77-1.12-1.31-1.08-1.79
						c0.04-0.47,0.42-0.83,0.77-1.26c0.34-0.45,0.75-0.87,0.87-1.59c0.11-0.72,0.03-1.65-0.56-3.07c0.58,0.36,1.21,0.64,1.82,0.84
						c0.62,0.2,1.23,0.37,1.76,0.41c1.03,0.07,1.82-0.08,1.86-0.9c-0.08-1.5-0.59-2.08-1.25-2.57c-0.65-0.5-1.43-0.9-1.78-2.15
						c0.49-0.25,1.12,0.11,1.75,0.4c0.64,0.3,1.25,0.5,1.8-0.2c0.43,1.2,0.23,2.67,0.37,3.86c0.12,1.19,0.56,2.12,1.79,2.41
						l-0.18-1.4c-0.16,0.26-0.26,0.87-0.68,0.68c-1.19-1.15-0.27-1.73-0.34-2.45c0.45-0.07,0.93-0.03,1.38-0.05
						c0.45-0.01,0.89-0.02,1.34,0.04c0.39,1.31,0.2,1.86-0.05,2.21c-0.25,0.36-0.6,0.48-0.57,0.83c0.38-0.26,0.72-0.77,1.1-1.25
						c0.38-0.5,0.79-1.15,1.25-1.59c0.9-0.99,2.05-1.55,2.93-0.64l-0.14-1.03c1.12,1.25,1.52,0.03,1.99-0.91
						c0.41-0.92,0.89-1.57,1.43,0.74c0.59-0.25,0.68-0.93,0.81-1.59c0.13-0.65,0.31-1.21,1.24-1.05c0.51,0.14-0.1,1.02-0.28,1.33
						c0.86,0.74,1.29,0.26,1.67-0.08c0.36-0.33,0.72-0.51,1.11,1.06c0.28-0.93,0.54-1.86,0.78-2.8c0.86,1.45,1.12,3.65,1.17,5.31
						c0.08,1.7-0.02,2.93,0.98,3.08c1.59-1.56,0.64-2.23,1.35-3.81c-0.26,2.41,0.51,3.47,1.39,4.67c0.85,1.16,1.71,2.49,0.99,3.87
						c-0.99-0.06-1.97,0.52-2.95,0.93c-0.98,0.43-1.96,0.68-2.83,0.47c1.33-0.52,1.51-0.78,1.38-0.95
						c-0.15-0.17-0.59-0.23-0.54-0.52c-2.69,1.69-1.87,1.63-0.82,2.35c1.04,0.61,2.11,1.56-0.57,1.97c0.74,0.01,1.48,0.04,2.23,0.07
						c-0.29,0.36-1.92,1.21-2.64,0.73c0.51,0.66,1.02,1.39,1.47,2.22c0.85-0.41,2.23-1.08,3.08-1.77c0.85-0.69,1.15-1.36-0.06-1.53
						c2.28-0.97,1.64,0.92,4.27,0.04c-1.76,1.08-1.38,1.3-0.61,1.59c0.75,0.28,1.88,0.59,1.47,1.64c-1.59-0.49-2.69,0.03-3.58,0.56
						c-0.9,0.55-1.6,1.17-2.37,1.08c0.27,0.33,0.02,0.79-0.46,1.26c-0.48,0.5-1.15,0.8-1.78,1.38c-0.27,0.99,0.08,2.65,0.25,4.33
						c0.18,1.7,0.22,3.4-0.68,5.08c1.32-1.47,3.03-3.4,5.14-3.59c-1.44,1.45-1.72,3.01,0.81,2.48c1.37-1.36,1.67-1.92,1.46-2.24
						c-0.22-0.31-0.96-0.33-1.75-0.35c-0.79-0.02-1.63-0.03-2.03-0.35c-0.4-0.31-0.38-0.95,0.52-2.07c1.46-0.59,2.38-1.11,3.07-1.71
						c0.67-0.58,1.14-1.34,1.61-2.06c1.47,0.88,2.17,0.63,4.01,1.11c-2.94,0.62-3.27,2.17-3.27,3.53c0,1.43,0.39,2.62-1.4,4.47
						c-1.03,0.88-2.49,1.48-3.84,2.26c-1.36,0.78-2.63,1.78-3.27,3.66c-0.48-0.68-0.95-1.44-1.38-2.28
						c1.12,2.81-2.03,1.52-3.22,4.91c0.75-0.73,1.49-1.44,2.24-2.12c0.12,1.59-0.33,2.34-1.94,4.14c1.13-1.08,2.25-2.11,3.39-3.11
						c0.26,0.7,0.46,2.02-1.41,3.13c0.75-0.22,1.36-0.51,1.9-0.83c-0.55,0.47-0.94,1.09-0.91,1.99c0.41-0.79,0.24-1.07,1.19-1.66
						c-0.55,2.04,0.29,1.67,1.18,1.1c0.89-0.57,1.85-1.33,1.58-0.24c0.75-0.81,1.56-0.88,1.83-0.5c-2.38,1.73-3.81,3.71-4.84,5.66
						c-1.04,1.95-1.67,3.81-2.75,5.38l0.06-0.07c-0.44,1.38-0.79,2.72-1.08,4.06c0.18-0.82,1.37-1.33,1.93-1.06l-0.05-0.09
						c0.73,0.15,3.87-5.12,3.16-1.73c-0.26,0.78-0.53,1.55-0.73,2.32c0.06-0.35,0.62-0.73,0.9-0.91c-0.2,0.75-0.35,1.5-0.49,2.24
						c1.78-0.86,1.7,0.51,1.83,2.06c0.11,1.54,0.46,3.32,2.19,3.07c-0.91-0.02-1.65-1.07-0.51-1.9c0.34-0.07,0.6,0.11,0.79,0.39
						c0.19,0.26,0.29,0.66,0.31,1.03l0.14-0.49c1.04,1.51,2.25,2.72,3.5,3.78c0.23-1.46-2.39-2.03-0.4-3.4
						c1.63-1.75,1.98,0.31,2.78,0.46c-0.58,1.18-2.67,2.11-1.29,2.81c0.22-0.28,0.85-0.7,1.37-1.18c0.51-0.48,0.91-1.05,0.73-1.43
						c1.13,1.09,3.19,1.51,4,3.43c0.62-0.68,0.04-1.06-0.15-1.18l-0.22,0.4c-0.77-0.5,0.85-3.22-1.45-1.55
						c0.61-2.04,1.36-2.46,2.17-2.55c0.79-0.13,1.71,0.18,2.54-0.47c-0.57-0.65-1.12-1.36-1.62-2.01c2.85-3.65,4.68-5.01,6.58-5.48
						c1.84-0.5,3.91-0.27,5.74-1.76c-0.95,2.37-1.94,1.65-1.72,5.26c0.64,0.02,1.12-0.05,1.51-0.16c0.39-0.1,0.68-0.24,0.98-0.4
						c0.59-0.31,1.15-0.79,2.56-1.57l-0.26,0.01c0.26-0.74,0.6-1.16,0.99-1.46c0.38-0.31,0.81-0.51,1.21-0.73
						c0.81-0.45,1.57-1.02,1.48-2.83c-0.59-0.59-0.89,0.21-1.23,0.77c-0.34,0.55-0.68,0.82-1.19-1.02c1.01-0.8,2.03-1.63,3.06-2.5
						c-0.9-0.54-1.61,0.05-2.3,0.87c-0.69,0.81-1.38,1.89-1.99,2.11c-0.37,0.45,0.05,0.25,0.61,0.24c0.55-0.01,1.29,0.17,1.42,1.56
						c-3.08,2.61-4.23,0.56-5.69-2.23c-0.45-1.1-0.23-2.06,0.09-2.81c0.32-0.73,0.8-1.18,0.98-1.38c0.94,1.49,2.18,2.06,3.48,1.74
						c1.29-0.31,2.61-1.56,3.47-3.47c0.04-1.22,0.02-2.39-0.05-3.5c1.18,0.5,2.38,1.76,3.51,2.59c0.57,0.41,1.13,0.71,1.69,0.72
						c0.28,0.01,0.56-0.06,0.84-0.21c0.14-0.08,0.28-0.18,0.42-0.3c0.07-0.06,0.14-0.13,0.2-0.2c0.05-0.05,0.1-0.11,0.14-0.17
						c-0.57-0.33-1.27-0.52-1.89-0.79c0.08-1.06,0.14-1.42,0.36-1.59c-0.85-0.2-1.86-0.29-2.78-0.46c-0.93-0.17-1.8-0.41-2.58-0.68
						c-0.58-2.13,0.29-2.27,1.89-2.24c1.61,0.04,3.61,0.49,4.7,0.14c-0.4-0.32-1.08,0.04-1.91-0.59c0.49-0.69,1.21-1.13,2.04-1.4
						c0.85-0.25,1.8-0.32,2.75-0.32c1.92,0.02,3.79,0.34,4.93,0.03c-0.04-1.99-2.26,0.04-3.25-2.33c1.62,0.15,1.73-2.57,3.22-0.66
						c-2.18-2.66,2.56-1.66-1.21-3.22c1.79-1.89,4.51-2.57,7.2-2.62c1.37,0.04,2.72,0.14,4.05,0.46c0.66,0.15,1.29,0.26,1.92,0.45
						c0.61,0.18,1.22,0.37,1.82,0.55c-0.32-0.99-0.42-1.82-0.29-2.53c-0.82,0.14-1.87-0.04-2.89-0.34c-1.02-0.33-2.07-0.96-2.85-2
						c0.38-0.97,1.23-0.55,1.93-0.02c0.71,0.53,1.29,1.18,1.37,0.65c-0.71-0.71-1.88-0.44-2.26-2.09c0.59-1.09,1.28-1.04,1.91-0.66
						c0.64,0.4,1.24,1.09,1.8,1.18l-0.48,0.92c1.81,0.94,2.32,2.35,2.84,3.42c0.51,1.06,0.96,1.7,2.49,1.19c1.17-2,0.03-1.69,0-4.24
						c0.4,0.52,1.26,0.11,2.14-0.07c0.88-0.21,1.77-0.12,2.03,1.29l-1.02-0.02l-1.03,0.06c0.34,0.2,0.68,0.34,1.01,0.48
						c0.32,0.15,0.64,0.29,0.94,0.43c0.6,0.28,1.13,0.57,1.53,1.07c-0.01-0.55-0.01-1.12-0.27-1.37c0.99,0.91,2.41,1.07,2.59,2.82
						l0.89-2.6c-0.94,1.04-2.84,0.82-2.96-0.68c0.58-2.38,2.41-0.46,3.32-0.46c-0.95-0.4-1.62-0.95-2.16-1.55
						c-0.55-0.58-0.99-1.17-1.42-1.7c-0.87-1.04-1.78-1.85-3.72-1.02l0.57,0.87c-1.2,1-2.27,0.53-3.42,0.03
						c-1.13-0.52-2.31-1.38-3.35-1.18c0.53-0.62,0.58-1.63,0.25-2.05c-1.15,0.68-2.28,1.08-3.42,1.45
						c-1.12,0.42-2.29,0.64-3.44,0.98c-2.3,0.66-4.72,1.39-6.79,3.08c-0.84-0.6-1.71-1.18-2.61-1.75l0.83,1.87
						c-1.81,1.99-1.82-2.29-3.22-1.31c0.57-0.32,0.63,0.04,0.99,0.42c-1.91-0.3-2.05,0.35-1.9,1.07c0.13,0.72,0.53,1.53-0.34,1.68
						c0.91,0.72,1.66,0.49,2.31,0.43c0.66-0.04,1.19,0.1,1.59,1.53c-0.9-0.19-1.73-0.06-2.57,0.12c-0.84,0.17-1.64,0.44-2.41,0.63
						c-1.57,0.34-3.05,0.33-4.69-1.51c-0.8,1.2-1.77,2.21-2.87,3.09c-0.57,0.44-1.12,0.85-1.71,1.24c-0.56,0.36-1.33,0.86-1.56,0.88
						c-0.35,0.12-0.7,0.22-1.03,0.29c-0.31,0.06-0.58,0.08-0.84,0.1c-0.52,0.05-0.93,0.07-1.23,0.22c0.16,1.04,0.34,0.6,0.54,1.36
						c-0.77-1.22-0.9-0.41-1.14,0.55c-0.21,0.94-0.47,1.97-0.66,0.41c-0.11,1.07-0.03,3.56-0.06,4.51
						c-0.56-1.14-1.02-1.56-1.46-1.64c0.1,0.23,0.21,0.45,0.33,0.67l-0.04,0.51c-0.17-0.3-0.33-0.61-0.48-0.95l0.03-0.24
						c-0.54-0.04-1.13,0.41-1.67,0.39c-0.51-0.02-0.96-0.54-0.68-2.7c-0.18,1.32-0.54,2.63-0.96,3.85
						c-0.41,1.22-0.88,2.34-0.94,3.11c1.25-6.61,0.7-6.56-0.69-5.84c-0.77,1.54-1.5,2.77-1.96,4.01c0.25-1.02,0.56-2.06,0.92-3.11
						l-0.93,1.85c-1.02,0.56-0.6-1.58,0.15-3.33c0.72-1.78,1.5-3.05,0.29-1.94c-0.56,1.09-1.58,2.42-3.24,4.56
						c-0.04-1.1,0.11-2.25,1.72-4.69c-0.31,0.34-0.66,0.71-1.04,1.08c-0.4,0.12,0.88-1.37,1.5-2.12l-2.44,2.12
						c0.61-0.8,0.64-1.09,0.78-1.49c0.13-0.39,0.38-0.9,1.38-1.87c-1.27,0.8-0.58-0.07,0.27-0.95c0.86-0.9,1.87-1.74,1.41-1.77
						c0.29-0.24-0.37,0.18-1.08,0.6c-0.71,0.42-1.47,0.83-1.31,0.37c2.42-1.16,2.49-1.36,2.61-1.58c0.11-0.22,0.27-0.47,2.8-1.32
						c-0.6,0.1-1.18,0.15-1.76,0.15c0.83-0.24,1.67-0.47,2.49-0.68c-2.3,0.42-1.74,0.07-0.83-0.16c0.92-0.27,2.21-0.41,1.51-0.49
						c-0.52,0.02-0.69,0.06-1.03,0.05c0.52-0.16,0.84-0.29,2.04-0.12c0-0.02,0.06-0.05,0.13-0.07c0.11-0.56,0.23-1.15,0.25-1.69
						c0.04-1.14-0.27-1.81-1.59-0.82c1.38-0.07,0.05,1.91-0.49,2.35c-1.03,0.05-1.28-0.59-1.56-1.14c-0.27-0.55-0.59-1.25-1.67-1.56
						c0.23-0.05,0.6-0.29,0.94-0.46l-1.24-0.36c1.18-1.2,1.39-2.53,1.6-3.82c0.23-1.29,0.48-2.52,1.82-3.74
						c-0.64-0.08-1.16-0.53-1.15-1.59l2.52-0.37c-0.07-0.56-0.17-1.14-0.28-1.73c-0.1-0.58-0.22-1.17-0.37-1.77
						c-1.08,0.83-2.19,1.59-3.33,2.29c-0.32-0.83-0.4-1.69-0.28-2.55c0.06-0.91,0.35-1.77,0.55-2.77c0.46-1.96,0.91-4.06,0.33-5.92
						c-2.11,0.53-2.53-1.16-3.33-3.14c-0.78-1.94-2.03-4.21-4.5-3.94c0.4,0.92,0.74,1.85,1.02,2.78c-1.59-2.44-3.24-3.21-4.7-3.91
						c-0.75-0.33-1.45-0.69-2.24-1.15c-0.39-0.24-0.78-0.52-1.2-0.86c-0.42-0.32-0.86-0.7-1.34-1.17c1.13,0.2,1.97,0.43,2.7,0.7
						c0.73,0.26,1.36,0.5,2.05,0.77c0.7,0.27,1.51,0.52,2.58,0.9c1.1,0.36,2.48,0.82,4.37,1.61c-3.13-2.14-5.17-4.47-7.62-6.58
						c-2.48-2.08-4.78-3.59-8.03-3.39c0.12,1.08,1.19,2.18-0.46,2.69c-0.17-1.21-1.55-1.61-2.65-1.95c-1.1-0.33-1.98-0.52-1.28-1.71
						c-2.08,0.5-2.72,2.78-3.81,3.01c-0.9-0.61-1.85-1.21-2.84-1.8c-0.98-0.55-2-1.04-3.06-1.54l0.21,0.5
						c-2.54,1.58-4.72,2.41-6.95,2.87c-2.22,0.46-4.5,0.56-6.84,0.78c-1.2,0.08-2.35,0.25-3.54,0.44c-1.2,0.18-2.34,0.5-3.47,0.9
						c-1.14,0.39-2.2,0.94-3.19,1.63c-1,0.67-1.87,1.54-2.6,2.58l1.02,0.92c-1.04,0-2.11,0.02-3.16,0.12
						c2.3-0.36,0.55,1.83,1.31,2.77c-1.07,0.34-2.14,0.72-3.18,1.19c-1.05,0.46-2.14,0.91-3.17,1.5
						C133.82,183.99,136.14,185.3,136.67,183.88z M201.35,198.29c-0.01,0.46,0,0.93-0.02,1.38c0.15,0.25,0.21,0.53-0.04,0.85
						l0.04-0.85C200.92,199.01,199.79,198.64,201.35,198.29z M216.23,214.92c1.12,0.61-0.34,0.73-0.5,1.09l1.5-0.82
						C217,214.5,216.53,214.89,216.23,214.92z M185.04,200.48c-0.59-0.08-1.16-0.15-1.75-0.21c0.41-0.25,0.82-0.5,1.23-0.77
						C184.69,199.82,184.88,200.14,185.04,200.48z M180.23,190.74c0.04,0.49,0.05,0.97,0.05,1.43l-0.31,0.18
						c0-0.45,0.01-0.93-0.03-1.4L180.23,190.74z M169.2,172.63c0.12,0.1,0.23,0.19,0.36,0.36
						C169.44,172.91,169.32,172.78,169.2,172.63c-0.74-0.61-1.29-0.14-1.76,0.11c-0.49,0.25-0.91,0.28-1.64-1.16
						c0.69-1.31,1.39-1.29,1.95-0.84C168.33,171.19,168.79,172.11,169.2,172.63z M197,191.99c-0.09,0.78-0.12,1.16,0.17,1.57
						c0.91-0.57,1.83-2.52,2.53-1.56c-0.85,1.13-0.59,3.44-2.27,3.8c0.71-1.11-0.26-1.8-0.92-2.24
						C195.82,193.09,195.39,192.78,197,191.99z M196,218.58l-0.18-0.01c-0.55,0.56-1.11,1.16-1.67,1.78
						C194.77,219.74,195.39,219.15,196,218.58z M193.43,223.3c-2.73,2.97-2.4,3.75-3.01,5.23c1.16-1.18,2.41-2.75,3.35-4
						c0.94-1.26,1.57-2.21,1.48-2.42C197.38,219.31,191.74,225.26,193.43,223.3z M185.59,181.59c-0.18,0.49-0.37,0.98-0.57,1.47
						l-0.45-0.11c0.27,0.59,0.48,1.22,0.68,1.82c-1.5,0.06-1.89-0.76-2.11-1.89c-0.22-1.08-0.24-2.46-0.62-3.02
						c0.44,0.31,0.77,1.68,1.15,2.43C184.04,183.08,184.54,183.35,185.59,181.59z M194.01,231.49c-0.35,1.35-0.52,2.83-0.72,4.27
						c-0.21,1.43-0.47,2.88-1.23,4.28c1.29-2.62,1.87-4.55,2.16-5.82c0.28-1.28,0.24-1.93,0.06-1.97
						C193.91,232.52,193.92,232.17,194.01,231.49z M188.23,241.18c-0.05-1.53,0.39-3,1.1-4.69c0.72-1.69,1.71-3.66,3.09-6.28
						c0.99-0.54,0.5,0.74-0.42,2.58c-0.94,1.84-2.32,4.16-3.25,5.46c-0.32,1.49,0.06,1.35,0.55,0.81c0.5-0.54,1.17-1.5,1.6-1.73
						C190.02,238.62,189.14,239.9,188.23,241.18z M196.07,226.19c-0.23,0.15-0.45,0.27-0.68,0.4c-0.81,0.84-2.22,2.58-2.96,3.32
						c-0.75,0.76-0.85,0.49,1.04-2.44c0.6-0.22,1.24-0.51,1.92-0.88C195.78,226.19,196.04,226,196.07,226.19z M202.71,225.77
						c0.02-0.48,0.05-0.97,0.09-1.47C203.02,224.3,202.91,224.99,202.71,225.77c-0.02,0.41-0.03,0.82-0.03,1.22
						C201.57,229.16,202.32,227.27,202.71,225.77z M196.68,228.61c-0.27-0.24-0.53-0.51-0.74-0.86
						C194.51,230.22,196,229.23,196.68,228.61z M201.53,230.16c-0.51,0.64-2.1,1.95-1.81,1.56
						C200.66,228.98,201.54,228.99,201.53,230.16z M234.8,210.97l-1.37,0.36c-0.03-0.72-0.05-1.44-0.06-2.17
						C233.86,209.76,234.34,210.36,234.8,210.97z M221.63,220.13l-0.36-1.01l0.72-0.35L221.63,220.13z M211.33,229.53
						c-0.1-0.52-0.3-1.09-0.53-1.52c-0.19-0.06-0.39-0.23-0.57-0.64c0.11-0.12,0.34,0.19,0.57,0.64c0.51,0.14,0.99-0.66,0.98-1.51
						c-0.53-0.88-0.97-0.2-1.39-0.73c-0.06-1.6,0.9-0.86,1.66-0.71c0.75,0.16,1.1-0.06-0.78-3.05c0.32,0.27,0.95,0.59,1.58,0.97
						c0.62,0.39,1.24,0.84,1.37,1.55C213.08,225.05,211.73,227.37,211.33,229.53c0.07,0.44,0.08,0.83-0.09,1.07
						C211.21,230.27,211.26,229.9,211.33,229.53z M196.36,243.01c-0.45,0.01-0.6-0.13-0.62-0.34c-0.08-0.05-0.07-0.34-0.07-0.56
						c0.01-0.25,0.03-0.53,0.09-0.84c0.11-0.62,0.33-1.37,0.67-2.23c0.21,0.56,0.08,1.23-0.14,1.9c-0.12,0.33-0.24,0.67-0.35,0.97
						c-0.05,0.15-0.1,0.3-0.14,0.45c-0.02,0.06-0.03,0.13-0.05,0.21c0,0.04-0.01,0.08,0,0.11
						C195.89,242.9,196.11,243.06,196.36,243.01z M192.93,244.46c0.41,0.29,0.84,0.66,1.26,0.93l-0.33-1.33
						c0.26,0.4,0.52,0.75,0.79,1.1c0.27,0.35,0.56,0.75,0.84,1.1c-0.99,0.99-1.78,0.99-2.23,0.53
						C192.8,246.28,192.68,245.37,192.93,244.46z M191.77,245.9l0.3-1.6l-0.12,1.62L191.77,245.9l-0.07,0.37l-1.35-0.36
						c-0.44-0.14-0.89-0.29-1.33-0.48c0.45,0.14,0.91,0.22,1.37,0.3L191.77,245.9z M187.4,219.55c-6.09,1.54-5.08,4.94-8.19,7.43
						c2.12-1.04,5.17-1.92,5.67-4.84c0.82,0.71-0.29,1.65-0.97,2.32c-0.68,0.64-0.92,1,1.56,0.06c-0.08-0.46,0.36-1.32,0.87-2.05
						c0.5-0.74,1.04-1.36,1.15-1.51l-0.04,1.16c2.07-1.52,1.66-1.63,0.95-1.71C187.69,220.36,186.67,220.31,187.4,219.55z
						 M188.44,204.86c0.05-0.62,0.09-1.24,0.11-1.87c-0.13,0.59-0.29,1.18-0.45,1.76L188.44,204.86z M157.25,187.49
						c0.37,0.58,0.33,1.62,0.09,2.33c-0.26,0.7-0.79,0.98-1.71,0.06C156.36,189.01,157.45,188.49,157.25,187.49z M144.54,200.75
						c0.59-0.48,1.18-0.92,1.83-1.3c1.3,0.86,1.06,1.16,0.57,1.45c-0.49,0.28-1.31,0.55-1.23,1.04
						C144.18,201.71,145.38,201.41,144.54,200.75z M143.56,213.32l-0.33,0.75c0.92-0.5,1.85-0.97,2.79-1.4L143.56,213.32z
						 M147.33,211.66c0.71,0.01,1.15-0.28,1.4-0.56c0.25-0.28,0.36-0.59,0.25-0.68C148.4,210.8,147.83,211.21,147.33,211.66z
						 M153.71,218.2c-0.21-0.11-0.37-0.24-0.55-0.36c-0.57,0.72-1.15,1.48-1.66,2.23L153.71,218.2z M150.61,219.41
						c1.41-1.36,3.48-2.89,1.64-3.22c-1.73,1.08-1.47,1.46-3.78,2.28c-0.13,0.77,0.89,0.64,1.2,0.75c0.03-0.49-0.96-0.35,0.12-1.21
						C150.74,218.07,150.95,218.65,150.61,219.41c-0.5,0.48-0.92,0.94-1.01,1.32C150.07,220.33,150.42,219.85,150.61,219.41z
						 M145.65,215.2c-0.3-0.13-0.63-0.23-0.98-0.2l0.45-0.28C146.02,214.65,145.9,214.9,145.65,215.2c0.33,0.14,0.64,0.33,0.99,0.5
						c0.83-0.27,1.37-0.78,1.84-1.27c0.49-0.5,0.89-0.97,1.3-1.25c-0.16,0.29-0.6,0.68-0.85,1.04c-0.24,0.36-0.24,0.67,0.37,0.73
						c0.42-0.29,0.77-0.37,0.58-0.7l0.7,0.57c-0.86,0.97-1.52,1.4-2.15,1.45c-0.62,0.05-1.2-0.26-1.8-0.59
						c-0.36,0.12-0.76,0.21-1.26,0.19C145.08,215.81,145.42,215.48,145.65,215.2z M147.57,224.99l-0.11-0.82
						c0.26-0.7,0.92-1,1.22-1.42C149.06,223.37,148.94,224.92,147.57,224.99z M150.14,188.18c0.01,0.69,2.06,1.55,2.49,0.57
						c0.37,0.78,0.75,1.55,1.16,2.32c-1.05-1.32-2.38,0.05-2.64,0.08C149.3,189.63,150.52,189.86,150.14,188.18z M189.76,198.05
						c-1.55,0.5-1.73,1.25-1.66,1.98c0.08,0.73,0.4,1.47,0.01,1.78C187.36,200.55,186.11,197.94,189.76,198.05z M191.59,202.58
						c0,0.75,0.29,0.95-1.32,0.91c-0.67,0.36,0.2,0.92-0.47,1.26C188.36,203.39,190.95,203.46,191.59,202.58
						c0-0.2,0.02-0.42,0.11-0.7C191.81,202.17,191.73,202.39,191.59,202.58z M173.76,180.27c-0.17-0.83-0.38-1.67-0.62-2.51
						c-0.6-0.03-1.2-0.11-1.8-0.07C172.24,178.47,173.04,179.42,173.76,180.27z M154.99,178.34c0.66,1.17-1.08,2.09-1.78,1.68
						c0.96,1.52,1.99,0.71,3.02,0.47c0.18,0.08,0.42,0.09,0.72-0.04c-0.24-0.04-0.47-0.01-0.72,0.04c-0.53-0.23-0.65-1.17-0.9-1.74
						l0.3-0.69c-0.55,0.04-1.08,0.1-1.61,0.19L154.99,178.34z M132.56,204.05c1.21,1.58,0.71,1.63,0.13,2.54
						C132.03,206.26,131.95,204.93,132.56,204.05z M164.95,174.07c-1.08,0.57-0.7,1.21-0.28,1.83c0.43,0.63,0.91,1.25,0.29,1.76
						l1.04-0.3c-1.51,2.08-1.46-1.87-2.69-1.18l0.81-0.46c0.48-1.78-1.52-1-1.92-2.25c0.46-0.47,1.41-0.42,2.08-0.22
						C164.96,173.47,165.38,173.84,164.95,174.07z M131.18,206.19c0.74,1.27,0.33,1.72-0.4,2.11c-0.71,0.38-1.68,0.67-1.82,1.48
						c-0.8-1.03-0.38-1.52,0.29-1.93C129.92,207.43,130.86,207.08,131.18,206.19z M149.19,173.7l-0.02-0.37
						c-0.75,0.02-1.48,0.09-2.23,0.16l0.04,0.38C147.72,173.8,148.46,173.74,149.19,173.7z"/>
					<path class="st8" d="M148.97,208.85c0.22,0.26,0.18,0.42,0.04,0.57C148.93,209.25,148.89,209.06,148.97,208.85z"/>
					<path class="st8" d="M179.44,206.24c0.46,0.05,0.69,0.18,0.84,0.35C180.01,206.56,179.73,206.47,179.44,206.24z"/>
					<path class="st8" d="M178.08,209.05c-0.02,0.06-0.02,0.13-0.03,0.19c-0.06,0.04-0.12,0.1-0.18,0.14L178.08,209.05z"/>
					<path class="st8" d="M252.23,216.08c0.26,2.24-0.62,0.28-1.12,0.22C251.59,216.36,252.01,214.86,252.23,216.08z"/>
					<path class="st8" d="M248.56,212.07c0.29,0.66,0.71,1.12,1.23,1.33C249.45,213.46,249.11,213.21,248.56,212.07z"/>
					<path class="st8" d="M251.89,213.32c-0.86,0.36-1.55,0.31-2.1,0.09C250.32,213.32,250.86,212.59,251.89,213.32z"/>
					<path class="st8" d="M237.45,214.02c0.5,0.55,0.99,0.57,1.36,0.45c0.18-0.06,0.34-0.15,0.45-0.21
						c0.11-0.07,0.18-0.13,0.18-0.13c-1.16,0.92-0.82,1.53-0.23,1.97c0.61,0.45,1.51,0.88,1.7,1.35
						C239.35,217.27,238.94,215.7,237.45,214.02z"/>
					<path class="st8" d="M233.76,214.58c0.26-0.11,0.5-0.25,0.63-0.52C234.26,214.47,234.03,214.58,233.76,214.58z"/>
					<path class="st8" d="M233.33,216.2c-0.98,0.1-1.94-1.13-2.88-1.99c0.66-1.5,2.38,0.35,3.31,0.37
						C233.13,214.87,232.46,215.02,233.33,216.2z"/>
					<path class="st8" d="M210.23,243.82c0.28-0.01,0.88-0.53,1.06,0.43c-0.63,0.54-1.26,1.07-1.89,1.52
						C208.6,245.73,209.9,244.32,210.23,243.82z"/>
					<path class="st8" d="M203.88,243.31c-1.22,0.65-0.8,2.91-1.4,2.68l0.41-3.55C203.21,242.74,203.53,243.02,203.88,243.31z"/>
					<path class="st8" d="M205.38,223.08l0.13,0.29c-0.05-0.01-0.1-0.01-0.16-0.01L205.38,223.08z"/>
					<path class="st8" d="M197.11,249.91c0.04,1.11,0.11,2.23,0.19,3.38C196.26,252.67,196.94,249.8,197.11,249.91z"/>
					<path class="st8" d="M190.92,253.44c0.18,0.34,0.35,0.63,0.53,0.96l-0.61-0.18l-0.62-0.24l-1.22-0.46L190.92,253.44z"/>
					<path class="st8" d="M184.57,251.22l-0.57,0.53c-0.5-0.47-0.99-0.96-1.45-1.52C183.2,250.63,183.88,250.96,184.57,251.22z"/>
					<path class="st8" d="M174.9,190.32c0.45-1.28,1.05-1.44,1.66-1.31c0.57,0.15,1.11,0.56,1.55,0.44
						c-1.1,1.32-1.24,0.89-1.51,0.44C176.38,189.42,175.95,188.93,174.9,190.32z"/>
					<path class="st8" d="M147.79,207.24l0.39-0.86l0.49-0.82C149.45,207.09,148.54,205.9,147.79,207.24z"/>
				</g>
			</g>
		</g>
	</g>
</g>
<text transform="matrix(1 0 0 1 478.5752 230.7373)" class="st9 st10 st11">Aa</text>
<g>
	<defs>
		<path id="SVGID_11_" d="M372.88,55.06c2.79-3.12,5.67-6.17,8.65-9.16c42.5-42.5,99-65.9,159.1-65.9s116.6,23.4,159.1,65.9
			c42.5,42.5,65.9,99,65.9,159.1c0,38.25-9.5,75.04-27.35,107.69c-13.34-17.03-23.58-36.59-29.9-57.83
			c4.71-15.81,7.25-32.55,7.25-49.87c0-96.5-78.5-175-175-175c-55.91,0-105.79,26.36-137.85,67.31
			C394.55,82.26,384.55,68.09,372.88,55.06z M678.47,312.69C646.41,353.64,596.54,380,540.62,380c-96.5,0-175-78.5-175-175
			c0-17.32,2.54-34.06,7.25-49.87c-6.32-21.23-16.57-40.79-29.9-57.83c-17.85,32.65-27.35,69.44-27.35,107.69
			c0,60.1,23.4,116.6,65.9,159.1c42.5,42.5,99,65.9,159.1,65.9s116.6-23.4,159.1-65.9c2.98-2.98,5.86-6.04,8.65-9.16
			C696.7,341.91,686.7,327.74,678.47,312.69z"/>
	</defs>
	<clipPath id="SVGID_2_">
		<use xlink:href="#SVGID_11_"  style="overflow:visible;"/>
	</clipPath>
	<g style="clip-path:url(#SVGID_2_);">
		<linearGradient id="SVGID_4_" gradientUnits="userSpaceOnUse" x1="66.512" y1="176.3812" x2="1658.9648" y2="272.6076">
			<stop  offset="0" style="stop-color:#D4145A"/>
			<stop  offset="1" style="stop-color:#0071BC"/>
		</linearGradient>
		<path style="fill:url(#SVGID_4_);" d="M540.12,410c-113.04,0-205-91.96-205-205s91.96-205,205-205s205,91.96,205,205
			S653.16,410,540.12,410z M540.12,10c-107.52,0-195,87.48-195,195s87.48,195,195,195s195-87.48,195-195S647.65,10,540.12,10z"/>
	</g>
</g>
<g>
	<defs>
		<path id="SVGID_14_" d="M707.5,55.06c2.79-3.12,5.67-6.17,8.65-9.16c42.5-42.5,99-65.9,159.1-65.9s116.6,23.4,159.1,65.9
			c42.5,42.5,65.9,99,65.9,159.1c0,38.25-9.49,75.04-27.35,107.69c-13.34-17.03-23.58-36.59-29.9-57.83
			c4.71-15.81,7.25-32.55,7.25-49.87c0-96.5-78.5-175-175-175c-55.91,0-105.79,26.36-137.85,67.31
			C729.18,82.26,719.17,68.09,707.5,55.06z M1013.1,312.69C981.04,353.64,931.16,380,875.25,380c-96.5,0-175-78.5-175-175
			c0-17.32,2.54-34.06,7.25-49.87c-6.32-21.23-16.57-40.79-29.9-57.83c-17.85,32.65-27.35,69.44-27.35,107.69
			c0,60.1,23.4,116.6,65.9,159.1c42.5,42.5,99,65.9,159.1,65.9s116.6-23.4,159.1-65.9c2.98-2.98,5.86-6.04,8.65-9.16
			C1031.33,341.91,1021.32,327.74,1013.1,312.69z"/>
	</defs>
	<clipPath id="SVGID_6_">
		<use xlink:href="#SVGID_14_"  style="overflow:visible;"/>
	</clipPath>
	<g style="clip-path:url(#SVGID_6_);">
		<linearGradient id="SVGID_8_" gradientUnits="userSpaceOnUse" x1="67.7294" y1="156.2345" x2="1660.1823" y2="252.461">
			<stop  offset="0" style="stop-color:#D4145A"/>
			<stop  offset="1" style="stop-color:#0071BC"/>
		</linearGradient>
		<path style="fill:url(#SVGID_8_);" d="M874.75,410c-113.04,0-205-91.96-205-205s91.96-205,205-205c113.04,0,205,91.96,205,205
			S987.79,410,874.75,410z M874.75,10c-107.52,0-195,87.48-195,195s87.48,195,195,195s195-87.48,195-195S982.27,10,874.75,10z"/>
	</g>
</g>
<g>
	<defs>
		<path id="SVGID_17_" d="M1042.12,55.06c2.79-3.12,5.67-6.17,8.65-9.16c42.5-42.5,99-65.9,159.1-65.9s116.6,23.4,159.1,65.9
			c42.5,42.5,65.9,99,65.9,159.1c0,38.25-9.49,75.04-27.35,107.69c-13.34-17.03-23.58-36.59-29.9-57.83
			c4.71-15.81,7.25-32.55,7.25-49.87c0-96.5-78.5-175-175-175c-55.91,0-105.79,26.36-137.85,67.31
			C1063.8,82.26,1053.8,68.09,1042.12,55.06z M1347.72,312.69c-32.06,40.95-81.93,67.31-137.85,67.31c-96.5,0-175-78.5-175-175
			c0-17.32,2.54-34.06,7.25-49.87c-6.32-21.23-16.57-40.79-29.9-57.83c-17.85,32.65-27.35,69.44-27.35,107.69
			c0,60.1,23.4,116.6,65.9,159.1c42.5,42.5,99,65.9,159.1,65.9s116.6-23.4,159.1-65.9c2.98-2.98,5.86-6.04,8.65-9.16
			C1365.95,341.91,1355.95,327.74,1347.72,312.69z"/>
	</defs>
	<clipPath id="SVGID_10_">
		<use xlink:href="#SVGID_17_"  style="overflow:visible;"/>
	</clipPath>
	<g style="clip-path:url(#SVGID_10_);">
		<linearGradient id="SVGID_12_" gradientUnits="userSpaceOnUse" x1="68.9468" y1="136.0879" x2="1661.3997" y2="232.3143">
			<stop  offset="0" style="stop-color:#D4145A"/>
			<stop  offset="1" style="stop-color:#0071BC"/>
		</linearGradient>
		<path style="fill:url(#SVGID_12_);" d="M1209.38,410c-113.04,0-205-91.96-205-205s91.96-205,205-205s205,91.96,205,205
			S1322.41,410,1209.38,410z M1209.38,10c-107.52,0-195,87.48-195,195s87.48,195,195,195s195-87.48,195-195S1316.9,10,1209.38,10z"
			/>
	</g>
</g>
<g>
	<defs>
		<path id="SVGID_20_" d="M1376.75,55.06c2.79-3.12,5.67-6.17,8.65-9.16c42.5-42.5,99-65.9,159.1-65.9s116.6,23.4,159.1,65.9
			c42.5,42.5,65.9,99,65.9,159.1c0,38.25-9.49,75.04-27.35,107.69c-13.34-17.03-23.58-36.59-29.9-57.83
			c4.71-15.81,7.25-32.55,7.25-49.87c0-96.5-78.5-175-175-175c-55.91,0-105.79,26.36-137.85,67.31
			C1398.43,82.26,1388.42,68.09,1376.75,55.06z M1682.35,312.69c-32.06,40.95-81.93,67.31-137.85,67.31c-96.5,0-175-78.5-175-175
			c0-17.32,2.54-34.06,7.25-49.87c-6.32-21.23-16.57-40.79-29.9-57.83c-17.85,32.65-27.35,69.44-27.35,107.69
			c0,60.1,23.4,116.6,65.9,159.1c42.5,42.5,99,65.9,159.1,65.9s116.6-23.4,159.1-65.9c2.98-2.98,5.86-6.04,8.65-9.16
			C1700.58,341.91,1690.57,327.74,1682.35,312.69z"/>
	</defs>
	<clipPath id="SVGID_13_">
		<use xlink:href="#SVGID_20_"  style="overflow:visible;"/>
	</clipPath>
	<g style="clip-path:url(#SVGID_13_);">
		<linearGradient id="SVGID_15_" gradientUnits="userSpaceOnUse" x1="70.1642" y1="115.9412" x2="1662.6171" y2="212.1676">
			<stop  offset="0" style="stop-color:#D4145A"/>
			<stop  offset="1" style="stop-color:#0071BC"/>
		</linearGradient>
		<path style="fill:url(#SVGID_15_);" d="M1544,410c-113.04,0-205-91.96-205-205S1430.96,0,1544,0s205,91.96,205,205
			S1657.04,410,1544,410z M1544,10c-107.52,0-195,87.48-195,195s87.48,195,195,195s195-87.48,195-195S1651.52,10,1544,10z"/>
	</g>
</g>
<g>
	<defs>
		<path id="SVGID_23_" d="M343.85,312.69C311.79,353.64,261.91,380,206,380c-96.5,0-175-78.5-175-175S109.5,30,206,30
			s175,78.5,175,175c0,17.32-2.54,34.06-7.25,49.87c6.32,21.23,16.57,40.79,29.9,57.83C421.5,280.04,431,243.25,431,205
			c0-60.1-23.4-116.6-65.9-159.1C322.6,3.4,266.1-20,206-20S89.4,3.4,46.9,45.9C4.4,88.4-19,144.9-19,205S4.4,321.6,46.9,364.1
			c42.5,42.5,99,65.9,159.1,65.9s116.6-23.4,159.1-65.9c2.98-2.98,5.86-6.04,8.65-9.16C362.08,341.92,352.07,327.74,343.85,312.69z"
			/>
	</defs>
	<clipPath id="SVGID_16_">
		<use xlink:href="#SVGID_23_"  style="overflow:visible;"/>
	</clipPath>
	<g style="clip-path:url(#SVGID_16_);">
		<linearGradient id="SVGID_18_" gradientUnits="userSpaceOnUse" x1="65.2928" y1="196.558" x2="1657.7456" y2="292.7844">
			<stop  offset="0" style="stop-color:#D4145A"/>
			<stop  offset="1" style="stop-color:#0071BC"/>
		</linearGradient>
		<path style="fill:url(#SVGID_18_);" d="M205,410C91.96,410,0,318.04,0,205S91.96,0,205,0s205,91.96,205,205S318.04,410,205,410z
			 M205,10C97.48,10,10,97.48,10,205s87.48,195,195,195s195-87.48,195-195S312.52,10,205,10z"/>
	</g>
</g>
<g>
	<g>
		<g>
			<circle class="st3" cx="1171.38" cy="176.36" r="11.24"/>
			<line class="st3" x1="1188.15" y1="193.12" x2="1179.33" y2="184.3"/>
		</g>
		<rect x="1149.15" y="154.12" class="st3" width="50" height="50"/>
	</g>
	<g>
		<rect x="1220.6" y="205.88" class="st3" width="50" height="50"/>
		<line class="st3" x1="1220.6" y1="205.88" x2="1270.6" y2="255.88"/>
		<line class="st3" x1="1270.6" y1="205.88" x2="1220.6" y2="255.88"/>
	</g>
	<path class="st3" d="M1209.6,171.88h18c9.94,0,18,5.37,18,12v12"/>
</g>
</svg>
