<?xml version="1.0" encoding="utf-8"?>
<!-- Generator: Adobe Illustrator 24.0.3, SVG Export Plug-In . SVG Version: 6.00 Build 0)  -->
<svg version="1.1" id="Layer_1" xmlns="http://www.w3.org/2000/svg" xmlns:xlink="http://www.w3.org/1999/xlink" x="0px" y="0px"
	 viewBox="0 0 1920 130" style="enable-background:new 0 0 1920 130;" xml:space="preserve">
<style type="text/css">
	.st0{fill:none;stroke:#000000;stroke-width:4;stroke-linecap:round;stroke-linejoin:round;stroke-miterlimit:10;}
	.st1{fill:none;stroke:#000000;stroke-width:2;stroke-miterlimit:10;}
	.st2{fill:#808080;}
	.st3{fill:none;stroke:#808080;stroke-width:3;stroke-linejoin:round;stroke-miterlimit:10;}
</style>
<g>
	<g>
		<g>
			<g>
				<path d="M90.38,36.18c-6.84-6.66-18.13-2.92-23.1,4.14c-3.13,4.45-4.21,10.04-4.51,15.37c-0.33,5.88,0.14,11.84,0.51,17.71
					c0.47,7.24,1.13,14.46,1.98,21.66c0.14,1.21,0.93,2.25,2.25,2.25c1.11,0,2.39-1.04,2.25-2.25c-1.35-11.38-2.39-22.89-2.58-34.35
					c-0.14-8.31,0.9-18.87,9.69-22.54c3.39-1.42,7.55-1.51,10.33,1.19C89.28,41.39,92.46,38.21,90.38,36.18L90.38,36.18z"/>
			</g>
		</g>
		<g>
			<g>
				<path d="M53.5,80.6c8.58-0.68,17.16-1.37,25.74-2.05c1.21-0.1,2.25-0.97,2.25-2.25c0-1.14-1.03-2.35-2.25-2.25
					c-8.58,0.68-17.16,1.37-25.74,2.05c-1.21,0.1-2.25,0.97-2.25,2.25C51.25,79.49,52.28,80.69,53.5,80.6L53.5,80.6z"/>
			</g>
		</g>
		<g>
			<g>
				<path d="M88.42,75.95c-0.78,5.48-1.56,10.96-2.33,16.43c-0.17,1.2,0.29,2.42,1.57,2.77c1.05,0.29,2.6-0.36,2.77-1.57
					c0.78-5.48,1.56-10.96,2.33-16.43c0.17-1.2-0.29-2.42-1.57-2.77C90.13,74.09,88.59,74.74,88.42,75.95L88.42,75.95z"/>
			</g>
		</g>
		<g>
			<g>
				<path d="M86.86,68.94c2.84,2.77,6.46,4.75,10.35,5.56c1.15,0.24,2.49-0.34,2.77-1.57c0.26-1.13-0.34-2.51-1.57-2.77
					c-0.85-0.18-1.69-0.41-2.51-0.7c-0.19-0.07-0.38-0.14-0.57-0.22c-0.09-0.04-0.19-0.09-0.28-0.11c0.52,0.15,0.18,0.08,0.04,0.01
					c-0.4-0.18-0.79-0.37-1.17-0.57c-0.75-0.4-1.46-0.84-2.15-1.34c-0.1-0.07-0.21-0.15-0.31-0.23c-0.24-0.18,0.01-0.02,0.09,0.07
					c-0.12-0.15-0.33-0.27-0.48-0.39c-0.35-0.3-0.69-0.61-1.02-0.93c-0.84-0.82-2.35-0.9-3.18,0
					C86.05,66.65,85.96,68.07,86.86,68.94L86.86,68.94z"/>
			</g>
		</g>
		<g>
			<g>
				<path d="M96.94,81.77c1.37,2.75,1.98,5.72,1.91,8.78c-0.06,2.48,3.92,3.13,4.42,0.6c0.65-3.34,2.05-6.44,4.28-9.03
					c-0.91,0.12-1.82,0.23-2.73,0.35c2.01,1,2.76,3.34,3.79,5.19c1.39,2.47,3.31,4.46,6.12,5.24c2.95,0.81,6.19,0.32,9.07-0.54
					c2.99-0.89,5.99-2.39,8.02-4.81c3.78-4.51,3.84-12.36-2.33-14.8c-2.26-0.89-5.04-0.76-7.05,0.69c-2.62,1.89-3.23,5.26-2.34,8.23
					c0.98,3.27,3.32,6.05,5.76,8.36c2.6,2.47,5.61,4.51,8.89,5.98c1.11,0.5,2.42,0.32,3.08-0.81c0.56-0.96,0.31-2.58-0.81-3.08
					c-4.27-1.93-8.36-4.87-11.08-8.75c-0.98-1.4-2.3-3.61-1.59-5.39c0.54-1.37,2.15-1.53,3.38-1.11c1.6,0.54,2.31,2.02,2.29,3.65
					c-0.02,2.03-1.11,3.82-2.63,5.1c-1.74,1.46-3.96,2.24-6.14,2.76c-1.96,0.46-4.3,0.78-6.18-0.14c-1.83-0.89-2.64-2.99-3.55-4.69
					c-1.06-1.99-2.35-3.93-4.43-4.97c-0.84-0.42-2.06-0.43-2.73,0.35c-2.72,3.17-4.63,6.91-5.43,11.02c1.47,0.2,2.95,0.4,4.42,0.6
					c0.09-3.86-0.8-7.6-2.52-11.05C99.54,76.9,95.65,79.18,96.94,81.77L96.94,81.77z"/>
			</g>
		</g>
		<g>
			<g>
				<path d="M170.39,93.26c-3.9-11.43-6.29-23.78-5.96-35.89c0.08-2.78,0.4-5.64,1.5-8.23c0.33-0.77,0.73-1.51,1.2-2.2
					c0.45-0.68,0.44-0.67,1.1-1.35c2.04-2.13,4.55-3.14,7.58-2.19c3.52,1.11,6.53,4.49,8.51,7.12c2.17,2.87,4.05,5.95,5.76,9.1
					c3.43,6.33,6.45,13.25,7.61,20.4c0.03,0.19,0.06,0.39,0.09,0.59c0.06,0.44-0.06-0.52,0.03,0.2c0.04,0.33,0.07,0.67,0.1,1
					c0.05,0.69,0.08,1.39,0.05,2.08c-0.01,0.29-0.03,0.58-0.05,0.87c-0.05,0.66,0.07-0.15-0.07,0.48c-0.12,0.54-0.25,1.07-0.45,1.59
					c0.24-0.61-0.11,0.15-0.18,0.28c-0.18,0.35-0.27,0.37-0.11,0.2c-0.14,0.15-0.3,0.3-0.44,0.46c-0.31,0.35,0.32-0.2,0.07-0.04
					c-0.12,0.08-0.24,0.15-0.36,0.23c-0.51,0.34,0.07,0.03-0.2,0.11c-0.25,0.08-0.5,0.14-0.76,0.21c-0.39,0.1,0.03,0.01,0.1,0
					c-0.27,0.04-0.55,0.05-0.83,0.07c-0.8,0.05-1.61,0.06-2.42,0.03c-4.39-0.18-10.7-1.94-11.69-6.99
					c-0.92-4.69,5.01-7.77,8.43-9.39c4.86-2.31,10.33-3.49,15.7-2.96c3.98,0.39,6.61,1.67,9.79,4c2.71,1.99,5.33,4.5,7.49,7.18
					c0.68,0.84,1.51,2.12,2.12,3.31c0.24,0.47-0.02-0.24,0.13,0.34c0.06,0.25,0.13,0.48,0.19,0.73c-0.11-0.5-0.09-0.17-0.03,0.12
					c-0.03-0.15,0.04-0.25,0.08-0.33c-0.03,0.05,0.26-0.27,0.31-0.29c-0.51,0.24,0.17,0.12-0.11,0.06
					c-0.03-0.01-0.54,0.12-0.15,0.05c0.43-0.08-0.23,0.04-0.21,0.01c-0.02,0.03-0.24,0-0.31,0c0.52-0.06,0.43,0.08,0.17,0
					c0.1,0.03,0.78,0.47,0.39,0.16c0.36,0.29,0.24,0.35,0.12,0.13c-0.08-0.15-0.16-0.42,0.03,0.14c-0.07-0.2-0.14-0.4-0.19-0.61
					c-0.03-0.13-0.05-0.26-0.08-0.38c-0.1-0.46,0.02,0.46-0.01-0.08c-0.17-3.1,0.28-5.48,1-8.51c0.35-1.49,0.76-2.96,1.24-4.42
					c0.21-0.65,0.44-1.3,0.69-1.94c0.07-0.18,0.31-0.75,0.11-0.29c0.12-0.28,0.25-0.56,0.39-0.83c0.09-0.17,0.18-0.33,0.27-0.49
					c0.27-0.5,0.18-0.02-0.05,0.02c0.38-0.07-0.26-0.04,0.41-0.23c0.51-0.14,1-0.26,1.53-0.3c3.1-0.24,6.27-0.06,9.38-0.07
					c3.08-0.01,6.16-0.02,9.24-0.04c2.9-0.01,2.9-4.51,0-4.5c-3.73,0.01-7.46,0.03-11.19,0.04c-1.62,0.01-3.24,0.01-4.86,0.02
					c-1.69,0.01-3.48-0.06-5.1,0.45c-1.67,0.52-2.81,1.41-3.57,2.95c-0.67,1.35-1.18,2.79-1.65,4.22
					c-1.13,3.51-1.97,7.18-2.29,10.86c-0.24,2.73-0.26,7.04,2.99,8.04c1.35,0.41,3.07,0.1,4.22-0.68c1.46-0.99,1.87-2.68,1.59-4.34
					c-0.56-3.23-3.19-6.17-5.34-8.49c-2.81-3.02-6.09-5.84-9.69-7.87c-4.6-2.6-10.16-3.17-15.33-2.54
					c-6.17,0.76-12.5,3.08-17.42,6.95c-2.22,1.75-4.19,4.1-4.78,6.93c-0.61,2.9,0.21,5.81,1.98,8.14c3.82,5.05,11.1,6.73,17.14,6.13
					c3.17-0.32,5.48-2.12,6.52-5.14c1.06-3.09,0.6-6.66,0-9.78c-0.77-3.99-2.11-7.86-3.67-11.6c-3.16-7.62-7.19-15.41-12.85-21.49
					c-3.5-3.76-8.27-6.92-13.62-6.07c-3.69,0.59-6.82,3.27-8.74,6.38c-3.38,5.49-3.25,12.39-2.91,18.59
					c0.39,6.99,1.41,13.96,3.06,20.76c0.82,3.38,1.8,6.73,2.92,10.02C166.98,97.18,171.32,96.01,170.39,93.26L170.39,93.26z"/>
			</g>
		</g>
		<g>
			<g>
				<path d="M230.76,55.04c0.09,9.62,0.49,19.99,7.18,27.6c2.7,3.08,6.44,5.54,10.52,6.22c4.35,0.72,8.52-0.54,11.82-3.46
					c3.44-3.04,5.33-7.86,3.91-12.35c-0.87-2.75-5.21-1.58-4.34,1.2c1.89,6-5,11.23-10.55,10.21c-7.19-1.33-11.41-8.35-12.91-14.96
					c-1.07-4.73-1.09-9.63-1.14-14.45C235.24,52.14,230.74,52.14,230.76,55.04L230.76,55.04z"/>
			</g>
		</g>
	</g>
	<g>
		<path d="M502.87,75.66c-1.75,0.69-3.5,1.03-5.28,1.03c-2.25,0-4.26-0.42-6.04-1.25s-3.28-1.95-4.52-3.36
			c-1.24-1.41-2.18-3.03-2.83-4.85c-0.65-1.83-0.97-3.73-0.97-5.7c0-2.2,0.3-4.28,0.91-6.27c0.6-1.98,1.51-3.72,2.7-5.21
			c1.2-1.49,2.69-2.68,4.47-3.57c1.79-0.89,3.88-1.33,6.27-1.33c1.63,0,3.17,0.19,4.62,0.57c1.45,0.38,2.74,0.98,3.88,1.79
			c1.14,0.82,2.1,1.85,2.87,3.1c0.77,1.25,1.3,2.76,1.58,4.54h-4.01c-0.2-1.15-0.56-2.15-1.1-2.98c-0.53-0.83-1.2-1.51-1.98-2.05
			c-0.79-0.53-1.68-0.94-2.68-1.2c-1-0.27-2.06-0.4-3.19-0.4c-1.83,0-3.4,0.37-4.71,1.1c-1.31,0.73-2.38,1.7-3.21,2.89
			c-0.83,1.2-1.44,2.56-1.84,4.1c-0.39,1.53-0.59,3.1-0.59,4.71c0,1.58,0.22,3.09,0.68,4.54c0.45,1.45,1.11,2.73,1.98,3.84
			c0.87,1.11,1.95,2,3.23,2.66c1.28,0.66,2.77,0.99,4.45,0.99c1.58,0,2.97-0.25,4.18-0.76c1.21-0.51,2.23-1.2,3.06-2.09
			c0.83-0.89,1.46-1.93,1.88-3.12c0.42-1.2,0.6-2.48,0.55-3.86h-9.63v-3.38h13.21v15.87h-2.53l-1.06-3.76
			C506.08,73.84,504.61,74.97,502.87,75.66z"/>
		<path d="M519.42,54.19v4.6h0.08c0.87-1.77,1.94-3.08,3.21-3.93c1.27-0.84,2.87-1.24,4.81-1.18v3.8c-1.44,0-2.66,0.2-3.67,0.59
			c-1.01,0.39-1.83,0.97-2.45,1.73c-0.62,0.76-1.07,1.68-1.35,2.76c-0.28,1.08-0.42,2.33-0.42,3.74v9.71h-3.59V54.19H519.42z"/>
		<path d="M549.56,75.93c-0.62,0.37-1.48,0.55-2.58,0.55c-0.93,0-1.67-0.26-2.22-0.78c-0.55-0.52-0.82-1.37-0.82-2.55
			c-0.99,1.18-2.13,2.03-3.44,2.55c-1.31,0.52-2.72,0.78-4.24,0.78c-0.99,0-1.92-0.11-2.81-0.34c-0.89-0.22-1.65-0.58-2.3-1.06
			c-0.65-0.48-1.16-1.1-1.54-1.88c-0.38-0.77-0.57-1.71-0.57-2.81c0-1.24,0.21-2.25,0.63-3.04c0.42-0.79,0.98-1.43,1.67-1.92
			c0.69-0.49,1.48-0.87,2.36-1.12c0.89-0.25,1.79-0.46,2.72-0.63c0.98-0.2,1.92-0.34,2.81-0.44c0.89-0.1,1.67-0.24,2.34-0.42
			c0.68-0.18,1.21-0.45,1.6-0.8c0.39-0.35,0.59-0.87,0.59-1.54c0-0.79-0.15-1.42-0.44-1.9c-0.3-0.48-0.68-0.84-1.14-1.1
			c-0.46-0.25-0.99-0.42-1.56-0.51c-0.58-0.08-1.15-0.13-1.71-0.13c-1.52,0-2.79,0.29-3.8,0.87c-1.01,0.58-1.56,1.67-1.65,3.27
			h-3.59c0.06-1.35,0.34-2.49,0.84-3.42c0.51-0.93,1.18-1.68,2.03-2.26c0.84-0.58,1.81-0.99,2.89-1.25
			c1.08-0.25,2.24-0.38,3.48-0.38c0.98,0,1.96,0.07,2.93,0.21c0.97,0.14,1.85,0.43,2.64,0.86c0.79,0.44,1.42,1.05,1.9,1.83
			c0.48,0.79,0.72,1.81,0.72,3.07v11.21c0,0.84,0.05,1.46,0.15,1.85c0.1,0.39,0.43,0.59,0.99,0.59c0.31,0,0.68-0.06,1.1-0.17V75.93z
			 M543.73,64.75c-0.45,0.34-1.04,0.58-1.77,0.74c-0.73,0.15-1.5,0.28-2.3,0.38c-0.8,0.1-1.61,0.21-2.43,0.34
			c-0.82,0.13-1.55,0.33-2.2,0.61c-0.65,0.28-1.18,0.68-1.58,1.2c-0.41,0.52-0.61,1.23-0.61,2.12c0,0.59,0.12,1.08,0.36,1.49
			c0.24,0.41,0.55,0.74,0.93,0.99c0.38,0.25,0.82,0.43,1.33,0.55s1.04,0.17,1.6,0.17c1.18,0,2.2-0.16,3.04-0.48
			c0.84-0.32,1.53-0.73,2.07-1.22c0.53-0.49,0.93-1.02,1.18-1.6c0.25-0.57,0.38-1.11,0.38-1.62V64.75z"/>
		<path d="M556.61,54.19v2.95h0.08c0.59-1.21,1.52-2.09,2.79-2.64c1.27-0.55,2.66-0.82,4.18-0.82c1.69,0,3.16,0.31,4.41,0.93
			c1.25,0.62,2.29,1.46,3.12,2.51c0.83,1.06,1.46,2.27,1.88,3.65c0.42,1.38,0.63,2.84,0.63,4.39c0,1.55-0.2,3.01-0.61,4.39
			c-0.41,1.38-1.03,2.58-1.86,3.61c-0.83,1.03-1.87,1.84-3.12,2.43c-1.25,0.59-2.71,0.89-4.37,0.89c-0.54,0-1.13-0.06-1.79-0.17
			c-0.66-0.11-1.32-0.3-1.96-0.55c-0.65-0.25-1.26-0.6-1.84-1.03c-0.58-0.44-1.06-0.98-1.46-1.63h-0.08v11.23h-3.59V54.19H556.61z
			 M569.51,61.94c-0.27-0.97-0.68-1.84-1.22-2.6c-0.55-0.76-1.25-1.36-2.11-1.82c-0.86-0.45-1.87-0.68-3.02-0.68
			c-1.21,0-2.24,0.24-3.08,0.72c-0.84,0.48-1.53,1.1-2.07,1.88c-0.53,0.77-0.92,1.65-1.16,2.64c-0.24,0.99-0.36,1.98-0.36,3
			c0,1.07,0.13,2.1,0.38,3.1c0.25,1,0.65,1.88,1.2,2.64c0.55,0.76,1.26,1.37,2.13,1.84c0.87,0.46,1.93,0.7,3.17,0.7
			c1.24,0,2.27-0.24,3.1-0.72c0.83-0.48,1.5-1.11,2.01-1.9c0.51-0.79,0.87-1.69,1.1-2.7c0.22-1.01,0.34-2.05,0.34-3.12
			C569.91,63.9,569.77,62.91,569.51,61.94z"/>
		<path d="M581.51,45.88V57.4h0.08c0.28-0.68,0.68-1.25,1.18-1.71c0.51-0.46,1.08-0.84,1.71-1.14c0.63-0.3,1.29-0.51,1.98-0.65
			c0.69-0.14,1.36-0.21,2.01-0.21c1.44,0,2.63,0.2,3.59,0.59c0.96,0.39,1.73,0.94,2.32,1.65c0.59,0.7,1.01,1.54,1.25,2.51
			c0.24,0.97,0.36,2.05,0.36,3.23v14.35h-3.59V61.24c0-1.35-0.39-2.42-1.18-3.21c-0.79-0.79-1.87-1.18-3.25-1.18
			c-1.1,0-2.05,0.17-2.85,0.51c-0.8,0.34-1.47,0.82-2.01,1.44c-0.54,0.62-0.94,1.34-1.2,2.17c-0.27,0.83-0.4,1.74-0.4,2.72v12.33
			h-3.59V45.88H581.51z"/>
		<path d="M601.61,50.27v-4.39h3.59v4.39H601.61z M605.2,54.19v21.83h-3.59V54.19H605.2z"/>
		<path d="M623.81,57.99c-0.9-0.76-2.11-1.14-3.63-1.14c-1.3,0-2.38,0.24-3.25,0.72c-0.87,0.48-1.57,1.11-2.09,1.9
			c-0.52,0.79-0.89,1.7-1.12,2.72c-0.23,1.03-0.34,2.09-0.34,3.19c0,1.01,0.12,2,0.36,2.96c0.24,0.96,0.61,1.81,1.12,2.55
			c0.51,0.75,1.17,1.34,1.98,1.79c0.82,0.45,1.79,0.68,2.91,0.68c1.77,0,3.16-0.46,4.16-1.39c1-0.93,1.61-2.24,1.84-3.93h3.67
			c-0.39,2.7-1.4,4.78-3.02,6.25c-1.62,1.46-3.82,2.2-6.61,2.2c-1.66,0-3.13-0.27-4.41-0.8c-1.28-0.53-2.35-1.29-3.21-2.28
			c-0.86-0.99-1.51-2.16-1.94-3.53c-0.44-1.37-0.65-2.86-0.65-4.5c0-1.63,0.21-3.16,0.63-4.58c0.42-1.42,1.06-2.66,1.92-3.72
			c0.86-1.06,1.93-1.89,3.23-2.49c1.29-0.6,2.8-0.91,4.52-0.91c1.24,0,2.4,0.15,3.48,0.44c1.08,0.3,2.04,0.75,2.87,1.37
			c0.83,0.62,1.51,1.4,2.05,2.34c0.53,0.94,0.87,2.06,1.01,3.36h-3.71C625.31,59.82,624.71,58.75,623.81,57.99z"/>
		<path d="M656.11,45.88c4.64,0,8.22,1.18,10.72,3.55s3.76,5.97,3.76,10.81c0,2.53-0.28,4.78-0.84,6.73
			c-0.56,1.96-1.44,3.6-2.62,4.94c-1.18,1.34-2.69,2.36-4.52,3.06c-1.83,0.7-4,1.06-6.5,1.06h-10.34V45.88H656.11z M656.45,72.64
			c0.45,0,1.01-0.03,1.69-0.11c0.68-0.07,1.39-0.24,2.15-0.51c0.76-0.27,1.51-0.65,2.26-1.16c0.75-0.51,1.41-1.2,2.01-2.07
			c0.59-0.87,1.08-1.96,1.46-3.27c0.38-1.31,0.57-2.89,0.57-4.75c0-1.8-0.18-3.41-0.53-4.83c-0.35-1.42-0.93-2.63-1.73-3.63
			c-0.8-1-1.84-1.76-3.1-2.28c-1.27-0.52-2.83-0.78-4.69-0.78h-6.75v23.39H656.45z"/>
		<path d="M690.35,74.62c-1.63,1.24-3.69,1.86-6.16,1.86c-1.75,0-3.26-0.28-4.54-0.84c-1.28-0.56-2.36-1.35-3.23-2.36
			c-0.87-1.01-1.53-2.22-1.96-3.63c-0.44-1.41-0.68-2.94-0.74-4.6c0-1.66,0.25-3.18,0.76-4.56c0.51-1.38,1.22-2.58,2.13-3.59
			c0.91-1.01,2-1.8,3.25-2.36c1.25-0.56,2.62-0.84,4.12-0.84c1.94,0,3.55,0.4,4.83,1.2c1.28,0.8,2.31,1.82,3.08,3.06
			c0.77,1.24,1.31,2.59,1.6,4.05c0.3,1.46,0.41,2.86,0.36,4.18h-16.34c-0.03,0.96,0.08,1.86,0.34,2.72
			c0.25,0.86,0.66,1.62,1.22,2.28c0.56,0.66,1.28,1.19,2.15,1.58c0.87,0.39,1.9,0.59,3.08,0.59c1.52,0,2.77-0.35,3.74-1.06
			c0.97-0.7,1.61-1.77,1.92-3.21h3.55C693.03,71.54,691.98,73.39,690.35,74.62z M689.48,60.61c-0.32-0.76-0.76-1.41-1.31-1.96
			c-0.55-0.55-1.2-0.98-1.94-1.31c-0.75-0.32-1.57-0.49-2.47-0.49c-0.93,0-1.77,0.16-2.51,0.49c-0.75,0.32-1.39,0.77-1.92,1.33
			c-0.53,0.56-0.96,1.22-1.27,1.96c-0.31,0.75-0.49,1.54-0.55,2.38h12.54C689.99,62.17,689.8,61.37,689.48,60.61z"/>
		<path d="M700.31,71.14c0.34,0.55,0.78,0.99,1.33,1.31c0.55,0.32,1.17,0.56,1.86,0.7c0.69,0.14,1.4,0.21,2.13,0.21
			c0.56,0,1.15-0.04,1.77-0.13c0.62-0.08,1.19-0.24,1.71-0.46c0.52-0.22,0.95-0.56,1.29-0.99c0.34-0.44,0.51-0.99,0.51-1.67
			c0-0.93-0.35-1.63-1.06-2.11c-0.7-0.48-1.58-0.87-2.64-1.16c-1.06-0.3-2.2-0.56-3.44-0.8c-1.24-0.24-2.39-0.58-3.44-1.01
			c-1.06-0.44-1.94-1.05-2.64-1.84c-0.7-0.79-1.06-1.88-1.06-3.29c0-1.1,0.25-2.04,0.74-2.83c0.49-0.79,1.13-1.43,1.9-1.92
			c0.77-0.49,1.65-0.86,2.62-1.1c0.97-0.24,1.93-0.36,2.89-0.36c1.24,0,2.38,0.11,3.42,0.32c1.04,0.21,1.96,0.58,2.76,1.1
			c0.8,0.52,1.44,1.22,1.92,2.11c0.48,0.89,0.76,1.99,0.84,3.31h-3.59c-0.06-0.7-0.24-1.29-0.55-1.75c-0.31-0.46-0.7-0.84-1.18-1.12
			c-0.48-0.28-1.01-0.49-1.58-0.61c-0.58-0.13-1.16-0.19-1.75-0.19c-0.53,0-1.08,0.04-1.63,0.13c-0.55,0.08-1.05,0.23-1.5,0.44
			c-0.45,0.21-0.82,0.49-1.1,0.84c-0.28,0.35-0.42,0.81-0.42,1.37c0,0.62,0.22,1.13,0.65,1.54c0.44,0.41,0.99,0.75,1.67,1.01
			c0.68,0.27,1.44,0.49,2.28,0.68c0.84,0.18,1.69,0.37,2.53,0.57c0.9,0.2,1.78,0.44,2.64,0.72c0.86,0.28,1.62,0.65,2.28,1.12
			c0.66,0.46,1.2,1.05,1.6,1.75c0.41,0.7,0.61,1.58,0.61,2.62c0,1.32-0.27,2.42-0.82,3.29c-0.55,0.87-1.27,1.58-2.15,2.11
			c-0.89,0.53-1.89,0.91-3,1.12c-1.11,0.21-2.22,0.32-3.31,0.32c-1.21,0-2.36-0.13-3.46-0.38c-1.1-0.25-2.07-0.67-2.91-1.25
			c-0.84-0.58-1.52-1.34-2.03-2.28c-0.51-0.94-0.79-2.09-0.84-3.44h3.59C699.79,69.93,699.97,70.59,700.31,71.14z"/>
		<path d="M718.88,50.27v-4.39h3.59v4.39H718.88z M722.47,54.19v21.83h-3.59V54.19H722.47z"/>
		<path d="M744.42,82.18c-1.63,1.77-4.19,2.66-7.68,2.66c-1.01,0-2.05-0.11-3.1-0.34c-1.06-0.23-2.01-0.59-2.87-1.1
			c-0.86-0.51-1.57-1.17-2.13-1.98c-0.56-0.82-0.87-1.82-0.93-3h3.59c0.03,0.65,0.23,1.2,0.61,1.65c0.38,0.45,0.84,0.82,1.39,1.1
			c0.55,0.28,1.15,0.49,1.79,0.61c0.65,0.13,1.27,0.19,1.86,0.19c1.18,0,2.18-0.2,3-0.61c0.82-0.41,1.49-0.97,2.03-1.69
			c0.53-0.72,0.92-1.58,1.16-2.6c0.24-1.01,0.36-2.12,0.36-3.34V72.3h-0.08c-0.62,1.35-1.56,2.34-2.81,2.98
			c-1.25,0.63-2.58,0.95-3.99,0.95c-1.63,0-3.05-0.3-4.26-0.89c-1.21-0.59-2.22-1.39-3.04-2.38c-0.82-1-1.43-2.17-1.84-3.5
			c-0.41-1.34-0.61-2.75-0.61-4.24c0-1.29,0.17-2.62,0.51-3.99c0.34-1.36,0.9-2.6,1.69-3.72c0.79-1.11,1.83-2.03,3.12-2.74
			c1.29-0.72,2.88-1.08,4.77-1.08c1.38,0,2.65,0.3,3.8,0.91c1.15,0.61,2.05,1.51,2.7,2.72h0.04v-3.12h3.38v19.97
			C746.87,77.73,746.05,80.41,744.42,82.18z M739.84,72.37c0.83-0.49,1.5-1.14,2.01-1.94c0.51-0.8,0.88-1.71,1.12-2.72
			c0.24-1.01,0.36-2.03,0.36-3.04c0-0.96-0.11-1.9-0.34-2.83c-0.23-0.93-0.58-1.77-1.08-2.51c-0.49-0.75-1.13-1.34-1.92-1.79
			c-0.79-0.45-1.75-0.68-2.87-0.68c-1.15,0-2.14,0.22-2.96,0.65c-0.82,0.44-1.49,1.02-2.01,1.75c-0.52,0.73-0.9,1.58-1.14,2.53
			c-0.24,0.96-0.36,1.96-0.36,3c0,0.99,0.1,1.97,0.3,2.95c0.2,0.99,0.53,1.88,1.01,2.68c0.48,0.8,1.11,1.45,1.9,1.94
			c0.79,0.49,1.77,0.74,2.96,0.74C738.01,73.11,739.01,72.86,739.84,72.37z"/>
		<path d="M755.65,54.19v3.46h0.08c1.49-2.65,3.86-3.97,7.09-3.97c1.43,0,2.63,0.2,3.59,0.59c0.96,0.39,1.73,0.94,2.32,1.65
			c0.59,0.7,1.01,1.54,1.25,2.51c0.24,0.97,0.36,2.05,0.36,3.23v14.35h-3.59V61.24c0-1.35-0.39-2.42-1.18-3.21
			c-0.79-0.79-1.87-1.18-3.25-1.18c-1.1,0-2.05,0.17-2.85,0.51c-0.8,0.34-1.47,0.82-2.01,1.44c-0.53,0.62-0.94,1.34-1.2,2.17
			c-0.27,0.83-0.4,1.74-0.4,2.72v12.33h-3.59V54.19H755.65z"/>
		<path d="M791.2,74.62c-1.63,1.24-3.69,1.86-6.16,1.86c-1.75,0-3.26-0.28-4.54-0.84s-2.36-1.35-3.23-2.36
			c-0.87-1.01-1.53-2.22-1.96-3.63c-0.44-1.41-0.68-2.94-0.74-4.6c0-1.66,0.25-3.18,0.76-4.56c0.51-1.38,1.22-2.58,2.13-3.59
			c0.91-1.01,2-1.8,3.25-2.36c1.25-0.56,2.62-0.84,4.12-0.84c1.94,0,3.55,0.4,4.83,1.2c1.28,0.8,2.31,1.82,3.08,3.06
			c0.77,1.24,1.31,2.59,1.6,4.05c0.3,1.46,0.42,2.86,0.36,4.18h-16.34c-0.03,0.96,0.08,1.86,0.34,2.72
			c0.25,0.86,0.66,1.62,1.22,2.28c0.56,0.66,1.28,1.19,2.15,1.58c0.87,0.39,1.9,0.59,3.08,0.59c1.52,0,2.77-0.35,3.74-1.06
			c0.97-0.7,1.61-1.77,1.92-3.21h3.55C793.88,71.54,792.83,73.39,791.2,74.62z M790.33,60.61c-0.32-0.76-0.76-1.41-1.31-1.96
			c-0.55-0.55-1.2-0.98-1.94-1.31c-0.75-0.32-1.57-0.49-2.47-0.49c-0.93,0-1.77,0.16-2.51,0.49c-0.75,0.32-1.39,0.77-1.92,1.33
			c-0.53,0.56-0.96,1.22-1.27,1.96c-0.31,0.75-0.49,1.54-0.55,2.38h12.54C790.84,62.17,790.65,61.37,790.33,60.61z"/>
	</g>
	<g>
		<g>
			<circle class="st0" cx="1713.87" cy="62.58" r="9.82"/>
			<line class="st0" x1="1728.52" y1="77.23" x2="1720.82" y2="69.53"/>
		</g>
		<g>
			<g>
				<path d="M1554.15,73.66c-1.42,1.33-3.45,2-6.08,2c-2.69,0-4.79-0.64-6.3-1.91c-1.51-1.28-2.26-3.31-2.26-6.09V54.33h2.78v13.32
					c0,1.87,0.5,3.29,1.49,4.25c0.99,0.96,2.43,1.45,4.3,1.45c1.77,0,3.12-0.48,4.05-1.45c0.93-0.96,1.39-2.38,1.39-4.25V54.33h2.78
					v13.32C1556.28,70.33,1555.57,72.33,1554.15,73.66z"/>
				<path d="M1563.62,54.33V75.2h-2.78V54.33H1563.62z"/>
				<path d="M1582.81,73.66c-1.42,1.33-3.45,2-6.08,2c-2.69,0-4.79-0.64-6.3-1.91c-1.51-1.28-2.26-3.31-2.26-6.09V54.33h2.78v13.32
					c0,1.87,0.5,3.29,1.49,4.25c0.99,0.96,2.43,1.45,4.3,1.45c1.77,0,3.12-0.48,4.05-1.45c0.93-0.96,1.39-2.38,1.39-4.25V54.33h2.78
					v13.32C1584.95,70.33,1584.23,72.33,1582.81,73.66z"/>
				<path d="M1587.49,54.33h3.33l5.2,8.15l5.43-8.15h3.1l-6.9,10.14l7.33,10.72h-3.39l-5.61-8.62l-5.79,8.62h-3.1l7.25-10.72
					L1587.49,54.33z"/>
			</g>
		</g>
		<path class="st1" d="M1725.38,89.46h-194.34c-13.51,0-24.46-10.95-24.46-24.46v0c0-13.51,10.95-24.46,24.46-24.46h194.34
			c13.51,0,24.46,10.95,24.46,24.46v0C1749.85,78.51,1738.89,89.46,1725.38,89.46z"/>
	</g>
	<g>
		<g>
			<g>
				<path class="st2" d="M415.14,56.97c3.58,2.19,7.17,4.38,10.75,6.57c-0.1-0.79-0.2-1.57-0.3-2.36c-3.59,3.03-7.18,6.07-10.77,9.1
					c-0.62,0.52-0.54,1.58,0,2.12c0.61,0.61,1.5,0.52,2.12,0c3.59-3.03,7.18-6.07,10.77-9.1c0.76-0.64,0.46-1.89-0.3-2.36
					c-3.58-2.19-7.17-4.38-10.75-6.57C415.01,53.37,413.5,55.96,415.14,56.97L415.14,56.97z"/>
			</g>
		</g>
		<g>
			<g>
				<path class="st2" d="M320.09,73.93c5.61-4.77,12.44-7.98,19.67-9.35c3.27-0.62,7.27-1.27,10.53-0.34
					c3.46,0.99,3.4,4.83,4.78,7.56c3.47,6.87,12.46,3.16,17.9,1.57c8.03-2.34,16.16-4.31,24.37-5.9c9.33-1.81,18.75-3.11,28.22-3.93
					c1.91-0.16,1.93-3.17,0-3c-17.03,1.47-33.93,4.49-50.4,9.09c-3.67,1.03-7.37,2.53-11.16,3.07c-1.45,0.21-3.08,0.26-4.43-0.4
					c-1.46-0.72-2.06-2.19-2.53-3.65c-0.49-1.53-0.9-3.14-1.84-4.47c-0.97-1.37-2.35-2.28-3.94-2.78
					c-3.28-1.02-7.11-0.52-10.44-0.03c-8.43,1.23-16.37,4.93-22.85,10.44C316.5,73.06,318.63,75.18,320.09,73.93L320.09,73.93z"/>
			</g>
		</g>
	</g>
	<g>
		<circle class="st2" cx="1811.29" cy="65" r="4.86"/>
		<circle class="st2" cx="1836.47" cy="65" r="4.86"/>
		<circle class="st2" cx="1861.64" cy="65" r="4.86"/>
	</g>
	<g>
		<path d="M1009.37,66.24v-2.35l22.11-10.19v2.39l-19.41,8.97l19.41,8.97v2.35L1009.37,66.24z"/>
		<path d="M1038.92,53.62l5.75,19.24h0.09l5.48-19.24h3.09l5.48,19.24h0.09l5.75-19.24h2.92l-7.23,22.46h-3l-5.53-18.89h-0.09
			l-5.48,18.89h-3L1036,53.62H1038.92z"/>
		<path d="M1074.72,68.66c0.28,1.06,0.72,2.01,1.33,2.85c0.61,0.84,1.38,1.54,2.31,2.09c0.93,0.55,2.05,0.83,3.35,0.83
			c2,0,3.57-0.52,4.7-1.57c1.13-1.04,1.92-2.44,2.35-4.18h2.74c-0.58,2.55-1.65,4.53-3.2,5.92c-1.55,1.39-3.75,2.09-6.59,2.09
			c-1.77,0-3.3-0.31-4.59-0.94c-1.29-0.62-2.34-1.48-3.16-2.57c-0.81-1.09-1.41-2.35-1.81-3.79c-0.39-1.44-0.59-2.95-0.59-4.55
			c0-1.48,0.2-2.93,0.59-4.35c0.39-1.42,0.99-2.69,1.81-3.81c0.81-1.12,1.86-2.02,3.16-2.7c1.29-0.68,2.82-1.02,4.59-1.02
			c1.8,0,3.34,0.36,4.61,1.09c1.28,0.73,2.31,1.68,3.11,2.85c0.8,1.18,1.37,2.52,1.72,4.05c0.35,1.52,0.49,3.07,0.44,4.64h-17.28
			C1074.31,66.57,1074.44,67.6,1074.72,68.66z M1088.3,60.28c-0.33-0.96-0.81-1.81-1.41-2.55c-0.61-0.74-1.35-1.33-2.22-1.78
			c-0.87-0.45-1.86-0.67-2.96-0.67c-1.13,0-2.13,0.23-3,0.67c-0.87,0.45-1.61,1.04-2.22,1.78c-0.61,0.74-1.1,1.6-1.46,2.57
			c-0.36,0.97-0.6,1.97-0.72,2.98h14.54C1088.81,62.24,1088.63,61.24,1088.3,60.28z"/>
		<path d="M1100.2,45v12.88h0.09c0.29-0.81,0.7-1.52,1.24-2.13c0.54-0.61,1.15-1.12,1.85-1.55c0.7-0.42,1.45-0.73,2.26-0.94
			c0.81-0.2,1.62-0.3,2.44-0.3c1.71,0,3.2,0.32,4.46,0.96c1.26,0.64,2.31,1.5,3.16,2.59c0.84,1.09,1.46,2.35,1.87,3.79
			c0.41,1.44,0.61,2.95,0.61,4.55c0,1.6-0.2,3.11-0.61,4.55c-0.41,1.44-1.03,2.7-1.87,3.79c-0.84,1.09-1.89,1.94-3.16,2.57
			c-1.26,0.62-2.75,0.94-4.46,0.94c-1.83,0-3.46-0.42-4.9-1.26c-1.44-0.84-2.47-2.05-3.11-3.61h-0.09v4.27h-2.52V45H1100.2z
			 M1115.02,61.39c-0.28-1.15-0.71-2.17-1.31-3.07c-0.59-0.9-1.36-1.63-2.29-2.2c-0.93-0.57-2.05-0.85-3.35-0.85
			c-1.45,0-2.68,0.28-3.68,0.85c-1,0.57-1.81,1.3-2.44,2.2c-0.62,0.9-1.07,1.92-1.35,3.07c-0.28,1.15-0.41,2.3-0.41,3.46
			c0,1.16,0.14,2.31,0.41,3.46c0.28,1.15,0.72,2.17,1.35,3.07c0.62,0.9,1.44,1.63,2.44,2.2c1,0.57,2.23,0.85,3.68,0.85
			c1.31,0,2.42-0.28,3.35-0.85c0.93-0.57,1.69-1.3,2.29-2.2c0.59-0.9,1.03-1.92,1.31-3.07c0.28-1.15,0.41-2.3,0.41-3.46
			C1115.44,63.69,1115.3,62.53,1115.02,61.39z"/>
		<path d="M1135.89,45c4.73,0.12,8.29,1.44,10.69,3.98c2.39,2.54,3.59,6.39,3.59,11.56c0,5.17-1.2,9.02-3.59,11.56
			c-2.39,2.54-5.96,3.87-10.69,3.98h-10.75V45H1135.89z M1134.41,73.55c2.23,0,4.16-0.24,5.77-0.72c1.61-0.48,2.94-1.24,3.98-2.28
			c1.04-1.04,1.81-2.39,2.31-4.05c0.49-1.65,0.74-3.64,0.74-5.96c0-2.32-0.25-4.31-0.74-5.96c-0.49-1.65-1.26-3-2.31-4.05
			c-1.04-1.04-2.37-1.81-3.98-2.28c-1.61-0.48-3.53-0.72-5.77-0.72h-6.31v26.03H1134.41z"/>
		<path d="M1158.64,68.66c0.28,1.06,0.72,2.01,1.33,2.85c0.61,0.84,1.38,1.54,2.31,2.09c0.93,0.55,2.05,0.83,3.35,0.83
			c2,0,3.57-0.52,4.7-1.57c1.13-1.04,1.92-2.44,2.35-4.18h2.74c-0.58,2.55-1.65,4.53-3.2,5.92c-1.55,1.39-3.75,2.09-6.59,2.09
			c-1.77,0-3.3-0.31-4.59-0.94c-1.29-0.62-2.34-1.48-3.16-2.57c-0.81-1.09-1.41-2.35-1.81-3.79c-0.39-1.44-0.59-2.95-0.59-4.55
			c0-1.48,0.2-2.93,0.59-4.35c0.39-1.42,0.99-2.69,1.81-3.81c0.81-1.12,1.86-2.02,3.16-2.7c1.29-0.68,2.82-1.02,4.59-1.02
			c1.8,0,3.34,0.36,4.61,1.09c1.28,0.73,2.31,1.68,3.11,2.85c0.8,1.18,1.37,2.52,1.72,4.05c0.35,1.52,0.49,3.07,0.44,4.64h-17.28
			C1158.22,66.57,1158.36,67.6,1158.64,68.66z M1172.22,60.28c-0.33-0.96-0.81-1.81-1.41-2.55c-0.61-0.74-1.35-1.33-2.22-1.78
			c-0.87-0.45-1.86-0.67-2.96-0.67c-1.13,0-2.13,0.23-3,0.67c-0.87,0.45-1.61,1.04-2.22,1.78c-0.61,0.74-1.1,1.6-1.46,2.57
			c-0.36,0.97-0.6,1.97-0.72,2.98h14.54C1172.73,62.24,1172.55,61.24,1172.22,60.28z"/>
		<path d="M1194.31,57.99c-0.32-0.62-0.75-1.14-1.28-1.55c-0.54-0.41-1.15-0.7-1.85-0.89c-0.7-0.19-1.44-0.28-2.22-0.28
			c-0.61,0-1.23,0.07-1.85,0.2c-0.62,0.13-1.2,0.35-1.72,0.65c-0.52,0.3-0.94,0.7-1.26,1.2c-0.32,0.49-0.48,1.1-0.48,1.83
			c0,0.61,0.15,1.12,0.46,1.55c0.3,0.42,0.69,0.78,1.15,1.07c0.46,0.29,0.97,0.53,1.52,0.72c0.55,0.19,1.06,0.34,1.52,0.46
			l3.66,0.83c0.78,0.12,1.56,0.33,2.33,0.63c0.77,0.3,1.45,0.7,2.05,1.2c0.59,0.49,1.08,1.1,1.46,1.83
			c0.38,0.73,0.57,1.58,0.57,2.57c0,1.22-0.28,2.26-0.83,3.11c-0.55,0.86-1.26,1.55-2.11,2.09c-0.86,0.54-1.82,0.92-2.89,1.15
			c-1.07,0.23-2.13,0.35-3.18,0.35c-2.64,0-4.78-0.62-6.42-1.87c-1.64-1.25-2.58-3.25-2.81-6.01h2.74c0.12,1.86,0.79,3.26,2.02,4.2
			c1.23,0.94,2.76,1.41,4.59,1.41c0.67,0,1.36-0.07,2.07-0.22c0.71-0.14,1.37-0.39,1.98-0.74c0.61-0.35,1.11-0.79,1.5-1.33
			c0.39-0.54,0.59-1.2,0.59-1.98c0-0.67-0.14-1.23-0.41-1.68c-0.28-0.45-0.65-0.83-1.11-1.13c-0.47-0.3-0.99-0.56-1.59-0.76
			c-0.6-0.2-1.2-0.38-1.81-0.52l-3.53-0.78c-0.9-0.23-1.73-0.5-2.48-0.81c-0.75-0.3-1.41-0.68-1.98-1.13
			c-0.57-0.45-1.01-1-1.33-1.65c-0.32-0.65-0.48-1.46-0.48-2.42c0-1.13,0.25-2.1,0.76-2.92c0.51-0.81,1.17-1.47,1.98-1.96
			c0.81-0.49,1.72-0.86,2.72-1.09c1-0.23,2-0.35,2.98-0.35c1.13,0,2.18,0.15,3.16,0.44c0.97,0.29,1.83,0.74,2.57,1.35
			c0.74,0.61,1.33,1.36,1.76,2.26c0.43,0.9,0.68,1.96,0.74,3.18h-2.74C1194.8,59.35,1194.62,58.62,1194.31,57.99z"/>
		<path d="M1207.28,45v4.4h-2.74V45H1207.28z M1207.28,53.62v22.46h-2.74V53.62H1207.28z"/>
		<path d="M1233.15,78.73c-0.36,1.33-0.94,2.47-1.72,3.39c-0.78,0.93-1.81,1.64-3.07,2.13c-1.26,0.49-2.81,0.74-4.64,0.74
			c-1.13,0-2.23-0.13-3.31-0.39c-1.07-0.26-2.04-0.67-2.89-1.22c-0.86-0.55-1.57-1.26-2.13-2.11c-0.57-0.86-0.89-1.88-0.98-3.07
			h2.74c0.14,0.84,0.43,1.55,0.85,2.11c0.42,0.57,0.93,1.02,1.52,1.37c0.59,0.35,1.26,0.6,1.98,0.76c0.72,0.16,1.47,0.24,2.22,0.24
			c2.55,0,4.4-0.73,5.53-2.18c1.13-1.45,1.7-3.54,1.7-6.27V71.2h-0.09c-0.64,1.39-1.58,2.51-2.81,3.35
			c-1.23,0.84-2.68,1.26-4.33,1.26c-1.8,0-3.34-0.3-4.61-0.89c-1.28-0.59-2.33-1.41-3.16-2.46s-1.43-2.27-1.81-3.68
			c-0.38-1.41-0.57-2.91-0.57-4.51c0-1.54,0.22-3,0.67-4.37c0.45-1.38,1.1-2.58,1.96-3.61c0.86-1.03,1.92-1.84,3.18-2.44
			c1.26-0.59,2.71-0.89,4.33-0.89c0.84,0,1.63,0.12,2.37,0.35c0.74,0.23,1.41,0.56,2.02,0.98c0.61,0.42,1.15,0.91,1.63,1.46
			c0.48,0.55,0.85,1.13,1.11,1.74h0.09v-3.87h2.74v20.63C1233.7,75.9,1233.51,77.4,1233.15,78.73z M1226.86,72.75
			c0.9-0.51,1.65-1.17,2.26-2c0.61-0.83,1.07-1.78,1.37-2.85c0.3-1.07,0.46-2.18,0.46-3.31c0-1.1-0.13-2.2-0.39-3.31
			c-0.26-1.1-0.68-2.1-1.26-3c-0.58-0.9-1.33-1.62-2.24-2.18c-0.91-0.55-2.02-0.83-3.33-0.83c-1.31,0-2.42,0.27-3.35,0.81
			c-0.93,0.54-1.7,1.24-2.31,2.11c-0.61,0.87-1.05,1.86-1.33,2.98c-0.28,1.12-0.41,2.26-0.41,3.42c0,1.13,0.15,2.23,0.44,3.31
			c0.29,1.07,0.74,2.02,1.35,2.85c0.61,0.83,1.38,1.49,2.31,2c0.93,0.51,2.03,0.76,3.31,0.76
			C1224.92,73.51,1225.96,73.26,1226.86,72.75z"/>
		<path d="M1243.79,53.62v3.87h0.09c0.52-1.36,1.45-2.46,2.79-3.29c1.33-0.83,2.8-1.24,4.4-1.24c1.57,0,2.88,0.2,3.94,0.61
			c1.06,0.41,1.91,0.98,2.55,1.72c0.64,0.74,1.09,1.65,1.35,2.72c0.26,1.07,0.39,2.28,0.39,3.61v14.45h-2.74V62.06
			c0-0.96-0.09-1.85-0.26-2.68c-0.17-0.83-0.48-1.55-0.91-2.15c-0.44-0.61-1.02-1.09-1.76-1.44c-0.74-0.35-1.66-0.52-2.76-0.52
			c-1.1,0-2.08,0.2-2.94,0.59c-0.86,0.39-1.58,0.93-2.18,1.61c-0.59,0.68-1.06,1.49-1.39,2.44c-0.33,0.94-0.52,1.97-0.54,3.07v13.1
			h-2.74V53.62H1243.79z"/>
		<path d="M1266.03,56.1v-2.39l22.11,10.19v2.35l-22.11,10.14v-2.35l19.41-8.97L1266.03,56.1z"/>
	</g>
	<g>
		<line class="st3" x1="951.3" y1="65" x2="851.3" y2="65"/>
		<path class="st3" d="M942.28,54l10.15,10.15c0.47,0.47,0.47,1.22,0,1.69L942.28,76"/>
	</g>
	<g>
		<path class="st3" d="M1409.81,57l7.38,7.38c0.34,0.34,0.34,0.89,0,1.23l-7.38,7.38"/>
		<path class="st3" d="M1344.73,57l7.38,7.38c0.34,0.34,0.34,0.89,0,1.23l-7.38,7.38"/>
		<path class="st3" d="M1377.27,57l7.38,7.38c0.34,0.34,0.34,0.89,0,1.23l-7.38,7.38"/>
		<path class="st3" d="M1442.36,57l7.38,7.38c0.34,0.34,0.34,0.89,0,1.23l-7.38,7.38"/>
	</g>
</g>
</svg>
