<?xml version="1.0" encoding="utf-8"?>
<!-- Generator: Adobe Illustrator 24.0.3, SVG Export Plug-In . SVG Version: 6.00 Build 0)  -->
<svg version="1.1" id="Layer_1" xmlns="http://www.w3.org/2000/svg" xmlns:xlink="http://www.w3.org/1999/xlink" x="0px" y="0px"
	 viewBox="0 0 1750 410" style="enable-background:new 0 0 1750 410;" xml:space="preserve">
<style type="text/css">
	.st0{clip-path:url(#SVGID_2_);fill:none;stroke:#CCCCCC;stroke-width:8;stroke-miterlimit:10;}
	.st1{clip-path:url(#SVGID_4_);fill:none;stroke:#CCCCCC;stroke-width:8;stroke-miterlimit:10;}
	.st2{clip-path:url(#SVGID_6_);fill:none;stroke:#CCCCCC;stroke-width:8;stroke-miterlimit:10;}
	.st3{fill:none;stroke:#000000;stroke-width:4;stroke-linecap:round;stroke-linejoin:round;stroke-miterlimit:10;}
	.st4{clip-path:url(#SVGID_8_);fill:none;stroke:#CCCCCC;stroke-width:8;stroke-miterlimit:10;}
	.st5{clip-path:url(#SVGID_10_);fill:none;stroke:#CCCCCC;stroke-width:8;stroke-miterlimit:10;}
	.st6{font-family:'SFProDisplay-Medium';}
	.st7{font-size:42px;}
	.st8{fill:#202020;}
	.st9{font-family:'Baskerville';}
	.st10{font-size:105px;}
	.st11{letter-spacing:1;}
	.st12{clip-path:url(#SVGID_12_);}
	.st13{fill:url(#SVGID_13_);}
	.st14{clip-path:url(#SVGID_15_);}
	.st15{fill:url(#SVGID_16_);}
	.st16{clip-path:url(#SVGID_18_);}
	.st17{fill:url(#SVGID_19_);}
	.st18{clip-path:url(#SVGID_21_);}
	.st19{fill:url(#SVGID_22_);}
	.st20{clip-path:url(#SVGID_24_);}
	.st21{fill:url(#SVGID_25_);}
	.st22{clip-path:url(#SVGID_27_);fill:none;stroke:#E6E6E6;stroke-width:10;stroke-miterlimit:10;}
	.st23{clip-path:url(#SVGID_29_);fill:none;stroke:#E6E6E6;stroke-width:10;stroke-miterlimit:10;}
	.st24{clip-path:url(#SVGID_31_);fill:none;stroke:#E6E6E6;stroke-width:10;stroke-miterlimit:10;}
	.st25{clip-path:url(#SVGID_33_);fill:none;stroke:#E6E6E6;stroke-width:10;stroke-miterlimit:10;}
	.st26{clip-path:url(#SVGID_35_);fill:none;stroke:#E6E6E6;stroke-width:10;stroke-miterlimit:10;}
</style>
<g>
	<g>
		<path d="M832.85,199.21v-3.98l20.33-13.59v5.07l-15.72,10.4v0.22l15.72,10.4v5.07L832.85,199.21z"/>
		<path d="M882.2,176.81h4.68l-17.73,46.98h-4.68L882.2,176.81z"/>
		<path d="M898.17,207.74l15.72-10.4v-0.22l-15.72-10.4v-5.07l20.33,13.59v3.98l-20.33,13.59V207.74z"/>
	</g>
</g>
<g>
	<text transform="matrix(1 0 0 1 1463.9067 210.8599)" class="st6 st7">and more...</text>
</g>
<g>
	<g>
		<g>
			<g>
				<g>
					<path class="st8" d="M269.19,238.67c0.04,0.18,0.17,0.36,0.25,0.54C268.98,239,268.8,238.84,269.19,238.67z"/>
					<path class="st8" d="M273.66,244.06c-0.68-0.55-1.56-1.28-2.34-2.12c-0.39-0.41-0.75-0.88-1.08-1.33
						c-0.34-0.44-0.62-0.91-0.81-1.4c0.37,0.17,0.93,0.36,1.55,0.61c0.6,0.27,1.23,0.61,1.77,1.01
						C273.85,241.63,274.55,242.69,273.66,244.06z"/>
					<path class="st8" d="M272.01,234.22l1.36,2.2C271.71,236.29,272.85,235.23,272.01,234.22z"/>
					<polygon class="st8" points="270.91,237.18 270.11,238.06 269.8,236.4 					"/>
					<path class="st8" d="M164.63,231.23c-0.68,0.43-1.35,0.79-2.16,0.91L164.63,231.23z"/>
					<path class="st8" d="M173.41,224.36c0.5-0.49,0.78-0.82,1-1.1C174.34,223.57,174.04,223.84,173.41,224.36z"/>
					<path class="st8" d="M164.24,236.11l-0.07-0.91C164.32,235.44,164.36,235.75,164.24,236.11z"/>
					<path class="st8" d="M221.58,236.94c1.04,0.55,2,1.11,2.7,1.45C223.06,239.71,222.36,237.88,221.58,236.94z"/>
					<path class="st8" d="M203.06,209.94l-0.72-0.68C202.85,209.2,203.29,209.26,203.06,209.94z"/>
					<path class="st8" d="M194.46,221.12c-0.72,0.08-1.24,0.12-1.6,0.12c0.12-0.04,0.24-0.08,0.36-0.11L194.46,221.12z"/>
					<path class="st8" d="M166.14,239.14c0.04-0.01,0.07,0.01,0.11,0c-0.14,0.37-0.3,0.74-0.42,1.12
						C165.58,239.91,165.7,239.55,166.14,239.14z"/>
					<path class="st8" d="M208,201.9c0.65-0.26,1.42-0.48,2.39-0.59C209.66,202.17,208.63,202.3,208,201.9z"/>
					<path class="st8" d="M174.47,223.14c0.02-0.01,0.03,0,0.06-0.02c-0.03,0.04-0.09,0.1-0.13,0.14
						C174.42,223.22,174.46,223.18,174.47,223.14z"/>
					<path class="st8" d="M191.56,223.73c0.32-0.21,0.56-0.39,0.96-0.61C192.76,223.18,192.27,223.43,191.56,223.73z"/>
					<path class="st8" d="M221.58,236.94c-0.3-0.16-0.59-0.32-0.89-0.47C221.01,236.39,221.29,236.6,221.58,236.94z"/>
					<path class="st8" d="M263.11,237.21c-0.59-0.35-0.43-0.99-0.2-1.66C263.1,236,263.19,236.53,263.11,237.21z"/>
					<path class="st8" d="M149.98,210.19l0.14,0.22C150.01,210.35,149.98,210.27,149.98,210.19z"/>
					<path class="st8" d="M145.54,190.4c0.22-0.04,0.46-0.07,0.78-0.06C146.52,190.53,146.1,190.52,145.54,190.4z"/>
					<path class="st8" d="M146.67,157.02c-0.83,1.17-2.11,1.39-3.48,1.57c-1.36,0.15-2.84,0.14-3.84,0.78l1.3,0.54
						c-0.81,0.16-1.63,0.32-2.47,0.51l1.02,1.36c-0.89,0.35-1.7,0.98-2.47,1.63c-0.77,0.65-1.5,1.32-2.16,2
						c-0.67,0.66-1.32,1.22-1.99,1.58c-0.67,0.35-1.34,0.57-2.1,0.41l2.35,1.43c-0.71,0.28-1.44,0.59-2.17,0.91l-1.1,0.5l-1.07,0.59
						c0.97-0.36,1.96-0.62,2.95-0.84c-0.66,0.96-1.43,2.06-2.29,3.12c-0.89,1.04-1.73,2.21-2.55,3.26c-0.85,1.03-1.51,2.08-2.05,2.9
						c-0.53,0.82-0.9,1.43-1,1.69l1.12-0.09c0.17,0.92-0.59,1.35-1.16,2.1c0.55-0.08,1.09-0.15,1.63-0.2
						c-0.61,1.75-0.87,3.26-0.8,4.64c0.03,1.37,0.17,2.58,0.46,3.78c0.49,2.41,0.94,4.71,0.81,8.53c0.75,1.93,0.26-1.2,1.11-1.34
						c1.38,0.85,0.73,3.49,0.25,4.22c2.11-1.17,0.87-3.8,3.15-2.08c-0.41,0.88,0.07,0.5,0.66,0.23c0.3-0.13,0.62-0.23,0.88-0.13
						c0.25,0.1,0.43,0.38,0.52,1c-0.88,0.58-1.75,1.19-2.61,1.83c0.97,1.25,2.32-0.43,2.79,1.77c-0.12,1.39-1.22,1.03-2.16,0.73
						c-0.48-0.14-0.87-0.28-1.11-0.09c-0.25,0.2-0.28,0.68,0.06,1.74c0.55,0.97,2.57,1.37,4.54,1.79c0.99,0.22,1.94,0.48,2.66,0.93
						c0.72,0.45,1.21,1.11,1.39,2.06c1.54,0.87,2.28-0.15,2.88-0.84c0.6-0.69,1.04-1.11,1.84,0.77c0.06-1.1,0.14-2.17,0.24-3.2
						c1.08,0.06,2.13-1.1,2.49,0.59c-0.34,0.55-0.68,1.25-0.87,1.94c-0.17,0.66-0.19,1.3,0.04,1.71c-0.23-2.14,0.99-1.99,2.23-1.96
						c1.26,0.06,2.53-0.01,2.76-2.12l0.62,0.96c0-0.18,0.21-0.39,0.44-0.48l1.08,1.03c-0.07-1.16-1.16-2.98,1.21-3.59l1.67,1.21
						c0.96-1.5,1.93-1.39,2.89-2.37l-0.36-3.07c-0.11-0.99,0-1.95,0-2.86c-0.76,0.68-0.92,1.62-1.91,1.98
						c-0.74-0.3-0.52-0.77-0.32-1.19c0.2-0.42,0.41-0.77-0.47-0.91c-0.31,0.36-0.62,0.73-0.92,1.11c0.39-0.34,0.46-0.56,0.73-0.43
						c0.92-0.1,0.15,0.58-0.56,1.03c-1.68,0.52-1.28-1.18-0.4-2c-0.49-0.59-1.13-0.32-1.85,0.08c-0.7,0.41-1.37,0.99-1.67,0.94
						c1.13-1.01,0.88-1.54,0.42-2.06c-0.26-0.26-0.47-0.5-0.6-0.76c-0.12-0.26-0.14-0.54,0.11-0.84c-0.53,0.35-1.06,0.72-1.59,1.1
						c-0.62-0.1-1-0.3-1.22-0.53c-0.11-0.12-0.18-0.25-0.21-0.38c-0.02-0.13,0.01-0.27,0.05-0.4c0.17-0.54,0.7-1.07,0.95-1.42
						l-1.44,0.5c-0.01-0.21-0.1-0.38-0.24-0.55c-0.11-0.16-0.28-0.3-0.46-0.45c-0.38-0.28-0.84-0.54-1.16-0.82
						c-0.67-0.55-0.49-1.21,2.19-1.63l-1.01,0.11c-0.53-0.63-1.4-1.85,0.24-2.16c-0.62-0.14-1.4-0.41-1.49-0.72
						c1.07,0.05,1.26-0.14,1.17-0.51c-0.1-0.37-0.46-0.93-0.41-1.47c-0.77,0.44-3.25-0.67-4.11,0c-0.54-0.68-0.58-1.11-0.31-1.32
						c0.26-0.23,0.77-0.27,1.35-0.25c0.58,0.02,1.23,0.09,1.76,0.09c0.52-0.01,0.95-0.09,1.12-0.4c-0.79-1.41-1.75,0.01-2.72-0.13
						c0.53-0.45,0.7-1.05,0.61-1.83c-0.03-0.38-0.13-0.81-0.2-1.24c-0.06-0.42-0.12-0.85-0.16-1.27c-0.21-1.69,0.3-3.09,2.84-1.95
						c0.18,0.68,0.38,1.34,0.59,1.97c1.53-0.01,1.81-0.37,1.38-0.64c-0.08,0.35-0.51,0.09-0.96-0.15c-0.06-1.06,0.45-1.59,1.05-1.9
						c0.6-0.32,1.46-0.27,2.29-0.19c0.83,0.08,1.66,0.24,2.42,0.27c0.76,0.03,1.34-0.19,1.83-0.76c-0.71-0.76-1.26-0.82-1.73-1.52
						c0.34-0.81,1.34,0.13,2.28,0.94c0.48,0.4,0.94,0.77,1.33,0.86c0.41,0.11,0.74-0.04,0.99-0.74l-0.89-0.87
						c0.36-0.95,1.54,0.35,1.59,0.7c-0.93-2.12,0.22-2.5,1.47-3.11c0.65-0.26,1.32-0.58,1.85-1.23c0.54-0.6,0.95-1.54,1.05-3.1
						c0.87,1.05,2.19,2.02,3.32,2.46c1.14,0.5,2.14,0.59,2.59-0.15c0.65-1.37,0.34-2.14-0.16-2.86c-0.49-0.69-1.15-1.35-0.94-2.65
						c0.32-0.03,0.62,0.1,0.9,0.29c0.28,0.22,0.55,0.5,0.84,0.76c0.57,0.53,1.17,0.9,2.1,0.5c-0.05,1.25-0.96,2.54-1.38,3.71
						c-0.43,1.16-0.4,2.18,0.96,2.9l0.45-1.34c-0.31,0.14-0.73,0.65-1.14,0.34c-0.85-1.5,0.53-1.72,0.78-2.4
						c1.1,0.36,2.18,0.63,3.19,1.1c-0.1,1.36-0.58,1.81-1.04,2c-0.46,0.19-0.96,0.2-1.08,0.53c0.29-0.04,0.61-0.17,0.93-0.28
						c0.32-0.11,0.65-0.25,0.99-0.41c0.36-0.17,0.72-0.34,1.08-0.51c0.36-0.15,0.73-0.29,1.1-0.41c0.75-0.25,1.52-0.43,2.16-0.31
						c0.65,0.12,1.26,0.34,1.58,1.04l0.2-1.03c0.88,1.71,1.8,0.69,2.61,0.06c0.77-0.68,1.5-1.09,1.41,1.37
						c0.72,0.08,1.04-0.56,1.39-1.13c0.34-0.56,0.72-1.03,1.68-0.44c0.52,0.37-0.42,0.95-0.71,1.16c0.38,0.56,0.71,0.78,1.01,0.85
						c0.31,0.06,0.59-0.05,0.84-0.13c0.5-0.17,0.91-0.17,0.89,1.58c0.56-0.79,1.11-1.6,1.64-2.42c0.49,1.82,0.14,4.19-0.26,5.99
						c-0.37,1.84-0.81,3.11,0.1,3.77c2.05-0.89,1.32-2.07,2.48-3.4c-0.96,2.43-0.53,3.92-0.16,5.67c0.38,1.68,0.66,3.6-0.61,4.87
						c-0.89-0.54-2.01-0.33-3.08-0.32c-1.08,0.04-2.07-0.1-2.78-0.81c1.45,0,1.73-0.25,1.66-0.54c-0.05-0.3-0.43-0.62-0.28-0.95
						c-3.1,0.54-2.38,1.28-1.75,2.6c0.64,1.24,1.17,2.79-1.47,2.13c0.67,0.34,1.33,0.68,1.99,1.04c-0.46,0.29-2.35,0.6-2.78-0.26
						c0.15,0.99,0.21,2.06,0.22,3.17c0.98-0.12,2.59-0.33,3.7-0.76c1.11-0.42,1.72-1.06,0.69-1.77c1.25-0.04,1.53,0.36,1.83,0.83
						c0.3,0.46,0.61,0.98,2.03,1.02c-2.12,0.47-1.88,0.88-1.33,1.51c0.56,0.62,1.43,1.42,0.55,2.41c-1.22-1.18-2.47-1.06-3.56-0.82
						c-1.09,0.25-2.07,0.66-2.73,0.26c0.19,0.94-1.94,1.72-3.2,1.73c-0.47,0.5-0.53,1.74-0.8,3.05c-0.07,0.33-0.15,0.66-0.24,0.98
						c-0.12,0.36-0.36,0.86-0.57,1.25c-0.41,0.8-1.06,1.64-1.81,2.27c0.84-0.36,1.87-0.83,2.83-0.99c0.95-0.16,1.89-0.06,2.73,0.52
						c-0.44,0.15-0.83,0.35-1.13,0.58c-0.32,0.25-0.55,0.55-0.66,0.85c-0.22,0.62,0.06,1.28,1.1,1.86c1.71-0.59,2.24-1.02,2.24-1.52
						c0-0.48-0.53-1.01-1.1-1.55c-0.57-0.54-1.18-1.12-1.34-1.71c-0.21-0.52-0.01-0.99,1.06-1.38c2.76,0.65,3.88,0.12,5.51-1.16
						c0.92,1.53,1.69,1.52,3.14,2.78c-6.18-0.7-3.64,4.94-8.1,6.45c-1.21,0.3-2.59-0.03-3.98-0.09c-1.4-0.06-2.86,0.2-4.38,1.88
						c0.05-1.1,0.15-2.28,0.3-3.52c-0.78,3.93-2.28,0.31-5.07,3.31c0.95-0.31,1.89-0.59,2.81-0.85c-0.83,1.87-1.59,2.42-3.79,3.34
						c1.44-0.45,2.83-0.84,4.21-1.18c-0.22,0.97-0.85,2.61-2.83,2.58c0.67,0.27,1.27,0.36,1.84,0.38c-0.66,0.15-1.31,0.59-1.81,1.64
						c0.75-0.62,0.8-1.06,1.82-1.07c-1.58,1.95-0.75,2.13,0.22,2.09c0.98-0.03,2.11-0.22,1.31,0.84c1-0.41,1.65,0.09,1.66,0.72
						c-2.74,0.32-4.9,1.59-6.71,3.12c-1.84,1.53-3.22,3.22-4.85,4.27l0.08-0.04c-0.99,1.27-1.89,2.57-2.66,3.88
						c0.47-0.8,1.75-0.58,2.12,0.12l-0.01-0.14c0.61,0.67,5.43-3.16,3.51,0.21c-0.53,0.69-1.02,1.4-1.47,2.12
						c0.16-0.35,0.83-0.4,1.16-0.42c-0.43,0.71-0.79,1.44-1.12,2.18c2.06,0.22,1.76,1.67,1.7,3.31c-0.08,1.61,0,3.45,2.07,3.77
						c-1.01-0.33-1.74-1.55-0.2-1.94c0.84,0.12,1.14,0.98,0.99,1.67l0.27-0.41c0.43,0.86,0.89,1.7,1.42,2.47
						c0.51,0.81,1.11,1.47,1.69,2.27c0.33-0.7-0.24-1.39-0.56-1.97c-0.33-0.57-0.35-1.14,0.95-1.44c1.18-0.61,1.72-0.41,2.09,0.04
						c0.36,0.47,0.58,1.09,1.02,1.27c-0.97,0.97-3.65,1.24-2.19,2.33c0.67-0.38,3.34-0.94,3.09-1.9c0.26,0.4,0.62,0.67,1.01,1.02
						c0.39,0.32,0.8,0.72,1.23,1.02c0.85,0.64,1.61,1.48,2,2.53c0.92-0.49,0.23-1.02,0.01-1.18l-0.36,0.33
						c-0.89-0.74,1.68-2.95-1.52-1.95c1.18-1.8,2.19-2.03,3.2-1.86c0.49,0.1,1.05,0.22,1.6,0.34c0.56,0.09,1.13,0.19,1.73-0.02
						c-0.65-0.83-1.2-1.67-1.7-2.45c4.24-2.77,6.76-3.44,9.42-3.35c1.32,0.01,2.67,0.2,4.1,0.21c1.42,0.06,2.91-0.12,4.28-0.57
						c-1.57,1.84-2.96,1.1-2.93,4.3c1.91,0.12,2.83,0.05,3.71-0.19c0.88-0.23,1.76-0.56,3.84-1.01l-0.37-0.03
						c0.83-1.16,2.05-1.24,3.23-1.46c0.28-0.05,0.61-0.13,0.81-0.19c0.19-0.06,0.36-0.14,0.51-0.26c0.29-0.25,0.47-0.66,0.46-1.39
						c-0.61-0.67-0.98-0.1-1.35,0.23c-0.16,0.16-0.43,0.3-0.69,0.19c-0.26-0.11-0.53-0.47-0.82-1.27l1.94-0.6l1.8-0.55
						c-0.91-0.73-1.81-0.46-2.67,0.01l-0.66,0.38c-0.26,0.14-0.52,0.29-0.77,0.43c-0.51,0.27-1,0.48-1.44,0.52
						c-1.15,0.65,2.51-0.47,2.72,1.83c-4.46,1.62-6.12-0.13-8.02-2.81c-0.57-1.04-0.18-1.82,0.34-2.35
						c0.53-0.53,1.24-0.82,1.53-0.94c1.27,1.4,3.03,2.1,4.9,2.07c1.74,0.03,3.26-0.55,4.62-1.9l0.91-3.08
						c2.42,1.64,3.26,6.18,5.9,4.69l-1.44-1.48c0.4-0.89,0.74-1.26,1.05-1.35c-1.68-0.93-3.55-1.95-5.19-2.9
						c0.18-2.15,1.58-2.14,3.25-1.55c1.67,0.57,3.57,1.74,4.91,1.76c-0.27-0.44-1.17-0.33-1.73-1.22c1.73-1.02,3.94-0.63,5.98,0.04
						c1.03,0.36,2.01,0.77,2.92,1.1c0.91,0.37,1.73,0.64,2.44,0.68c0.93-1.9-2.5-0.74-2.39-3.35c0.86,0.36,1.62-0.09,2.28-0.34
						c0.66-0.25,1.22-0.26,1.56,0.89c-1.09-3.28,3.58-0.65,0.22-3.45c1.41-0.57,2.94-0.69,4.47-0.66c0.77,0.01,1.54,0.17,2.31,0.31
						c0.77,0.16,1.53,0.33,2.28,0.62c0.75,0.27,1.49,0.57,2.21,0.89c0.72,0.32,1.42,0.74,2.1,1.11c1.37,0.72,2.63,1.66,3.83,2.44
						c0.01-1.04,0.22-1.86,0.63-2.47c-0.97-0.2-2.07-0.76-3.08-1.48c-1.01-0.7-1.9-1.69-2.33-2.95c0.8-0.75,1.56-0.04,2.12,0.73
						c0.57,0.77,0.96,1.6,1.25,1.16c-0.5-0.98-1.89-1.15-1.64-2.84c1.07-0.77,1.79-0.5,2.33,0.14c0.54,0.62,0.93,1.49,1.51,1.8
						l-0.87,0.67c0.82,0.79,1.23,1.57,1.48,2.3c0.24,0.75,0.29,1.45,0.39,2.04c0.18,1.2,0.47,1.96,2.38,2.15
						c2.01-1.38,0.62-1.58,1.49-3.97c0.26,0.65,1.35,0.63,2.38,0.82c1.05,0.16,1.98,0.64,1.8,2.08l-1.12-0.46
						c-0.38-0.14-0.77-0.26-1.15-0.38c0.64,0.64,1.28,1.17,1.85,1.7c0.57,0.52,1.07,1.03,1.36,1.68c0.16-0.53,0.35-1.07,0.14-1.43
						c0.81,1.29,2.3,2.08,1.97,3.84l1.78-2.11c-1.34,0.6-3.37-0.47-3.03-1.94c1.4-2.03,2.77,0.61,3.77,1
						c-0.91-0.79-1.46-1.62-1.86-2.43c-0.41-0.79-0.7-1.53-0.99-2.22c-0.61-1.34-1.31-2.51-3.69-2.51l0.33,1.05
						c-0.82,0.21-1.49,0.12-2.08-0.17c-0.59-0.29-1.11-0.75-1.64-1.22c-1.04-0.94-2.02-2.21-3.2-2.45c0.8-0.37,1.22-1.29,1.03-1.81
						c-1.48,0.18-2.86,0.14-4.21,0c-1.37-0.05-2.71-0.25-4.08-0.43c-1.37-0.1-2.77-0.28-4.2-0.26c-1.42,0.06-2.9,0.1-4.37,0.54
						c-0.63-0.86-1.29-1.73-1.98-2.59l0.03,2.05c-2.84,1.15-0.89-2.82-2.8-2.42c0.74-0.09,0.64,0.26,0.84,0.75
						c-3.76-1.91-1.69,2.08-3.64,1.74c1.21,1.97,3.71,0.31,3.22,3.27c-0.87-0.49-1.84-0.73-2.8-0.84c-0.98-0.1-1.96-0.2-2.86-0.29
						c-1.8-0.2-3.39-0.81-4.21-3.12c-2.8,1.71-6.11,2.41-9.37,2.91c-3.23,0.5-6.42,0.75-8.73,1.42c-0.3,1.04,0.62,0.48,0.63,1.22
						c-0.35-0.25-0.69-0.37-1.03-0.39c-0.17-0.01-0.34,0-0.5,0.03c-0.17,0.03-0.34,0.08-0.38,0.1c-0.29,0.13-0.53,0.5-0.78,0.88
						c-0.49,0.76-0.87,1.52-1.06,0.23c-0.25,0.84-0.32,2.88-0.42,3.64c-0.74-1.03-1.35-1.44-1.99-1.6c0.13,0.21,0.27,0.41,0.43,0.6
						l-0.1,0.4c-0.23-0.27-0.43-0.56-0.61-0.85l0.06-0.19c-0.76-0.12-1.63,0.11-2.34-0.01c-0.69-0.13-1.22-0.64-0.63-2.35
						c-0.37,1.04-0.95,2.02-1.61,2.93c-0.65,0.91-1.35,1.71-1.51,2.33c2.26-5.13,1.6-5.2-0.11-5c-1.11,1.08-2.12,1.9-2.84,2.8
						c0.44-0.79,0.94-1.57,1.51-2.35l-1.34,1.29c-1.25,0.18-0.55-1.45,0.52-2.81c1.04-1.39,2.18-2.31,0.66-1.87
						c-0.87,0.84-2.25,1.64-4.52,2.91c0.2-1.24,0.83-2.47,3.26-4.12c-0.41,0.17-0.86,0.35-1.33,0.51c-0.37-0.14,1.34-0.96,2.2-1.38
						l-2.94,0.72c0.87-0.49,1.04-0.8,1.35-1.17c0.3-0.36,0.76-0.77,2.01-1.17c-1.37,0.02-0.39-0.49,0.71-0.9
						c1.12-0.43,2.32-0.68,1.99-1.04c0.34-0.06-0.37-0.06-1.12-0.07c-0.75-0.02-1.53-0.08-1.16-0.5c2.41,0.37,2.57,0.2,2.77,0.02
						c0.2-0.17,0.46-0.34,2.78,0.46c-0.49-0.3-0.95-0.65-1.38-1.05c0.75,0.3,1.48,0.62,2.21,0.96c-1.95-1.08-1.25-1.24-0.36-1
						c0.19,0.11,0.56-0.02,0.86-0.07c0.31-0.07,0.62-0.15,0.9-0.28c0.56-0.25,0.99-0.69,1.06-1.48c-0.52-0.14-0.81,0.03-1.03-0.27
						c0.89-0.49,2.25-2.23,2.45-0.16c0.78-1.26,4.37-5.68,0.98-4.65c1.29,0.49-0.8,1.93-1.69,2.47c-1.7-1.11,0.13-2.75-1.56-4.31
						c0.23,0.04,0.69-0.06,1.09-0.11l-0.97-0.87c1.67-0.77,2.46-2.11,3.26-3.35c0.8-1.25,1.59-2.44,3.37-3.14
						c-0.55-0.35-0.82-1.07-0.34-2.14l2.46,0.68l0.5-1.91c0.15-0.65,0.29-1.33,0.43-2c-1.35,0.37-2.69,0.7-4.02,0.97
						c0.12-2.07,1.28-3.63,2.5-5.38c0.61-0.86,1.22-1.78,1.73-2.74c0.47-0.99,0.87-2,0.94-3.11c-2.16-0.43-1.87-2.41-1.95-4.92
						c-0.01-1.25-0.16-2.59-0.59-3.78c-0.48-1.15-1.21-2.17-2.46-2.58c0.12,1.13,0.12,2.31,0.12,3.42c-0.76-3.38-2.2-4.89-3.41-6.27
						c-1.29-1.32-2.42-2.56-3.73-5.1c1.06,0.63,1.8,1.22,2.44,1.78c0.64,0.53,1.16,1.05,1.78,1.61c0.64,0.58,1.35,1.21,2.28,2.04
						c0.49,0.42,1.03,0.93,1.66,1.53c0.64,0.6,1.34,1.31,2.13,2.19c-2.37-3.78-3.75-7.05-5.43-10.03c-1.68-2.94-3.65-5.49-6.95-6.59
						c-0.24,1.07,0.45,2.58-1.34,2.39c0.22-1.23-1.05-2.17-2.06-2.93c-1-0.79-1.84-1.3-0.72-2.15c-2.27-0.36-3.72,1.57-4.91,1.3
						c-0.72-0.92-1.48-1.86-2.28-2.79c-0.8-0.96-1.67-1.76-2.56-2.64l0.03,0.55c-0.79,0.12-1.54,0.17-2.26,0.23
						c-0.72,0.07-1.41,0.1-2.09,0.09c-0.67-0.01-1.32-0.08-1.96-0.13c-0.64-0.05-1.26-0.13-1.87-0.24
						c-0.62-0.11-1.23-0.26-1.83-0.41c-0.6-0.13-1.2-0.28-1.81-0.45s-1.21-0.35-1.82-0.55l-1.83-0.51
						c-1.23-0.35-2.49-0.72-3.76-0.95c-1.27-0.25-2.58-0.49-3.87-0.5c-2.6-0.12-5.25,0.31-7.65,1.68l0.58,1.24
						c-1.02-0.38-2.08-0.75-3.16-1.1c2.44,0.62-0.33,1.88-0.03,3.09c-1.2-0.06-2.43-0.11-3.68-0.12c-1.24,0.04-2.5,0.1-3.79,0.19
						C143.84,155.98,145.46,158.2,146.67,157.02z M207.39,199.47l-0.64,1.42c0.03,0.34-0.04,0.65-0.42,0.88
						c0.15-0.28,0.28-0.58,0.42-0.88C206.67,200.03,205.82,199.19,207.39,199.47z M221.74,223.54c0.88,0.98-0.72,0.57-1.05,0.86
						c0.66-0.09,1.31-0.18,1.99-0.24C222.77,223.43,222.07,223.63,221.74,223.54z M191.59,194.87c-0.5-0.34-1-0.68-1.5-1
						c0.49-0.1,0.99-0.21,1.48-0.33L191.59,194.87z M190.86,181.76c-0.12,0.54-0.21,1.05-0.39,1.55l-0.35,0.03
						c0.17-0.49,0.27-0.98,0.4-1.52L190.86,181.76z M184.91,159.12c0.09,0.15,0.18,0.27,0.25,0.48
						C185.06,159.49,184.97,159.32,184.91,159.12c-0.54-0.92-1.28-0.65-1.87-0.62c-0.6,0.04-1.05-0.09-1.27-1.73
						c1.19-0.94,1.9-0.66,2.32-0.01C184.52,157.42,184.67,158.42,184.91,159.12z M206.12,191.07c-0.39,0.75-0.61,1.08-0.49,1.66
						c1.05-0.23,2.73-1.72,2.95-0.49c-1.23,0.75-1.98,3.29-3.66,2.95c1.1-0.9,0.55-1.98,0.1-2.76
						C204.59,191.65,204.34,191.16,206.12,191.07z M190.99,221.72l-0.13-0.13c-0.71,0.26-1.44,0.55-2.19,0.87
						C189.46,222.18,190.24,221.94,190.99,221.72z M186.65,225.31c-3.56,1.48-3.66,2.62-4.75,3.88c1.48-0.54,3.19-1.45,4.5-2.23
						c1.32-0.79,2.25-1.43,2.27-1.74C191.66,223.52,184.38,226.38,186.65,225.31z M198.92,174.76c-0.33,0.42-0.66,0.83-1.01,1.25
						c-0.13-0.11-0.27-0.21-0.41-0.31c0.09,0.73,0.11,1.49,0.14,2.2c-0.77-0.31-1.17-0.73-1.38-1.23c-0.22-0.48-0.23-1.06-0.17-1.68
						c0.1-1.19,0.49-2.55,0.3-3.29c0.33,0.51,0.27,1.99,0.41,2.93C196.92,175.59,197.35,176.07,198.92,174.76z M185.57,233.89
						c-0.59,1.03-0.99,2.22-1.44,3.37c-0.46,1.17-0.95,2.25-2.03,3.22c1.87-1.84,2.8-3.25,3.33-4.24c0.51-1,0.56-1.55,0.36-1.64
						C185.32,234.72,185.38,234.44,185.57,233.89z M177.51,240.38c0.12-1.29,0.79-2.39,1.81-3.63c1.04-1.24,2.42-2.62,4.37-4.5
						c1.3-0.07,0.59,0.87-0.72,2.16c-1.31,1.27-3.26,2.85-4.53,3.66c-1.01,2.33,1.65-0.04,2.7-0.17
						C179.95,238.74,178.74,239.57,177.51,240.38z M188.64,230.03c-0.3,0.04-0.61,0.09-0.9,0.11c-1.12,0.45-3,1.46-4.02,1.84
						c-0.99,0.38-1.1,0.05,1.55-1.93c0.72,0.12,1.57,0.17,2.47,0.09C188.25,229.93,188.61,229.84,188.64,230.03z M196.7,231.4
						c0.07-0.39,0.15-0.78,0.25-1.17C197.24,230.28,197.03,230.81,196.7,231.4c-0.06,0.33-0.11,0.66-0.15,0.98
						C194.89,233.93,196.05,232.54,196.7,231.4z M189.08,232.23c-0.28-0.28-0.54-0.58-0.76-0.93
						C186.32,232.98,188.21,232.55,189.08,232.23z M194.75,234.73c-0.76,0.38-2.87,1.14-2.48,0.85
						C193.76,233.6,194.86,233.75,194.75,234.73z M243.41,226.67l-1.64-0.18c0.28-0.68,0.57-1.36,0.87-2.04
						C242.9,225.19,243.16,225.92,243.41,226.67z M224.85,230.42l0.12-1.09l0.94-0.09L224.85,230.42z M208.76,236.04
						c-0.08-0.44-0.33-0.95-0.63-1.34c-0.28-0.08-0.55-0.26-0.78-0.63c0.18-0.08,0.49,0.21,0.78,0.63c0.8,0.18,1.66-0.41,1.87-1.16
						c-0.62-0.85-1.53-0.29-2.16-0.77c0.61-2.82,6.45,2.71,3.08-3.43c0.92,0.54,3.7,1.47,3.36,2.88
						C212.46,232.44,209.55,234.35,208.76,236.04c0.06,0.37,0.03,0.69-0.24,0.86C208.52,236.62,208.61,236.33,208.76,236.04z
						 M186.8,244.15c-0.54-0.12-0.69-0.29-0.67-0.49c-0.16-0.53,0.24-1.59,1.27-2.82c0.2,0.51-0.04,1.02-0.39,1.51
						c-0.33,0.47-0.82,1.01-0.88,1.31C186.27,243.91,186.48,244.11,186.8,244.15z M182.41,244.58l1.28,1.27
						c-0.04-0.48-0.06-0.95-0.08-1.4c0.43,0.91,0.92,1.72,1.49,2.63c-1.41,0.65-2.39,0.49-2.82-0.16
						C181.82,246.29,181.9,245.38,182.41,244.58z M180.71,245.6l0.74-1.45c-0.18,0.5-0.36,1-0.53,1.52L180.71,245.6l-0.16,0.33
						c-0.5-0.25-1-0.47-1.48-0.72l-1.41-0.87l1.5,0.71C179.66,245.26,180.19,245.41,180.71,245.6z M184.14,216.8
						c-5.23-2.48-6.39,2.08-10.07,2.76c2.11,0.3,4.85,1.43,6.82-1.56c0.2,1.39-1.12,1.69-1.99,1.98c-0.85,0.25-1.24,0.49,1.12,1.16
						c0.19-0.59,0.98-1.25,1.75-1.74c0.77-0.5,1.5-0.83,1.66-0.92l-0.66,1.29c2.35-0.29,2.1-0.7,1.62-1.29
						C183.9,217.92,183.19,217.16,184.14,216.8z M192.59,201.1c0.34-0.66,0.68-1.31,0.99-1.99c-0.4,0.59-0.83,1.17-1.25,1.74
						L192.59,201.1z M165.98,168.14c0.13,0.67-0.42,1.66-1.06,2.17c-0.64,0.57-1.39,0.67-1.92-0.54c0.62-0.28,1.31-0.46,1.86-0.68
						C165.41,168.92,165.84,168.66,165.98,168.14z M145.44,176.47c0.83-0.28,1.71-0.45,2.52-0.65c0.78,1.35,0.4,1.62-0.27,1.72
						c-0.68,0.08-1.59,0.08-1.78,0.64C144.58,177.36,145.89,177.48,145.44,176.47z M138.05,189.63l-0.6,0.68
						c1.04-0.13,2.08-0.23,3.12-0.29L138.05,189.63z M142.17,189.48c1.24,0.62,2.21-0.37,2.1-0.66
						C143.59,188.99,142.89,189.21,142.17,189.48z M145.77,199.87c-0.15-0.22-0.27-0.44-0.41-0.67c-0.78,0.51-1.56,1.05-2.32,1.62
						L145.77,199.87z M142.39,199.67c0.89-0.39,1.97-0.76,2.6-1.19c0.66-0.43,0.76-0.89,0.01-1.55c-2.01,0.35-1.88,0.9-4.37,0.68
						c-0.35,0.78,0.6,1.13,0.89,1.4c0.15-0.52-0.76-0.84,0.53-1.27C142.89,198.27,142.96,199,142.39,199.67
						c-0.64,0.28-1.18,0.57-1.39,0.94C141.58,200.4,142.07,200.05,142.39,199.67z M139.18,192.67c-0.23-0.29-0.5-0.54-0.83-0.68
						l0.52-0.1C139.74,192.23,139.53,192.45,139.18,192.67c0.26,0.31,0.48,0.66,0.69,1.01c1.71,0.14,2.94-1.13,3.9-1.34
						c-0.25,0.25-0.8,0.49-1.17,0.79c-0.37,0.29-0.54,0.63,0.03,0.99c0.49-0.13,0.85-0.05,0.78-0.51l0.47,0.99
						c-1.15,0.68-1.92,0.84-2.52,0.58c-0.6-0.24-1.04-0.86-1.49-1.5c-0.38-0.03-0.77-0.12-1.2-0.38
						C138.43,193.08,138.86,192.87,139.18,192.67z M137.7,204.2l0.14-0.92c0.46-0.62,1.2-0.62,1.62-0.93
						C139.66,203.19,139.08,204.77,137.7,204.2z M158.01,166.15c-0.35,0.66,1.35,2.21,2.33,1.46c0,0.88,0.01,1.75,0.03,2.62
						c-0.45-1.69-2.57-0.79-2.86-0.87C156.38,167.23,157.54,167.91,158.01,166.15z M196.96,194.25c-1.61-0.12-2.13,0.61-2.39,1.45
						c-0.28,0.83-0.31,1.79-0.83,1.95c-0.06-0.84-0.03-2.13,0.36-2.97C194.51,193.84,195.32,193.35,196.96,194.25z M196.56,199.92
						c-0.37,0.8-0.18,1.14-1.64,0.44c-0.78,0.12-0.26,1.07-1.04,1.17C193.24,199.48,195.55,200.59,196.56,199.92
						c0.1-0.21,0.21-0.44,0.42-0.72C196.95,199.58,196.78,199.78,196.56,199.92z M187.12,168.21c0.08-0.87,0.13-1.75,0.16-2.65
						c-0.63-0.28-1.24-0.6-1.88-0.84C186.06,165.88,186.62,167.08,187.12,168.21z M167.78,158.82c0.1,0.68-0.43,1.02-1.04,1.15
						c-0.6,0.14-1.3,0.04-1.57-0.28c0.31,1.78,1.76,1.37,2.96,1.59c0.15,0.15,0.4,0.24,0.78,0.23c-0.23-0.13-0.49-0.18-0.78-0.23
						c-0.45-0.41-0.17-1.33-0.17-1.95l0.62-0.52l-1.77-0.46L167.78,158.82z M132.55,175.14c0.26,2.06-0.2,1.93-1.16,2.65
						c-0.22-0.32-0.19-0.82,0.01-1.34C131.61,175.93,132.05,175.46,132.55,175.14z M179.95,158.75c-1.35,0.11-1.2,0.85-0.99,1.59
						c0.22,0.75,0.49,1.51-0.36,1.75c0.41,0.04,0.82,0.07,1.23,0.13c-2.4,1.32-0.84-2.31-2.4-2.14l1.03-0.11
						c1.18-1.47-1.21-1.51-1.14-2.87C178.67,156.68,181.06,158.67,179.95,158.75z M130.22,176.74c0.09,1.64-0.56,1.91-1.41,2
						c-0.84,0.09-1.84-0.01-2.34,0.78c-0.26-1.43,0.34-1.76,1.17-1.87C128.48,177.52,129.51,177.54,130.22,176.74z M163.87,152.31
						l0.14-0.35c-0.77-0.27-1.54-0.53-2.32-0.73l-0.13,0.37C162.34,151.8,163.11,152.04,163.87,152.31z"/>
					<path class="st8" d="M145.04,187.01c0.08,0.39-0.03,0.57-0.23,0.69C144.82,187.45,144.87,187.21,145.04,187.01z"/>
					<path class="st8" d="M183.65,199.04c0.39,0.24,0.54,0.48,0.59,0.73C184.01,199.62,183.8,199.41,183.65,199.04z"/>
					<path class="st8" d="M181.11,201.39c-0.03,0.03-0.04,0.08-0.07,0.1c-0.06,0-0.13,0.01-0.19,0.01L181.11,201.39z"/>
					<path class="st8" d="M261.06,238.63c-0.41,2.25-0.79-0.01-1.33-0.28C260.25,238.61,261.19,237.37,261.06,238.63z"/>
					<path class="st8" d="M258.26,233.24c0.1,0.75,0.41,1.35,0.93,1.78C258.78,234.92,258.48,234.55,258.26,233.24z"/>
					<path class="st8" d="M261.55,235.85c-1.08-0.04-1.83-0.38-2.37-0.83C259.81,235.17,260.65,234.72,261.55,235.85z"/>
					<path class="st8" d="M245.03,230.52c0.33,0.7,0.87,0.9,1.33,0.94c0.46,0.07,0.85-0.05,0.85-0.05
						c-0.84,0.17-1.24,0.45-1.36,0.76c-0.12,0.31,0.03,0.62,0.28,0.95c0.5,0.69,1.36,1.42,1.4,1.93c-0.87-0.38-1.26-1-1.55-1.78
						C245.69,232.51,245.52,231.57,245.03,230.52z"/>
					<path class="st8" d="M240.67,229.63c0.34-0.01,0.67-0.05,0.93-0.25C241.27,229.71,240.97,229.73,240.67,229.63z"/>
					<path class="st8" d="M239.46,230.95c-1.13-0.26-1.62-1.76-2.25-2.9c1.4-1.15,2.43,1.16,3.46,1.58
						C239.85,229.62,239.04,229.53,239.46,230.95z"/>
					<path class="st8" d="M206.07,247.72c0.41,0.03,1.32-0.33,1.52,0.5l-2.88,1.1C203.52,249.23,205.55,248.1,206.07,247.72z"/>
					<path class="st8" d="M196.8,246.47c-1.81,0.31-1.44,2.47-2.28,2.16l0.95-3.18C195.88,245.79,196.32,246.13,196.8,246.47z"/>
					<path class="st8" d="M200.58,229.75l0.15,0.25c-0.07-0.02-0.14-0.03-0.22-0.03L200.58,229.75z"/>
					<path class="st8" d="M186.51,251.11c-0.11,1.07-0.19,2.16-0.23,3.27C184.91,253.57,186.3,250.97,186.51,251.11z"/>
					<path class="st8" d="M177.96,252.69c0.15,0.37,0.28,0.79,0.45,1.13c-0.49-0.24-0.95-0.55-1.42-0.82
						c-0.46-0.29-0.94-0.5-1.37-0.85C176.38,252.41,177.19,252.51,177.96,252.69z"/>
					<path class="st8" d="M171.04,248.49l-0.79,0.32c-0.46-0.61-0.89-1.24-1.29-1.91c0.33,0.29,0.67,0.56,1.01,0.84L171.04,248.49z"
						/>
					<path class="st8" d="M185.33,178.57c0.85-1.06,1.57-0.93,2.17-0.49c0.29,0.22,0.57,0.51,0.82,0.75
						c0.24,0.25,0.47,0.46,0.73,0.5c-1.53,0.82-1.55,0.28-1.74-0.33c-0.08-0.3-0.18-0.63-0.46-0.78
						C186.57,178.09,186.1,178.13,185.33,178.57z"/>
					<path class="st8" d="M144.82,184.69c0.53-0.56,1.2-1.03,1.75-1.54C146.5,185.21,146.29,183.51,144.82,184.69z"/>
				</g>
			</g>
		</g>
	</g>
</g>
<text transform="matrix(1 0 0 1 478.5752 230.7373)" class="st9 st10 st11">Aa</text>
<g>
	<defs>
		<path id="SVGID_11_" d="M372.88,55.06c2.79-3.12,5.67-6.17,8.65-9.16c42.5-42.5,99-65.9,159.1-65.9s116.6,23.4,159.1,65.9
			c42.5,42.5,65.9,99,65.9,159.1c0,38.25-9.5,75.04-27.35,107.69c-13.34-17.03-23.58-36.59-29.9-57.83
			c4.71-15.81,7.25-32.55,7.25-49.87c0-96.5-78.5-175-175-175c-55.91,0-105.79,26.36-137.85,67.31
			C394.55,82.26,384.55,68.09,372.88,55.06z M678.47,312.69C646.41,353.64,596.54,380,540.62,380c-96.5,0-175-78.5-175-175
			c0-17.32,2.54-34.06,7.25-49.87c-6.32-21.23-16.57-40.79-29.9-57.83c-17.85,32.65-27.35,69.44-27.35,107.69
			c0,60.1,23.4,116.6,65.9,159.1c42.5,42.5,99,65.9,159.1,65.9s116.6-23.4,159.1-65.9c2.98-2.98,5.86-6.04,8.65-9.16
			C696.7,341.91,686.7,327.74,678.47,312.69z"/>
	</defs>
	<clipPath id="SVGID_2_">
		<use xlink:href="#SVGID_11_"  style="overflow:visible;"/>
	</clipPath>
	<g style="clip-path:url(#SVGID_2_);">
		<linearGradient id="SVGID_4_" gradientUnits="userSpaceOnUse" x1="66.512" y1="176.3812" x2="1658.9648" y2="272.6076">
			<stop  offset="0" style="stop-color:#FF0000"/>
			<stop  offset="0.258" style="stop-color:#F7931E"/>
			<stop  offset="0.5056" style="stop-color:#FCEE21"/>
			<stop  offset="0.7849" style="stop-color:#009245"/>
			<stop  offset="1" style="stop-color:#0071BC"/>
		</linearGradient>
		<path style="fill:url(#SVGID_4_);" d="M540.12,410c-113.04,0-205-91.96-205-205s91.96-205,205-205s205,91.96,205,205
			S653.16,410,540.12,410z M540.12,10c-107.52,0-195,87.48-195,195s87.48,195,195,195s195-87.48,195-195S647.65,10,540.12,10z"/>
	</g>
</g>
<g>
	<defs>
		<path id="SVGID_14_" d="M707.5,55.06c2.79-3.12,5.67-6.17,8.65-9.16c42.5-42.5,99-65.9,159.1-65.9s116.6,23.4,159.1,65.9
			c42.5,42.5,65.9,99,65.9,159.1c0,38.25-9.49,75.04-27.35,107.69c-13.34-17.03-23.58-36.59-29.9-57.83
			c4.71-15.81,7.25-32.55,7.25-49.87c0-96.5-78.5-175-175-175c-55.91,0-105.79,26.36-137.85,67.31
			C729.18,82.26,719.17,68.09,707.5,55.06z M1013.1,312.69C981.04,353.64,931.16,380,875.25,380c-96.5,0-175-78.5-175-175
			c0-17.32,2.54-34.06,7.25-49.87c-6.32-21.23-16.57-40.79-29.9-57.83c-17.85,32.65-27.35,69.44-27.35,107.69
			c0,60.1,23.4,116.6,65.9,159.1c42.5,42.5,99,65.9,159.1,65.9s116.6-23.4,159.1-65.9c2.98-2.98,5.86-6.04,8.65-9.16
			C1031.33,341.91,1021.32,327.74,1013.1,312.69z"/>
	</defs>
	<clipPath id="SVGID_6_">
		<use xlink:href="#SVGID_14_"  style="overflow:visible;"/>
	</clipPath>
	<g style="clip-path:url(#SVGID_6_);">
		<linearGradient id="SVGID_8_" gradientUnits="userSpaceOnUse" x1="67.7294" y1="156.2345" x2="1660.1823" y2="252.461">
			<stop  offset="0" style="stop-color:#FF0000"/>
			<stop  offset="0.258" style="stop-color:#F7931E"/>
			<stop  offset="0.5056" style="stop-color:#FCEE21"/>
			<stop  offset="0.7849" style="stop-color:#009245"/>
			<stop  offset="1" style="stop-color:#0071BC"/>
		</linearGradient>
		<path style="fill:url(#SVGID_8_);" d="M874.75,410c-113.04,0-205-91.96-205-205s91.96-205,205-205c113.04,0,205,91.96,205,205
			S987.79,410,874.75,410z M874.75,10c-107.52,0-195,87.48-195,195s87.48,195,195,195s195-87.48,195-195S982.27,10,874.75,10z"/>
	</g>
</g>
<g>
	<defs>
		<path id="SVGID_17_" d="M1042.12,55.06c2.79-3.12,5.67-6.17,8.65-9.16c42.5-42.5,99-65.9,159.1-65.9s116.6,23.4,159.1,65.9
			c42.5,42.5,65.9,99,65.9,159.1c0,38.25-9.49,75.04-27.35,107.69c-13.34-17.03-23.58-36.59-29.9-57.83
			c4.71-15.81,7.25-32.55,7.25-49.87c0-96.5-78.5-175-175-175c-55.91,0-105.79,26.36-137.85,67.31
			C1063.8,82.26,1053.8,68.09,1042.12,55.06z M1347.72,312.69c-32.06,40.95-81.93,67.31-137.85,67.31c-96.5,0-175-78.5-175-175
			c0-17.32,2.54-34.06,7.25-49.87c-6.32-21.23-16.57-40.79-29.9-57.83c-17.85,32.65-27.35,69.44-27.35,107.69
			c0,60.1,23.4,116.6,65.9,159.1c42.5,42.5,99,65.9,159.1,65.9s116.6-23.4,159.1-65.9c2.98-2.98,5.86-6.04,8.65-9.16
			C1365.95,341.91,1355.95,327.74,1347.72,312.69z"/>
	</defs>
	<clipPath id="SVGID_10_">
		<use xlink:href="#SVGID_17_"  style="overflow:visible;"/>
	</clipPath>
	<g style="clip-path:url(#SVGID_10_);">
		<linearGradient id="SVGID_12_" gradientUnits="userSpaceOnUse" x1="68.9468" y1="136.0879" x2="1661.3997" y2="232.3143">
			<stop  offset="0" style="stop-color:#FF0000"/>
			<stop  offset="0.258" style="stop-color:#F7931E"/>
			<stop  offset="0.5056" style="stop-color:#FCEE21"/>
			<stop  offset="0.7849" style="stop-color:#009245"/>
			<stop  offset="1" style="stop-color:#0071BC"/>
		</linearGradient>
		<path style="fill:url(#SVGID_12_);" d="M1209.38,410c-113.04,0-205-91.96-205-205s91.96-205,205-205s205,91.96,205,205
			S1322.41,410,1209.38,410z M1209.38,10c-107.52,0-195,87.48-195,195s87.48,195,195,195s195-87.48,195-195S1316.9,10,1209.38,10z"
			/>
	</g>
</g>
<g>
	<defs>
		<path id="SVGID_20_" d="M1376.75,55.06c2.79-3.12,5.67-6.17,8.65-9.16c42.5-42.5,99-65.9,159.1-65.9s116.6,23.4,159.1,65.9
			c42.5,42.5,65.9,99,65.9,159.1c0,38.25-9.49,75.04-27.35,107.69c-13.34-17.03-23.58-36.59-29.9-57.83
			c4.71-15.81,7.25-32.55,7.25-49.87c0-96.5-78.5-175-175-175c-55.91,0-105.79,26.36-137.85,67.31
			C1398.43,82.26,1388.42,68.09,1376.75,55.06z M1682.35,312.69c-32.06,40.95-81.93,67.31-137.85,67.31c-96.5,0-175-78.5-175-175
			c0-17.32,2.54-34.06,7.25-49.87c-6.32-21.23-16.57-40.79-29.9-57.83c-17.85,32.65-27.35,69.44-27.35,107.69
			c0,60.1,23.4,116.6,65.9,159.1c42.5,42.5,99,65.9,159.1,65.9s116.6-23.4,159.1-65.9c2.98-2.98,5.86-6.04,8.65-9.16
			C1700.58,341.91,1690.57,327.74,1682.35,312.69z"/>
	</defs>
	<clipPath id="SVGID_13_">
		<use xlink:href="#SVGID_20_"  style="overflow:visible;"/>
	</clipPath>
	<g style="clip-path:url(#SVGID_13_);">
		<linearGradient id="SVGID_15_" gradientUnits="userSpaceOnUse" x1="70.1642" y1="115.9412" x2="1662.6171" y2="212.1676">
			<stop  offset="0" style="stop-color:#FF0000"/>
			<stop  offset="0.258" style="stop-color:#F7931E"/>
			<stop  offset="0.5056" style="stop-color:#FCEE21"/>
			<stop  offset="0.7849" style="stop-color:#009245"/>
			<stop  offset="1" style="stop-color:#0071BC"/>
		</linearGradient>
		<path style="fill:url(#SVGID_15_);" d="M1544,410c-113.04,0-205-91.96-205-205S1430.96,0,1544,0s205,91.96,205,205
			S1657.04,410,1544,410z M1544,10c-107.52,0-195,87.48-195,195s87.48,195,195,195s195-87.48,195-195S1651.52,10,1544,10z"/>
	</g>
</g>
<g>
	<defs>
		<path id="SVGID_23_" d="M343.85,312.69C311.79,353.64,261.91,380,206,380c-96.5,0-175-78.5-175-175S109.5,30,206,30
			s175,78.5,175,175c0,17.32-2.54,34.06-7.25,49.87c6.32,21.23,16.57,40.79,29.9,57.83C421.5,280.04,431,243.25,431,205
			c0-60.1-23.4-116.6-65.9-159.1C322.6,3.4,266.1-20,206-20S89.4,3.4,46.9,45.9C4.4,88.4-19,144.9-19,205S4.4,321.6,46.9,364.1
			c42.5,42.5,99,65.9,159.1,65.9s116.6-23.4,159.1-65.9c2.98-2.98,5.86-6.04,8.65-9.16C362.08,341.92,352.07,327.74,343.85,312.69z"
			/>
	</defs>
	<clipPath id="SVGID_16_">
		<use xlink:href="#SVGID_23_"  style="overflow:visible;"/>
	</clipPath>
	<g style="clip-path:url(#SVGID_16_);">
		<linearGradient id="SVGID_18_" gradientUnits="userSpaceOnUse" x1="65.2928" y1="196.558" x2="1657.7456" y2="292.7844">
			<stop  offset="0" style="stop-color:#FF0000"/>
			<stop  offset="0.258" style="stop-color:#F7931E"/>
			<stop  offset="0.5056" style="stop-color:#FCEE21"/>
			<stop  offset="0.7849" style="stop-color:#009245"/>
			<stop  offset="1" style="stop-color:#0071BC"/>
		</linearGradient>
		<path style="fill:url(#SVGID_18_);" d="M205,410C91.96,410,0,318.04,0,205S91.96,0,205,0s205,91.96,205,205S318.04,410,205,410z
			 M205,10C97.48,10,10,97.48,10,205s87.48,195,195,195s195-87.48,195-195S312.52,10,205,10z"/>
	</g>
</g>
<g>
	<g>
		<g>
			<circle class="st3" cx="1171.38" cy="176.36" r="11.24"/>
			<line class="st3" x1="1188.15" y1="193.12" x2="1179.33" y2="184.3"/>
		</g>
		<rect x="1149.15" y="154.12" class="st3" width="50" height="50"/>
	</g>
	<g>
		<rect x="1220.6" y="205.88" class="st3" width="50" height="50"/>
		<line class="st3" x1="1220.6" y1="205.88" x2="1270.6" y2="255.88"/>
		<line class="st3" x1="1270.6" y1="205.88" x2="1220.6" y2="255.88"/>
	</g>
	<path class="st3" d="M1209.6,171.88h18c9.94,0,18,5.37,18,12v12"/>
</g>
</svg>
