<svg id="Layer_1" data-name="Layer 1" xmlns="http://www.w3.org/2000/svg" width="60" height="60" viewBox="0 0 60 60">
  <defs>
    <style>
      .cls-1, .cls-2, .cls-3 {
        fill: none;
      }

      .cls-2, .cls-3 {
        stroke: #000;
        stroke-linejoin: round;
      }

      .cls-2 {
        stroke-width: 2.07275px;
      }

      .cls-3 {
        stroke-width: 2px;
        fill-rule: evenodd;
      }
    </style>
  </defs>
  <title>process</title>
  <rect class="cls-1" x="-1425.40597" y="-370.50672" width="4292.00983" height="2779.30444"/>
  <path d="M53,2V58H7V2H53m2-2H5V60H55V0Z"/>
  <line class="cls-2" x1="15.5" y1="42.5" x2="44.5" y2="42.5"/>
  <line class="cls-2" x1="44.5" y1="50.5" x2="15.5" y2="50.5"/>
  <path class="cls-3" d="M42.49356,34.5c.05659-2.0111-.23325-5.1987-1.94194-6.3609a16.69786,16.69786,0,0,0-3.40909-1.5197c-2.33667-.8567-4.75341-1.7407-4.85692-3.7908a5.07091,5.07091,0,0,1,1.22286-3.1304,8.53424,8.53424,0,0,0,1.78321-4.6605,6.49759,6.49759,0,0,0-1.71421-5.0648A4.94146,4.94146,0,0,0,29.99724,8.5h-.01242a5.18221,5.18221,0,0,0-3.82867,1.6185A5.89,5.89,0,0,0,24.7,14.9662a10.3259,10.3259,0,0,0,1.83291,4.6592,5.34217,5.34217,0,0,1,1.18145,3.2032c-.10489,2.0501-2.52163,2.9341-4.85692,3.7908A16.71174,16.71174,0,0,0,19.447,28.1391c-1.70731,1.1622-1.99715,4.3498-1.94056,6.3609Z"/>
</svg>
