<svg id="Layer_1" data-name="Layer 1" xmlns="http://www.w3.org/2000/svg" width="60" height="60" viewBox="0 0 60 60">
  <defs>
    <style>
      .cls-1 {
        fill: none;
      }
    </style>
  </defs>
  <title>process</title>
  <path d="M30,2a5.5,5.5,0,1,1-5.5,5.5A5.50623,5.50623,0,0,1,30,2m0-2a7.5,7.5,0,1,0,7.5,7.5A7.5,7.5,0,0,0,30,0Z"/>
  <path d="M30,24.5A5.5,5.5,0,1,1,24.5,30,5.50623,5.50623,0,0,1,30,24.5m0-2A7.5,7.5,0,1,0,37.5,30,7.5,7.5,0,0,0,30,22.5Z"/>
  <path d="M30,47a5.5,5.5,0,1,1-5.5,5.5A5.50623,5.50623,0,0,1,30,47m0-2a7.5,7.5,0,1,0,7.5,7.5A7.5,7.5,0,0,0,30,45Z"/>
  <rect class="cls-1" x="-1345.40597" y="-370.50672" width="4292.00983" height="2779.30444"/>
</svg>
