<svg id="outline" xmlns="http://www.w3.org/2000/svg" width="60" height="60" viewBox="0 0 60 60">
  <title>process</title>
  <g>
    <path d="M30,15a7.5,7.5,0,1,0-7.5-7.5A7.5,7.5,0,0,0,30,15ZM30,3a4.5,4.5,0,1,1-4.5,4.5A4.50516,4.50516,0,0,1,30,3Z"/>
    <path d="M30,22.5A7.5,7.5,0,1,0,37.5,30,7.5,7.5,0,0,0,30,22.5Zm0,12A4.5,4.5,0,1,1,34.5,30,4.50516,4.50516,0,0,1,30,34.5Z"/>
    <path d="M30,45a7.5,7.5,0,1,0,7.5,7.5A7.5,7.5,0,0,0,30,45Zm0,12a4.5,4.5,0,1,1,4.5-4.5A4.50516,4.50516,0,0,1,30,57Z"/>
  </g>
</svg>
