<svg id="outline" xmlns="http://www.w3.org/2000/svg" width="60" height="60" viewBox="0 0 60 60">
  <title>process</title>
  <g>
    <path d="M5,0V60H55V0ZM52,57H8V3H52Z"/>
    <rect x="15.5" y="41" width="29" height="3"/>
    <rect x="15.5" y="49" width="29" height="3"/>
    <path d="M17.50684,36H42.49316a1.49967,1.49967,0,0,0,1.499-1.458c.06054-2.15332-.19531-6.01025-2.59668-7.64306A17.65459,17.65459,0,0,0,37.65039,25.208c-1.78809-.65528-3.81348-1.39844-3.86719-2.45313a3.86436,3.86436,0,0,1,.96485-2.21093,9.94723,9.94723,0,0,0,2.04-5.39991,7.987,7.987,0,0,0-2.14551-6.22656A6.41717,6.41717,0,0,0,29.98438,7a6.66905,6.66905,0,0,0-4.9209,2.09082,7.3811,7.3811,0,0,0-1.85059,6.07178,11.75806,11.75806,0,0,0,2.05664,5.27051,4.0193,4.0193,0,0,1,.94727,2.31835c-.05469,1.05762-2.0791,1.8003-3.875,2.45948a17.61253,17.61253,0,0,0-3.73828,1.688c-2.4004,1.63281-2.65625,5.48974-2.59571,7.64306A1.49967,1.49967,0,0,0,17.50684,36ZM20.291,29.37891a15.96166,15.96166,0,0,1,3.09472-1.35547c2.52637-.92725,5.6709-2.08106,5.82715-5.12158a6.69719,6.69719,0,0,0-1.418-4.08741,8.80389,8.80389,0,0,1-1.60742-4.04492,4.39725,4.39725,0,0,1,1.0625-3.624A3.70277,3.70277,0,0,1,29.99414,10a3.42989,3.42989,0,0,1,2.51758,1.02832,5.00059,5.00059,0,0,1,1.28418,3.90234,7.08121,7.08121,0,0,1-1.52539,3.9209,6.42572,6.42572,0,0,0-1.4834,4.05274c.15332,3.03857,3.30078,4.19287,5.84082,5.12451A15.835,15.835,0,0,1,39.708,29.37939c.666.45313,1.1289,1.83448,1.25683,3.62061H19.03516C19.16211,31.21387,19.625,29.83252,20.291,29.37891Z"/>
  </g>
</svg>
